<svg xmlns="http://www.w3.org/2000/svg" width="20.667" height="12.4" viewBox="0 0 20.667 12.4">
  <path id="Icon_awesome-bed" data-name="Icon awesome-bed" d="M5.683,10.7A2.583,2.583,0,1,0,3.1,8.117,2.586,2.586,0,0,0,5.683,10.7ZM17.05,6.567H9.817a.517.517,0,0,0-.517.517v4.65H2.067V5.017A.517.517,0,0,0,1.55,4.5H.517A.517.517,0,0,0,0,5.017V16.383a.517.517,0,0,0,.517.517H1.55a.517.517,0,0,0,.517-.517v-1.55H18.6v1.55a.517.517,0,0,0,.517.517H20.15a.517.517,0,0,0,.517-.517v-6.2A3.616,3.616,0,0,0,17.05,6.567Z" transform="translate(0 -4.5)"/>
</svg>
