<svg xmlns="http://www.w3.org/2000/svg" width="19.957" height="12.7" viewBox="0 0 19.957 12.7">
  <path id="Icon_material-people" data-name="Icon material-people" d="M15.107,12.943a2.721,2.721,0,1,0-2.721-2.721A2.71,2.71,0,0,0,15.107,12.943Zm-7.257,0a2.721,2.721,0,1,0-2.721-2.721A2.71,2.71,0,0,0,7.85,12.943Zm0,1.814c-2.114,0-6.35,1.061-6.35,3.175V20.2H14.2V17.932C14.2,15.819,9.964,14.757,7.85,14.757Zm7.257,0c-.263,0-.562.018-.88.045a3.828,3.828,0,0,1,1.787,3.13V20.2h5.443V17.932C21.457,15.819,17.221,14.757,15.107,14.757Z" transform="translate(-1.5 -7.5)"/>
</svg>
