<svg xmlns="http://www.w3.org/2000/svg" width="18.75" height="15" viewBox="0 0 18.75 15">
  <path id="Icon_awesome-door-open" data-name="Icon awesome-door-open" d="M18.281,13.125H15.938v-9.8a1.43,1.43,0,0,0-1.406-1.449H11.25V3.75h2.813V15h4.219a.469.469,0,0,0,.469-.469v-.938A.469.469,0,0,0,18.281,13.125ZM9.148.03,3.523,1.487a.965.965,0,0,0-.71.942v10.7H.469A.469.469,0,0,0,0,13.594v.938A.469.469,0,0,0,.469,15h9.844V.972A.945.945,0,0,0,9.148.03ZM7.734,8.438c-.388,0-.7-.42-.7-.938s.315-.938.7-.938.7.42.7.938S8.123,8.438,7.734,8.438Z" transform="translate(0 0)"/>
</svg>
