<svg id="Groupe_10673" data-name="Groupe 10673" xmlns="http://www.w3.org/2000/svg" xmlns:xlink="http://www.w3.org/1999/xlink" width="320" height="609.94" viewBox="0 0 320 609.94">
  <defs>
    <clipPath id="clip-path">
      <rect id="Rectangle_4348" data-name="Rectangle 4348" width="320" height="609.94" fill="none"/>
    </clipPath>
  </defs>
  <g id="Groupe_10672" data-name="Groupe 10672" clip-path="url(#clip-path)">
    <path id="Tracé_5278" data-name="Tracé 5278" d="M53.337,269.626l.025.132,2.349,10.615a1.911,1.911,0,0,0,2.275,1.457l116.692-25.361a1.924,1.924,0,0,0,1.468-2.206l-2.7-15.046-2.991.981s.463-11.083.116-20.467c-.322-9.389-6.387-32.583-9.012-32.718-2.1-.118-33.492,5.412-46.795,7.772a8.044,8.044,0,0,0-6.47,6.682c-.978,6.134-3.614,15.7-10.8,20.161C86.438,228.483,61,240.637,56.979,249.085c-2.942,6.266-1.788,13.083-1,16.156a1.83,1.83,0,0,1-.017,1.03,1.859,1.859,0,0,1-1.281,1.237l-.342.132a1.96,1.96,0,0,0-1.005,1.986" transform="translate(93.539 328.063)" fill="#ff771e"/>
    <path id="Tracé_5279" data-name="Tracé 5279" d="M2.091,252.942v.135l.4,10.866a1.906,1.906,0,0,0,1.975,1.84l119.35-3.974a1.921,1.921,0,0,0,1.84-1.906l.047-15.289-3.121.427s2.446-10.819,3.793-20.112c1.369-9.293-.427-33.2-2.986-33.806-2.041-.493-33.916-.694-47.431-.763a8.046,8.046,0,0,0-7.563,5.409c-2.066,5.858-6.376,14.793-14.253,17.892-12.1,4.757-39.306,12.143-44.781,19.731-4.018,5.632-4.109,12.546-3.883,15.71a1.824,1.824,0,0,1-.2,1.011A1.859,1.859,0,0,1,3.8,251.1l-.358.066a1.963,1.963,0,0,0-1.347,1.774" transform="translate(3.668 333.939)" fill="#ff771e"/>
    <path id="Tracé_5280" data-name="Tracé 5280" d="M94.253,99.194S35.039,186.986,23.179,223.9s0,158.626,0,158.626H106.1s-3.991-102.758,0-120.713,18.1-42.63,18.1-42.63l31.217,166.338,90.224-7.494s-52.749-274.34-57.737-287.31-93.653,8.48-93.653,8.48" transform="translate(31.418 151.826)" fill="#ffb700"/>
    <path id="Tracé_5281" data-name="Tracé 5281" d="M4.341,52.341s25.868,27.531,35.99,20.784A33.5,33.5,0,0,0,53.347,56.277S58.01,21.736,43.129,23.394C24.954,25.418,4.341,52.341,4.341,52.341" transform="translate(7.615 40.937)" fill="#fd8753"/>
    <path id="Tracé_5282" data-name="Tracé 5282" d="M9.82,34.079S.386,21.211,9.051,19.834s30.7,17.31,26.5,25.369S9.82,34.079,9.82,34.079" transform="translate(9.455 34.668)" fill="#fd8753"/>
    <path id="Tracé_5283" data-name="Tracé 5283" d="M4.877,100.768a.828.828,0,0,1-.5-.163A.843.843,0,0,1,4.2,99.429l66.2-91.017a.843.843,0,0,1,1.363.992l-66.2,91.017a.843.843,0,0,1-.68.347" transform="translate(7.08 14.15)" fill="#5e1dbb"/>
    <path id="Tracé_5284" data-name="Tracé 5284" d="M6.755,37.765S-2.679,24.894,5.986,23.52s30.7,17.308,26.5,25.367S6.755,37.765,6.755,37.765" transform="translate(4.078 41.134)" fill="#fd8753"/>
    <path id="Tracé_5285" data-name="Tracé 5285" d="M5.484,41.085s-10.166-9.8-2.818-12.306S32.046,39.243,29.6,46.9s-24.111-5.82-24.111-5.82" transform="translate(-0.001 49.932)" fill="#fd8753"/>
    <path id="Tracé_5286" data-name="Tracé 5286" d="M34.883,26.638a6.986,6.986,0,0,1-4.035,10.105c-8.106,2.479-19.156,4.889-17.74-.945,1.3-5.354,7.558-9.48,12.482-11.964a7.012,7.012,0,0,1,9.293,2.8" transform="translate(22.777 40.475)" fill="#fd8753"/>
    <path id="Tracé_5287" data-name="Tracé 5287" d="M21.664,57.977a.841.841,0,0,1-.788-.548c-2.586-6.927-1.088-16.013-.465-19.057-4.776-.132-7.459-1.231-8.191-3.344-1.383-3.983,5.409-9.48,6.186-10.092a.842.842,0,1,1,1.044,1.322c-2.578,2.033-6.39,6.062-5.641,8.219.5,1.435,3.2,2.223,7.618,2.223a.852.852,0,0,1,.691.325.833.833,0,0,1,.154.719c-.028.113-2.721,11.32.182,19.1a.841.841,0,0,1-.79,1.135" transform="translate(21.112 43.426)"/>
    <path id="Tracé_5288" data-name="Tracé 5288" d="M18.49,50.485a17.3,17.3,0,0,1-7.406-2.165.84.84,0,0,1-.317-1.146.849.849,0,0,1,1.149-.317c.077.044,7.894,4.412,10.59-.165a2.572,2.572,0,0,0,.278-2.206c-.733-2.281-4.341-4.316-5.671-4.905L3.966,29.859a.843.843,0,0,1,1.005-1.352l12.984,9.629c.061.006,5.316,2.366,6.431,5.839a4.231,4.231,0,0,1-.43,3.575,5.93,5.93,0,0,1-5.467,2.936" transform="translate(6.362 49.715)"/>
    <path id="Tracé_5289" data-name="Tracé 5289" d="M19.524,49.672a13.54,13.54,0,0,1-6.825-2.03.84.84,0,1,1,.892-1.424c.295.182,7.249,4.451,11.372-.865,2.333-3.01-3.663-7.99-3.724-8.04L6.394,25.2a.841.841,0,1,1,1.063-1.3L22.3,36.006c.3.242,7.373,6.021,3.994,10.381a8.224,8.224,0,0,1-6.77,3.286" transform="translate(10.671 41.595)"/>
    <path id="Tracé_5290" data-name="Tracé 5290" d="M7.733,63.075s23.466,57.8,62.847,69.991c43.5,13.468,65.419-5.985,65.419-5.985l15.286-64.009s-43.41,4.495-62.75-5.564C78.2,52.138,57.3,30.558,57.3,30.558Z" transform="translate(13.566 53.606)" fill="#9364ed"/>
    <path id="Tracé_5291" data-name="Tracé 5291" d="M94.944,118.55c.79,3.671,7.4,10.317,7.4,10.317s3.754,13.039,7.847,13.463,7.585-6.266,7.585-6.266,8.607,2.595,11.634,1.57,17.649-4.2,20.219-12.289-14.741-39.32-14.741-39.32l-32.949,1.3s-7.784,27.554-6.993,31.225" transform="translate(166.457 150.91)" fill="#fd8753"/>
    <path id="Tracé_5292" data-name="Tracé 5292" d="M104.562,111.665a.842.842,0,0,1-.835-.727l-1.3-9.566a.84.84,0,0,1,.722-.947.816.816,0,0,1,.947.719l1.3,9.566a.838.838,0,0,1-.719.947.779.779,0,0,1-.113.008" transform="translate(179.669 176.149)"/>
    <path id="Tracé_5293" data-name="Tracé 5293" d="M99.319,116.818a.844.844,0,0,1-.84-.768L96.614,94.288a.843.843,0,0,1,1.68-.146l1.865,21.761a.845.845,0,0,1-.768.912l-.072,0" transform="translate(169.48 163.799)"/>
    <path id="Tracé_5294" data-name="Tracé 5294" d="M114.529,42.615,70.257,48.567,48.661,182.25s26.738,5.5,47.679,3.5,26.452-4.988,26.452-4.988Z" transform="translate(85.364 74.757)" fill="#fff"/>
    <path id="Tracé_5295" data-name="Tracé 5295" d="M91.35,42.615a15.568,15.568,0,0,0-.807,2.446S84.817,63.2,78.061,113.934c-4.374,32.853-6.629,62.516-8.042,75.984l-28.058-3.729S52.427,65.533,59.924,55.59C65.581,48.068,83.156,44.1,91.35,42.615" transform="translate(73.61 74.757)" fill="#9364ed"/>
    <path id="Tracé_5296" data-name="Tracé 5296" d="M201,167.251l-63.772,6.621s-3.883-23.9-10.976-34.927A25.28,25.28,0,0,0,109.9,127.6v64.422H67.836L73.78,51.961l-.5-10.458c22.155-.719,56.275,2.763,83.906,25.59C200.528,102.917,201,167.251,201,167.251" transform="translate(119.001 72.658)" fill="#9364ed"/>
    <path id="Tracé_5297" data-name="Tracé 5297" d="M91.476,37.265,89.325,59.247s-4.58,5.93-17.542,5.718c-9.656-.16-12.81-2.652-12.81-2.652l2.424-11,2.38-10.728L87.5,37.744Z" transform="translate(103.454 65.372)" fill="#fd8753"/>
    <path id="Tracé_5298" data-name="Tracé 5298" d="M85.952,37.439a7.341,7.341,0,0,1-.846,2.057C79.113,50,65.436,51.048,59.853,51l2.38-10.728Z" transform="translate(104.997 65.677)"/>
    <path id="Tracé_5299" data-name="Tracé 5299" d="M68.112,24.536S53.881,50.966,56.93,66.723s17.283,14.487,25.923,12.2,12.962-7.117,12.962-7.117a11.883,11.883,0,0,0,13.468-3.558c5.847-6.861,3.305-15.5-1.016-17.79s-9.91.507-9.91.507l4.828-7.624S88.951,1.409,68.112,24.536" transform="translate(99.118 30.836)" fill="#fd8753"/>
    <path id="Tracé_5300" data-name="Tracé 5300" d="M72.139,39.016a.843.843,0,0,1-.424-1.57l10.6-6.153a.842.842,0,0,1,.846,1.457L72.563,38.9a.852.852,0,0,1-.424.113" transform="translate(125.074 54.698)"/>
    <path id="Tracé_5301" data-name="Tracé 5301" d="M79.47,36.849a.859.859,0,0,1-.286-.05l-6.357-2.316A.842.842,0,1,1,73.4,32.9l6.357,2.316a.842.842,0,0,1-.286,1.633" transform="translate(126.779 57.625)"/>
    <path id="Tracé_5302" data-name="Tracé 5302" d="M72.228,28.019a.842.842,0,0,1-.713-.394,5.13,5.13,0,0,0-6.3-2.415.841.841,0,0,1-.65-1.551,6.786,6.786,0,0,1,8.376,3.071.843.843,0,0,1-.713,1.289" transform="translate(112.364 40.711)"/>
    <path id="Tracé_5303" data-name="Tracé 5303" d="M59.853,25.486a.842.842,0,0,1-.471-1.54,6.063,6.063,0,0,1,6.869.019.841.841,0,0,1-.989,1.361,4.408,4.408,0,0,0-4.938.017.844.844,0,0,1-.471.143" transform="translate(103.521 40.126)"/>
    <path id="Tracé_5304" data-name="Tracé 5304" d="M61.147,43.166a.842.842,0,0,1-.826-.68,18.152,18.152,0,0,1,3.655-15.151.84.84,0,1,1,1.245,1.129,16.77,16.77,0,0,0-3.247,13.7.849.849,0,0,1-.667.992c-.055.006-.107.011-.16.011" transform="translate(105.179 47.471)"/>
    <path id="Tracé_5305" data-name="Tracé 5305" d="M59.515,31.858a.826.826,0,0,1-.3-.055.841.841,0,0,1-.487-1.085l1.867-4.908a.843.843,0,0,1,1.575.6L60.3,31.315a.842.842,0,0,1-.788.543" transform="translate(102.925 44.325)"/>
    <path id="Tracé_5306" data-name="Tracé 5306" d="M64.555,32.45a.815.815,0,0,1-.3-.055.843.843,0,0,1-.488-1.085l1.87-4.908a.843.843,0,0,1,1.575.6l-1.87,4.908a.845.845,0,0,1-.788.543" transform="translate(111.769 45.366)"/>
    <path id="Tracé_5307" data-name="Tracé 5307" d="M59.753,32.761a9.327,9.327,0,0,1,8.307-3.688,11.918,11.918,0,0,1,8.31,4.674s-3.308,9,3.669,14.633S92.92,53.209,92.92,53.209l5.6-1.4,4.74-7.514L89.26,25.9l-18.42-9.6L59.6,24.658Z" transform="translate(104.557 28.593)" fill="#fff"/>
    <path id="Tracé_5308" data-name="Tracé 5308" d="M63.359,38.245a7.546,7.546,0,0,1-1.4-.124.839.839,0,0,1-.661-.986.827.827,0,0,1,.983-.667c.185.033,4.509.807,6.753-2.977a.843.843,0,0,1,1.449.862,8.114,8.114,0,0,1-7.123,3.892" transform="translate(107.501 58.032)"/>
    <path id="Tracé_5309" data-name="Tracé 5309" d="M11.371.061a2.309,2.309,0,0,0-2.517,3.4L23.168,28.259l15.2,26.333a2.308,2.308,0,0,0,3.856.22L56.238,35.856,70.249,16.9a2.308,2.308,0,0,0-1.341-3.622L39.272,6.471Z" transform="translate(14.978 -0.001)" fill="#ffb700"/>
    <path id="Tracé_5310" data-name="Tracé 5310" d="M59.226,45.753s2-8.142,5.71-12.518,18.792,3.476,23.72,12.518A94.575,94.575,0,0,1,95.18,59.665s7.205-3.148,9.913-.507L107.8,61.8s6.236-9.1,6.734-11.045l.5-1.942s1.5,1.151,3.991-1.917,2.413-22.524-18.247-31.5-34.852,6.175-39.7,12.659-1.854,17.7-1.854,17.7" transform="translate(102.295 22.137)" fill="#e2209e"/>
    <path id="Tracé_5311" data-name="Tracé 5311" d="M71.211,53.289A23.619,23.619,0,0,1,59.048,50.22a.842.842,0,0,1,.92-1.41c.063.039,6.288,3.977,15.655,2.426,9.676-1.595,13.65-6.321,13.689-6.368a.841.841,0,0,1,1.306,1.06c-.174.215-4.363,5.261-14.716,6.971a29.025,29.025,0,0,1-4.69.388" transform="translate(102.919 78.166)" fill="#5e1dbb"/>
    <path id="Tracé_5312" data-name="Tracé 5312" d="M38.847,61.071a5.4,5.4,0,0,1-1.228-.149A4.215,4.215,0,0,1,34.4,58.267c-1.975-5.415,6.28-16.633,7.227-17.894a.849.849,0,0,1,.862-.314.838.838,0,0,1,.636.664c.292,1.548,2.727,15.228-1.438,19.227a3.992,3.992,0,0,1-2.837,1.121m2.947-18.043c-2.754,4.018-7.032,11.331-5.814,14.664A2.541,2.541,0,0,0,38,59.284a2.572,2.572,0,0,0,2.523-.548c2.564-2.462,1.967-10.893,1.275-15.707" transform="translate(59.805 70.238)" fill="#5e1dbb"/>
    <path id="Tracé_5313" data-name="Tracé 5313" d="M89.582,86.459a.843.843,0,0,1-.763-1.2c.226-.479,5.564-11.733,10.832-13.262a3.972,3.972,0,0,1,3.363.449,2.654,2.654,0,0,1,1.4,2.46c-.251,4.349-12.1,10.315-14.468,11.466a.832.832,0,0,1-.369.085m11.3-12.959a2.7,2.7,0,0,0-.763.116c-3.035.881-6.585,6.365-8.607,10.07,4.982-2.658,11.094-6.629,11.224-8.874.011-.245-.044-.573-.628-.945a2.237,2.237,0,0,0-1.226-.366" transform="translate(155.671 125.985)" fill="#5e1dbb"/>
    <path id="Tracé_5314" data-name="Tracé 5314" d="M45.486,91.475a.862.862,0,0,1-.837-.936L48.389,57.8a.843.843,0,0,1,1.675.193l-3.74,32.74a.843.843,0,0,1-.837.746" transform="translate(78.315 100.083)" fill="#5e1dbb"/>
    <path id="Tracé_5315" data-name="Tracé 5315" d="M83.645,79.711a.843.843,0,0,1-.843-.843v-8.83a.843.843,0,1,1,1.686,0v8.83a.843.843,0,0,1-.843.843" transform="translate(145.256 121.385)" fill="#5e1dbb"/>
    <path id="Tracé_5316" data-name="Tracé 5316" d="M79.686,185.6a.839.839,0,0,1-.835-.741l-8.687-71.5-26.212-5.525a.842.842,0,0,1,.347-1.647l26.8,5.646a.846.846,0,0,1,.664.724l8.759,72.1a.84.84,0,0,1-.735.936c-.03,0-.066.006-.1.006" transform="translate(75.932 186.249)" fill="#e2209e"/>
    <path id="Tracé_5317" data-name="Tracé 5317" d="M97.352,120.14c-16.707-2.2-25.59-19.032-25.962-19.748a.842.842,0,1,1,1.5-.774c.088.168,8.863,16.776,24.576,18.845a.842.842,0,0,1-.11,1.677" transform="translate(125.073 173.959)" fill="#e2209e"/>
    <path id="Tracé_5318" data-name="Tracé 5318" d="M61.972,155.918c-2.867-.066-17.153-.573-18.737-4.239a2.38,2.38,0,0,1,.653-2.652c4.883-5.426,17.225,4.272,18.61,5.4a.84.84,0,0,1-.526,1.5m-14.063-6.836a3.563,3.563,0,0,0-2.771,1.071c-.328.361-.446.653-.358.859.675,1.562,7.613,2.746,14.523,3.121-3.209-2.253-8.034-5.051-11.394-5.051" transform="translate(75.545 258.558)" fill="#e2209e"/>
    <path id="Tracé_5319" data-name="Tracé 5319" d="M87.6,220.691c-2.556,0-23.384-.2-27.857-6.539a4.851,4.851,0,0,1-.545-4.69,5.553,5.553,0,0,1,3.567-3.5c2.691-.92,6.439-.292,10.232.95-3.173-2.515-5.778-5.272-6.4-7.861a4.581,4.581,0,0,1,.84-4.029,4.032,4.032,0,0,1,3.57-1.727c6.682.284,16.426,15.181,17.517,16.881a.842.842,0,0,1-1.418.906c-2.829-4.407-11.251-15.9-16.17-16.1a2.355,2.355,0,0,0-2.165,1.071,2.928,2.928,0,0,0-.534,2.614c.851,3.583,6.795,8.009,12.27,11.356a87.4,87.4,0,0,1,7.756,4.261.836.836,0,0,1,.289,1.118.845.845,0,0,1-1.1.35c-.328-.157-3.751-1.812-7.742-4.239-5.434-2.644-12.427-5.321-16.4-3.955a3.89,3.89,0,0,0-2.528,2.484,3.219,3.219,0,0,0,.339,3.148c3.451,4.894,20.351,5.834,26.694,5.825a.841.841,0,0,1,.011,1.683Z" transform="translate(103.208 339.066)" fill="#9364ed"/>
    <path id="Tracé_5320" data-name="Tracé 5320" d="M40.637,218.694c-1.713,0-23.711-.129-28.126-6.613a4.724,4.724,0,0,1-.41-4.641,5.249,5.249,0,0,1,3.346-3.123c3.636-1.234,9.364.347,14.493,2.418-4.839-3.644-9.637-7.979-10.2-11.168a3.11,3.11,0,0,1,.6-2.561,5.755,5.755,0,0,1,5.272-2.449c7.5.843,15.512,17.013,15.851,17.7a.843.843,0,0,1-.386,1.126A.852.852,0,0,1,39.954,209c-2.187-4.456-9.061-16.154-14.529-16.768a4.12,4.12,0,0,0-3.771,1.832,1.429,1.429,0,0,0-.259,1.212c.821,4.666,14.534,13.848,19.748,16.994a.842.842,0,0,1-.865,1.446c-.174-.1-17.3-10.2-24.29-7.806a3.594,3.594,0,0,0-2.325,2.154,3.1,3.1,0,0,0,.237,3.071c3.289,4.831,20.194,5.878,26.647,5.878h.157a.841.841,0,1,1,.006,1.683Z" transform="translate(20.493 334.219)" fill="#9364ed"/>
    <path id="Tracé_5321" data-name="Tracé 5321" d="M80.53,30.076a.84.84,0,0,1-.79-.551l-1.7-4.613a.843.843,0,1,1,1.581-.584l1.7,4.616a.84.84,0,0,1-.5,1.08.824.824,0,0,1-.289.052" transform="translate(136.8 41.711)" fill="#fff"/>
    <path id="Tracé_5322" data-name="Tracé 5322" d="M20.36,34.867a.83.83,0,0,1-.485-.154.842.842,0,0,1-.2-1.173L36.12,10.172a.842.842,0,1,1,1.377.969L21.049,34.509a.839.839,0,0,1-.689.358" transform="translate(34.24 17.216)" fill="#fff"/>
  </g>
</svg>
