<svg id="seo-and-web_2_" data-name="seo-and-web (2)" xmlns="http://www.w3.org/2000/svg" xmlns:xlink="http://www.w3.org/1999/xlink" width="115.497" height="98.867" viewBox="0 0 115.497 98.867">
  <defs>
    <linearGradient id="linear-gradient" x1="0.5" x2="0.5" y2="1" gradientUnits="objectBoundingBox">
      <stop offset="0" stop-color="#ff2053"/>
      <stop offset="0.214" stop-color="#5e1dbb"/>
      <stop offset="0.395" stop-color="#9364ed"/>
      <stop offset="0.61" stop-color="#ff771e"/>
      <stop offset="0.808" stop-color="#ffb700"/>
      <stop offset="1" stop-color="#e2209e"/>
    </linearGradient>
  </defs>
  <path id="Tracé_4748" data-name="Tracé 4748" d="M72.117,81.242a28.9,28.9,0,0,1,.177-3.152H32.074a8.361,8.361,0,0,1-8.352-8.351V13.688A8.361,8.361,0,0,0,16.129,22V77.331a8.363,8.363,0,0,0,8.352,8.352H72.467A28.4,28.4,0,0,1,72.117,81.242Zm0,0" transform="translate(-12.882 -10.375)" fill="#ddd" opacity="0.4"/>
  <path id="Tracé_4749" data-name="Tracé 4749" d="M89.034,9.055V39.807q-.845-.053-1.706-.053c-.611,0-1.214.02-1.816.061v-18.6H3.521V64.037a8.309,8.309,0,0,0,8.3,8.3H59.507a27.967,27.967,0,0,0,.578,2.772c.066.252.137.5.209.749H11.821A11.834,11.834,0,0,1,0,64.037V9.055A11.834,11.834,0,0,1,11.821-2.766H77.213A11.835,11.835,0,0,1,89.034,9.055Zm-3.521,8.636V9.055a8.31,8.31,0,0,0-8.3-8.3H11.821a8.308,8.308,0,0,0-8.3,8.3v8.636Zm0,0" transform="translate(0 2.766)"/>
  <g id="Groupe_10367" data-name="Groupe 10367" transform="translate(6.121 7.108)">
    <path id="Tracé_4750" data-name="Tracé 4750" d="M323.782,208.51q-.844-.053-1.706-.053c-.611,0-1.214.02-1.816.061a28.214,28.214,0,0,0-25.428,35.294c.066.252.137.5.209.749a28.171,28.171,0,1,0,28.74-36.051Zm-1.706,52.764a24.65,24.65,0,0,1-23.837-18.357c-.04-.156-.081-.311-.119-.471a24.667,24.667,0,0,1,23.9-30.467h.055a24.648,24.648,0,1,1,0,49.3Zm0,0" transform="translate(-240.869 -173.045)" fill="url(#linear-gradient)"/>
    <path id="Tracé_4751" data-name="Tracé 4751" d="M392.975,287.247a1.759,1.759,0,0,0-2.4,0l-8.8,8.194a1.761,1.761,0,1,0,2.4,2.576l5.842-5.437v17.243a1.761,1.761,0,1,0,3.521,0V292.579l5.842,5.438a1.761,1.761,0,1,0,2.4-2.576Zm0,0" transform="translate(-310.568 -235.597)" fill="url(#linear-gradient)"/>
    <path id="Tracé_4752" data-name="Tracé 4752" d="M176.366,42.821h.015a4.924,4.924,0,0,0,4.919-4.9V37.9a4.922,4.922,0,0,0-4.9-4.92h-.014a4.92,4.92,0,0,0-.015,9.841Zm-.973-5.912a1.39,1.39,0,0,1,.988-.408h0a1.4,1.4,0,0,1,0,2.8h-.006a1.4,1.4,0,0,1-.983-2.391Zm0,0" transform="translate(-143.06 -32.892)" fill="#4f4f4f"/>
    <path id="Tracé_4753" data-name="Tracé 4753" d="M105.9,32.754h-.018a4.921,4.921,0,0,0-3.488,8.39,4.869,4.869,0,0,0,3.472,1.451h.018a4.92,4.92,0,1,0,.016-9.841Zm-.018,6.321h0a1.4,1.4,0,0,1,0-2.8h.005a1.4,1.4,0,0,1-.005,2.8Zm0,0" transform="translate(-86.761 -32.711)" fill="#4f4f4f"/>
    <path id="Tracé_4754" data-name="Tracé 4754" d="M40.256,37.477a4.925,4.925,0,0,0-4.907-4.934h-.015a4.921,4.921,0,0,0-.015,9.842h.015A4.93,4.93,0,0,0,40.256,37.477Zm-4.922,1.386h0a1.4,1.4,0,0,1,0-2.8h0a1.4,1.4,0,0,1,0,2.8Zm0,0" transform="translate(-30.406 -32.543)" fill="#4f4f4f"/>
  </g>
</svg>
