<svg id="seo-and-web" xmlns="http://www.w3.org/2000/svg" xmlns:xlink="http://www.w3.org/1999/xlink" width="115.375" height="98.762" viewBox="0 0 115.375 98.762">
  <defs>
    <linearGradient id="linear-gradient" x1="0.5" x2="0.5" y2="1" gradientUnits="objectBoundingBox">
      <stop offset="0" stop-color="#ff2053"/>
      <stop offset="0.214" stop-color="#5e1dbb"/>
      <stop offset="0.395" stop-color="#9364ed"/>
      <stop offset="0.61" stop-color="#ff771e"/>
      <stop offset="0.808" stop-color="#ffb700"/>
      <stop offset="1" stop-color="#e2209e"/>
    </linearGradient>
  </defs>
  <path id="Tracé_4734" data-name="Tracé 4734" d="M72.057,81.17a28.869,28.869,0,0,1,.177-3.148H32.057a8.352,8.352,0,0,1-8.344-8.342V13.688a8.353,8.353,0,0,0-7.585,8.307V77.264a8.354,8.354,0,0,0,8.343,8.344H72.407A28.369,28.369,0,0,1,72.057,81.17Zm0,0" transform="translate(-12.886 -10.379)" fill="#ddd" opacity="0.4"/>
  <path id="Tracé_4735" data-name="Tracé 4735" d="M88.939,9.043V39.761q-.844-.053-1.7-.053c-.61,0-1.213.02-1.814.06V21.187H3.517V63.966a8.3,8.3,0,0,0,8.291,8.291H59.443a27.938,27.938,0,0,0,.577,2.769c.066.251.137.5.209.749H11.808A11.821,11.821,0,0,1,0,63.966V9.043A11.821,11.821,0,0,1,11.808-2.766H77.131A11.822,11.822,0,0,1,88.939,9.043ZM85.422,17.67V9.043A8.3,8.3,0,0,0,77.131.752H11.808A8.3,8.3,0,0,0,3.517,9.043V17.67Zm0,0" transform="translate(0 2.766)"/>
  <g id="Groupe_10365" data-name="Groupe 10365" transform="translate(6.114 7.1)">
    <path id="Tracé_4736" data-name="Tracé 4736" d="M323.75,208.51q-.844-.053-1.7-.053c-.61,0-1.213.02-1.814.06a28.184,28.184,0,0,0-25.4,35.256c.066.251.137.5.209.749A28.141,28.141,0,1,0,323.75,208.51Zm-1.7,52.708a24.624,24.624,0,0,1-23.812-18.337c-.04-.156-.081-.311-.119-.47a24.641,24.641,0,0,1,23.875-30.435h.055a24.621,24.621,0,1,1,0,49.243Zm0,0" transform="translate(-240.926 -173.083)" fill="url(#linear-gradient)"/>
    <path id="Tracé_4737" data-name="Tracé 4737" d="M395.887,311.638l-12.71,10.341-4.914-5.756a1.759,1.759,0,0,0-2.676,2.283l6.029,7.063a1.76,1.76,0,0,0,2.448.221l14.044-11.424a1.759,1.759,0,1,0-2.221-2.729Zm0,0" transform="translate(-305.839 -255.2)" fill="url(#linear-gradient)"/>
    <path id="Tracé_4738" data-name="Tracé 4738" d="M176.361,42.811h.015a4.915,4.915,0,1,0,.014-9.831h-.014a4.915,4.915,0,0,0-.015,9.831Zm-.972-5.906a1.389,1.389,0,0,1,.987-.408h0a1.4,1.4,0,1,1,0,2.8h-.005a1.4,1.4,0,0,1-.982-2.389Zm0,0" transform="translate(-143.09 -32.892)" fill="#4f4f4f"/>
    <path id="Tracé_4739" data-name="Tracé 4739" d="M105.826,42.584h.016a4.915,4.915,0,0,0,.018-9.831h-.018a4.915,4.915,0,1,0-.016,9.831Zm-.969-5.906a1.392,1.392,0,0,1,.985-.407h.005a1.4,1.4,0,0,1,1.394,1.4v0a1.4,1.4,0,0,1-1.4,1.392h0a1.4,1.4,0,0,1-.983-2.389Zm0,0" transform="translate(-86.739 -32.711)" fill="#4f4f4f"/>
    <path id="Tracé_4740" data-name="Tracé 4740" d="M35.314,42.374h.015a4.915,4.915,0,0,0,3.487-8.381,4.868,4.868,0,0,0-3.472-1.45h-.015a4.916,4.916,0,0,0-.015,9.831Zm-.969-5.909a1.386,1.386,0,0,1,.984-.4h0a1.4,1.4,0,0,1,0,2.8h0a1.4,1.4,0,0,1-1.392-1.4A1.377,1.377,0,0,1,34.345,36.465Zm0,0" transform="translate(-30.406 -32.543)" fill="#4f4f4f"/>
  </g>
</svg>
