<svg id="ui_1_" data-name="ui (1)" xmlns="http://www.w3.org/2000/svg" xmlns:xlink="http://www.w3.org/1999/xlink" width="109.646" height="99.467" viewBox="0 0 109.646 99.467">
  <defs>
    <linearGradient id="linear-gradient" x1="0.5" x2="0.5" y2="1" gradientUnits="objectBoundingBox">
      <stop offset="0" stop-color="#ff2053"/>
      <stop offset="0.214" stop-color="#5e1dbb"/>
      <stop offset="0.395" stop-color="#9364ed"/>
      <stop offset="0.61" stop-color="#ff771e"/>
      <stop offset="0.808" stop-color="#ffb700"/>
      <stop offset="1" stop-color="#e2209e"/>
    </linearGradient>
  </defs>
  <path id="Tracé_4741" data-name="Tracé 4741" d="M32.594,79.281a8.25,8.25,0,0,1-8.238-8.238V16.47c0-.242.012-.48.034-.716a8.246,8.246,0,0,0-7.523,8.2V78.532a8.249,8.249,0,0,0,8.238,8.238h53.08V79.281Zm0,0" transform="translate(-13.497 -12.302)" fill="#ddd" opacity="0.4"/>
  <path id="Tracé_4742" data-name="Tracé 4742" d="M88.372,10.214V40.171L87.2,39.549a1.747,1.747,0,0,0-1.66.009l-.667.364V22.281H3.5V64.787a8.247,8.247,0,0,0,8.238,8.238H64.194a31.3,31.3,0,0,0,.824,3.5H11.733A11.746,11.746,0,0,1,0,64.787V10.214A11.746,11.746,0,0,1,11.733-1.52H76.639A11.747,11.747,0,0,1,88.372,10.214Zm-3.494,8.572V10.214a8.25,8.25,0,0,0-8.238-8.238H11.733A8.246,8.246,0,0,0,3.5,10.214v8.572Zm0,0" transform="translate(0 1.52)"/>
  <g id="Groupe_10366" data-name="Groupe 10366" transform="translate(6.075 7.056)">
    <path id="Tracé_4743" data-name="Tracé 4743" d="M386.056,328.442a1.748,1.748,0,0,0,2.431.219l13.179-10.722a1.748,1.748,0,0,0-2.206-2.712l-11.853,9.646-4.551-5.33a1.748,1.748,0,0,0-2.659,2.27Zm0,0" transform="translate(-310.13 -258.68)" fill="url(#linear-gradient)"/>
    <path id="Tracé_4744" data-name="Tracé 4744" d="M320.169,240.168a31.729,31.729,0,0,0,17.687,20.016l2.906,1.266a1.737,1.737,0,0,0,.7.145,1.77,1.77,0,0,0,.695-.143l3.27-1.413A31.624,31.624,0,0,0,364.8,230.885V216.206a1.746,1.746,0,0,0-.924-1.542l-20.35-10.844-1.168-.621a1.746,1.746,0,0,0-1.66.009l-.667.365-20.256,11.1a1.75,1.75,0,0,0-.909,1.533v14.979a31.616,31.616,0,0,0,1.306,8.984Zm2.189-22.927,19.187-10.514L361.3,217.254v13.631a28.14,28.14,0,0,1-17.248,25.94.023.023,0,0,0-.013,0l-2.581,1.114-2.2-.962a28.164,28.164,0,0,1-16.9-25.8Zm0,0" transform="translate(-261.226 -169.185)" fill="url(#linear-gradient)"/>
    <path id="Tracé_4745" data-name="Tracé 4745" d="M176.313,44h.017a4.884,4.884,0,0,0,.015-9.769h-.015A4.884,4.884,0,0,0,176.313,44Zm-.964-5.869a1.392,1.392,0,0,1,.981-.405h0a1.39,1.39,0,0,1,0,2.779h0a1.389,1.389,0,0,1-.976-2.374Zm0,0" transform="translate(-143.258 -34.14)" fill="#4f4f4f"/>
    <path id="Tracé_4746" data-name="Tracé 4746" d="M105.788,43.771h.017A4.886,4.886,0,1,0,105.821,34H105.8a4.886,4.886,0,1,0-.016,9.771Zm-.964-5.871a1.384,1.384,0,0,1,.98-.405h0a1.39,1.39,0,1,1-.984.405Zm0,0" transform="translate(-86.823 -33.959)" fill="#4f4f4f"/>
    <path id="Tracé_4747" data-name="Tracé 4747" d="M35.283,43.561H35.3a4.884,4.884,0,0,0,.015-9.768H35.3a4.884,4.884,0,0,0-.014,9.768Zm-.964-5.869a1.373,1.373,0,0,1,.978-.4H35.3a1.389,1.389,0,0,1-.005,2.779h0a1.391,1.391,0,0,1-1.382-1.392A1.361,1.361,0,0,1,34.319,37.692Zm0,0" transform="translate(-30.406 -33.793)" fill="#4f4f4f"/>
  </g>
</svg>
