<?xml version="1.0" encoding="UTF-8"?>
<svg id="Calque_1" data-name="Calque 1" xmlns="http://www.w3.org/2000/svg" viewBox="0 0 330.79 342.42">
  <path d="m209.83,269c-.06,7.77-2.98,12.03-9.43,14.01-36.69,11.29-73.41,22.51-110.11,33.74-27.65,8.46-55.29,16.96-82.97,25.31-2.17.65-4.68.2-7.03.26-.03-2.31-.64-4.79,0-6.9,18.4-60.41,36.92-120.79,55.42-181.17,1.22-3.97,2.32-7.98,3.69-11.9,2.7-7.74,7.04-10.4,15.26-9.58,11.46,1.14,21.32,6.48,30.63,12.61,39.22,25.83,71.7,58.3,95.78,98.83,4.7,7.91,8.24,16.34,8.76,24.79ZM74.05,138.6c-.19.43-.37.85-.56,1.28-5.57-.17-8.08,2.03-6.9,7.52,1.27,5.94,2.89,12.1,5.85,17.33,23.85,42.14,57.19,75.31,97.89,101.12,6.9,4.37,14.92,7.25,22.76,9.79,7.09,2.3,10.8-1.41,9.22-8.66-1.05-4.82-2.5-9.76-4.87-14.05-24.16-43.86-58.63-77.89-100.91-104.17-6.92-4.3-14.96-6.81-22.48-10.15Zm-12.68,21.97c-4.14,13.49-8.04,26.87-12.42,40.09-1.4,4.22-.89,7.44,1.39,11.11,19.37,31.17,44.36,56.79,74.63,77.51,6.76,4.63,12.58,6.14,20.5,3.17,11.91-4.48,24.29-7.69,36.36-11.4-51.71-28.65-91.66-68.58-120.46-120.48Zm64.6,137.69c-33.88-21.78-60.46-48.98-81.54-82.49-5.45,17.77-10.65,34.43-15.58,51.16-.56,1.91-.48,5.04.7,6.27,12.88,13.44,26.01,26.66,39.19,39.81.94.94,3.06,1.57,4.29,1.21,17.19-5.06,34.32-10.31,52.94-15.96Zm-65.13,19.92c-12.37-12.07-24.77-24.18-36.81-35.92-4.83,15.81-10.26,33.58-15.93,52.12,18.7-5.74,36.23-11.13,52.74-16.2Z" style="fill: #b0b0b0;"/>
  <path d="m188.85,73.87c-.54,26.34-9.54,50.08-27.58,70.3-1,1.12-1.89,2.63-3.16,3.13-1.72.68-3.75.55-5.65.77.21-1.92-.21-4.27.75-5.68,5.44-7.93,12.15-15.12,16.72-23.49,19.93-36.5,14.03-81-14.16-111.68-.45-.49-1.19-.93-1.3-1.48-.36-1.89-.49-3.82-.72-5.73,2.01.3,5-.13,5.89,1.03,6.34,8.29,13.06,16.46,18.12,25.53,8,14.33,10.95,30.23,11.09,47.31Z" style="fill: #b0b0b0;"/>
  <path d="m323.48,173.1c-.92,1.27-1.45,2.77-2.22,2.9-1.46.25-3.35.17-4.53-.59-2.36-1.51-4.26-3.72-6.53-5.4-16.82-12.51-35.99-15.15-56.06-12.37-25.95,3.59-47.71,15.93-66.76,33.52-2.14,1.98-4.33,6.02-7.73,2.62-3.4-3.41.54-5.64,2.67-7.64,22.72-21.29,49.13-34.84,80.58-36.57,21.37-1.17,40.91,4.45,57.1,19.26,1.28,1.17,2.22,2.7,3.48,4.27Z" style="fill: #b0b0b0;"/>
  <path d="m211.97,124.63c-3.74-.86-5.13-3.13-3.23-5.57,2.14-2.74,5.1-5.09,8.16-6.79,2.53-1.4,5.74-1.54,8.62-2.37,5.07-1.45,6.87-5.11,4.85-9.98-.95-2.3-2.29-4.44-3.33-6.71-4.18-9.1-.4-17.58,9.18-20.53,2.22-.68,4.51-1.13,6.76-1.7,6.3-1.61,8.08-5.3,5.33-11.16-.92-1.96-2.38-3.77-2.83-5.81-.77-3.49-1.47-7.17-1.13-10.67.14-1.51,3.01-3.95,4.52-3.87,2.73.14,3.03,2.54,2.45,5.33-.43,2.07.22,4.55.95,6.65,1.03,2.97,2.9,5.65,3.84,8.64,2.28,7.25-1.29,14.35-8.41,16.92-2.8,1.01-5.77,1.56-8.66,2.31-6.08,1.58-7.92,5.59-5.15,11.35,1.08,2.25,2.33,4.43,3.3,6.72,3.44,8.1-.02,15.97-8.31,18.92-2.18.78-4.6.98-6.68,1.94-2.61,1.19-5,2.85-7.45,4.36-1.07.66-2.04,1.47-2.78,2.01Z" style="fill: #b0b0b0;"/>
  <path d="m157.21,59.46c-3.11,3.15-5.49,6.69-8.8,8.72-12.66,7.77-12.77,7.59-8.81,21.84,2.42,8.72-.76,16.45-8.7,20.63-4.23,2.23-8.89,3.69-11.17,8.61-.37.79-3.23,1.3-4.18.72-1.02-.62-2.01-3.28-1.5-4.04,2.07-3.08,4.56-5.95,7.22-8.55,1.23-1.2,3.26-1.58,4.89-2.39,6.85-3.4,8.54-7.95,5.65-15.15-5.1-12.68-2.01-20.31,10.14-26.42,2.79-1.4,4.81-4.29,7.39-6.21,1.3-.97,3.08-1.79,4.61-1.73.88.04,1.69,1.96,3.26,3.97Z" style="fill: #b0b0b0;"/>
  <path d="m111.98,98.74c.08,8.69-6.69,15.5-15.43,15.49-8.46-.01-15.24-6.65-15.4-15.09-.17-8.55,6.84-15.57,15.5-15.54,8.48.03,15.25,6.72,15.33,15.14Zm-15.33,8.24c4.57-.04,8.26-3.77,8.15-8.24-.11-4.53-3.83-7.95-8.52-7.81-4.51.13-7.77,3.45-7.8,7.93-.03,4.62,3.54,8.16,8.16,8.12Z" style="fill: #b0b0b0;"/>
  <path d="m290.91,210.9c-2.89,1.02-5.3,2.73-6.46,2.11-3.24-1.73-6.6-3.95-8.77-6.83-6.13-8.14-7.9-8.87-16.87-4.64-7.99,3.77-15.9,1.45-21.04-5.68-2.06-2.86-5.13-4.97-7.46-7.66-1.01-1.17-2.15-3.34-1.69-4.35.52-1.12,3.39-2.39,4.2-1.9,3.28,2.02,6.84,4.19,9.07,7.21,5.78,7.82,7.46,8.56,16.48,4.52,9.03-4.04,16.33-1.72,21.98,6.5,1.7,2.47,4.4,4.25,6.6,6.39,1,.98,1.89,2.06,3.95,4.32Z" style="fill: #b0b0b0;"/>
  <path d="m316.1,111.82c8.26.03,14.76,6.4,14.69,14.4-.06,7.91-6.84,14.54-14.8,14.5-8.1-.04-14.54-6.52-14.54-14.62,0-8.25,6.23-14.31,14.65-14.28Zm.1,21.52c4.07-.07,7.2-3.26,7.16-7.28-.04-4-3.26-7.19-7.27-7.21-4.32-.03-7.49,3.25-7.34,7.57.15,4.14,3.23,7,7.45,6.92Z" style="fill: #b0b0b0;"/>
  <path d="m176.61,144.26c.13-7.93,6.6-14.08,14.54-13.81,7.75.26,13.79,6.48,13.75,14.17-.04,7.85-6.52,14.21-14.37,14.1-7.96-.11-14.06-6.44-13.93-14.47Zm14.17-6.78c-3.65-.05-6.87,3.2-6.92,6.97-.05,3.99,2.77,6.86,6.79,6.88,3.9.02,7.05-2.98,7.08-6.76.03-3.55-3.4-7.05-6.95-7.1Z" style="fill: #b0b0b0;"/>
  <path d="m236.05,217.04c7.63.18,13.52,6.29,13.33,13.82-.2,7.68-6.57,13.67-14.33,13.45-7.47-.21-13.33-6.39-13.23-13.96.11-7.85,6.14-13.5,14.23-13.31Zm5.9,13.18c-.3-3.56-2.2-5.91-6.2-6.12-3.7-.19-6.73,2.82-6.72,6.49.01,3.62,3.2,6.79,6.8,6.44,3.82-.37,6.03-2.51,6.13-6.82Z" style="fill: #b0b0b0;"/>
  <path d="m267.35,79.93c7.27.01,13.01,5.61,13.12,12.79.11,7.23-5.99,13.43-13.19,13.41-7.08-.02-13.44-6.48-13.24-13.47.2-7.13,6.07-12.74,13.3-12.73Zm5.79,12.57c-.53-3.36-2.45-5.58-6.21-5.34-3.49.22-5.29,2.4-5.27,5.9.02,3.65,2.3,5.58,5.6,5.59,3.55,0,5.77-2.1,5.88-6.14Z" style="fill: #b0b0b0;"/>
  <path d="m235.56,20.39c-.38,1.09-.68,2.21-1.15,3.26-5.46,11.92-10.96,23.81-16.4,35.73-1.18,2.6-2.68,5.38-5.72,3.41-1.17-.76-1.46-4.56-.69-6.34,5.26-12.18,10.81-24.24,16.56-36.2.72-1.49,3.02-2.63,4.8-3.07,1.16-.28,2.7,1,4.07,1.58-.49.54-.98,1.09-1.46,1.63Z" style="fill: #b0b0b0;"/>
  <path d="m298.72,178.7c.99.54,2.08.95,2.94,1.65,8.41,6.78,16.88,13.49,25.05,20.55,1.31,1.13,1.19,3.9,1.74,5.91-2.01-.11-4.63.57-5.95-.44-8.57-6.57-16.91-13.44-25.16-20.41-1.17-.99-1.86-2.99-2-4.59-.12-1.39.86-2.87,1.35-4.31.68.55,1.36,1.1,2.04,1.65Z" style="fill: #b0b0b0;"/>
  <path d="m112.98,70.64c-.93-.69-2.69-1.38-2.76-2.19-.12-1.59.22-3.68,1.22-4.81,5.51-6.19,11.27-12.15,16.94-18.19,1.14-1.21,2.08-2.89,3.47-3.48,1.53-.64,3.49-.26,5.26-.33,0,1.66.72,3.95-.11,4.87-6.98,7.76-14.22,15.29-21.43,22.83-.52.55-1.43.73-2.6,1.29Z" style="fill: #b0b0b0;"/>
  <path d="m292.28,100.61c-2.26,10.2-4.17,19.43-6.48,28.56-.31,1.22-2.59,1.93-3.95,2.88-.97-1.5-2.99-3.18-2.75-4.46,1.68-9.1,3.68-18.15,5.98-27.12.33-1.31,2.73-2.76,4.25-2.85,1.03-.06,2.19,2.15,2.95,2.98Z" style="fill: #b0b0b0;"/>
</svg>