<?xml version="1.0" encoding="UTF-8"?>
<svg id="Calque_1" data-name="Calque 1" xmlns="http://www.w3.org/2000/svg" viewBox="0 0 321.98 321.96">
  <path d="m89.5,299.3c-.29,2.63.1,4.96-.85,6.36-1.41,2.07-3.66,4.53-5.8,4.8-1.46.18-4.51-2.92-4.85-4.89-2.56-14.81-8.05-20.51-22.82-22.58-3.34-.47-5.66-2.45-5.04-5.54.42-2.06,2.78-4.09,4.77-5.35,1.51-.95,3.8-.67,6.47-1.04-24.85-38.11-30.33-78.12-12.46-119.59,17.83-41.39,50.55-64.86,95.25-73.06,0-3.7-.02-7.49,0-11.28.04-6.31,2.6-11.46,8.01-14.63,2.65-1.55,3.21-3.31,3.19-6.01-.08-12.66-.09-25.33.02-37.99.02-2.1.1-4.68,1.26-6.16,1.08-1.37,3.97-2.53,5.47-2.02,1.76.6,3.81,2.95,4.09,4.79.64,4.24.32,8.63.33,12.96.02,9.67-.08,19.33.1,28.99.03,1.56.79,3.82,1.96,4.52,6.98,4.17,9.49,10.35,9.14,18.13-.13,2.8-.02,5.62-.02,8.71,44.09,8.02,76.65,31.32,94.98,72.19,14.48,32.28,14.18,65.36.27,97.95-28.64,67.12-115.52,97.77-183.46,50.73Zm116.13-54.97v27.25h27.1v-27.25h-27.1Zm27.14-39.11c-8.58,0-16.54-.09-24.5.11-1.02.02-2.85,1.46-2.87,2.29-.22,8.26-.13,16.54-.13,24.94h27.5v-27.34Zm-143.73,27.41h27.58c0-8.44.07-16.55-.1-24.66-.02-.92-1.33-2.58-2.07-2.59-8.42-.19-16.84-.12-25.41-.12v27.37Zm104.62,39.03v-27.27h-26.83v27.27h26.83Zm-77.31-143.52h-27.19v26.81h27.19v-26.81Zm116.39-.03h-27.19v26.88h27.19v-26.88Zm-116.42,65.78v-27.06h-27.09v27.06h27.09Zm116.26,0v-27.07h-26.94v27.07h26.94Zm-104.54,38.73h27.29c0-8.29.08-16.26-.1-24.21-.02-1.07-1.37-3.01-2.14-3.03-8.26-.22-16.53-.14-25.05-.14v27.38Zm38.84.01h26.88v-27.13h-26.88v27.13Zm-11.8,11.73h-26.88v27.27h26.88v-27.27Zm-.13-89.37v-26.98h-26.82v26.98h26.82Zm38.91-26.96h-26.88v26.94h26.88v-26.94Zm-65.82,65.68h26.99v-26.81h-26.99v26.81Zm65.79.08v-26.88h-26.97v26.88h26.97Zm-116.34,39.14v-27.44h-28.13c1.78,8.86,3.41,17.25,5.24,25.59.17.76,1.57,1.75,2.42,1.77,6.75.15,13.51.08,20.46.08Zm189.99-.19c1.58-8.96,3.16-17.86,4.8-27.13h-27.81v27.13h23.02Zm-100.59-144.45v28.02h27.18c0-7.01.07-13.79-.09-20.56-.02-.84-1.11-2.23-1.91-2.4-8.21-1.77-16.47-3.34-25.19-5.06Zm-11.81-.04c-8.7,1.7-16.68,3.18-24.61,4.89-1.01.22-2.52,1.55-2.54,2.4-.21,6.9-.12,13.81-.12,20.67h27.27v-27.95Zm-77.59,78.27c-6.89,0-13.49-.11-20.09.11-1.06.04-2.77,1.42-3,2.44-1.78,8.03-3.28,16.12-4.94,24.58h28.03v-27.14Zm194.94,27.31c-1.63-8.44-3.04-16.25-4.74-23.99-.28-1.26-1.87-3.12-2.92-3.17-6.73-.29-13.48-.15-20.27-.15v27.3h27.94Zm-105.47,89.45v27.76c9.31-1.66,18.07-3.22,26.76-4.77v-23h-26.76Zm-11.96-.04h-27.21c0,7.03-.07,13.8.09,20.57.02.81,1.13,2.13,1.93,2.3,8.19,1.77,16.43,3.36,25.2,5.11v-27.98Zm-38.69-11.68v-27.55c-4.76,0-9.21,0-13.66,0s-8.89,0-13.24,0c-2.54,17.81,8.63,29.18,26.9,27.55Zm.3-172.43c-.53-.41-1.06-.82-1.59-1.24-8.82,5.6-17.63,11.2-26.45,16.79.23.61.45,1.23.68,1.84,8.37,0,16.75.07,25.11-.11.77-.02,2.11-1.61,2.15-2.51.21-4.92.1-9.85.1-14.77Zm115.8,17.43c.14-.43.27-.85.41-1.28-8.13-6.87-16.78-12.87-27.57-16.88,0,5.63-.17,10.42.13,15.18.07,1.05,1.8,2.82,2.8,2.85,8.07.23,16.15.13,24.22.13Zm11.82,154.68c7.97-7.72,14.11-16.44,17.88-26.78h-17.88v26.78Zm-38.67,12.01v19.06c9.93-6.3,18.8-11.93,27.68-17.55l-.77-1.51h-26.9Zm55.88-128.28c.43-.39.87-.79,1.3-1.18-5.59-8.79-11.17-17.58-16.76-26.36-.51.25-1.03.5-1.54.75v26.8h17Zm-183.99.04v-28.33c-7.86,9.18-13.69,17.9-17.9,28.33h17.9Zm38.9,128.24c-7.99-.92-14.75.48-21.05,6.56,7.2,4.11,13.73,7.84,21.05,12.02v-18.58Zm-57.6-39.01c4.35,7.54,8.16,14.14,12.26,21.26,5.68-6.75,7.56-13.42,6.41-21.26h-18.67Zm107.47-166.74c0-4,.14-7.61-.04-11.21-.17-3.26-2.24-5.73-5.35-5.08-1.98.41-4.51,2.92-4.95,4.9-.8,3.55-.23,7.42-.23,11.39h10.57Zm-75.42,200.1c-2.52-2.64-5.24-5.48-7.46-7.8-2.6,2.5-5.51,5.3-7.85,7.55,2.46,2.65,5.14,5.56,7.41,8,2.72-2.67,5.53-5.43,7.91-7.75Z" style="fill: #b0b0b0;"/>
  <path d="m67.37,34.6c-2.25,1.44-4.36,3.81-6.77,4.15-13.47,1.92-20.2,8.38-21.65,21.77-.37,3.46-1.96,5.85-5.46,5.96-3.77.12-5.46-2.23-5.89-5.98-1.55-13.44-8.25-20.03-21.77-21.57C2.36,38.54.07,36.88,0,33.36c-.07-3.52,2.11-5.27,5.61-5.73,14.14-1.89,20.21-7.91,22.02-21.93C28.08,2.2,29.76-.01,33.28,0c3.53.01,5.24,2.28,5.66,5.74,1.68,13.91,7.76,19.76,21.96,22.08,2.36.39,4.37,2.85,6.55,4.36-.03.81-.05,1.61-.08,2.42Zm-33.95-9.42c-2.83,2.7-5.68,5.41-8.4,8,2.78,2.83,5.56,5.66,8.03,8.17,2.82-2.74,5.66-5.49,8.18-7.93-2.62-2.76-5.33-5.63-7.8-8.24Z" style="fill: #b0b0b0;"/>
  <path d="m321.98,77.5c-.3,3.82-2.56,5.43-6.22,5.73-8.98.73-15.87,4.82-19.54,13.25-1.16,2.67-1.57,5.74-1.96,8.67-.46,3.46-2.07,5.73-5.62,5.75-3.56.03-5.26-2.26-5.7-5.68-1.74-13.83-7.65-19.98-21.41-21.95-3.61-.52-6.26-1.87-6.17-5.73.1-4.14,3.03-5.35,6.82-5.64,11.48-.87,19.8-9.06,20.67-20.48.29-3.78,1.33-6.75,5.49-6.91,4.48-.18,5.63,2.82,6.02,6.84,1.15,11.91,9.04,19.51,21.14,20.57,3.64.32,5.98,1.74,6.49,5.57Zm-41.18.38c2.35,2.3,5.24,5.12,7.78,7.61,2.7-2.54,5.55-5.23,8.23-7.75-2.76-2.81-5.5-5.62-8.23-8.41-2.47,2.72-5.01,5.51-7.77,8.55Z" style="fill: #b0b0b0;"/>
</svg>