<svg xmlns="http://www.w3.org/2000/svg" width="40.857" height="26" viewBox="0 0 40.857 26">
  <path id="Icon_material-people" data-name="Icon material-people" d="M29.357,18.643a5.571,5.571,0,1,0-5.571-5.571A5.548,5.548,0,0,0,29.357,18.643Zm-14.857,0a5.571,5.571,0,1,0-5.571-5.571A5.548,5.548,0,0,0,14.5,18.643Zm0,3.714c-4.327,0-13,2.173-13,6.5V33.5h26V28.857C27.5,24.53,18.827,22.357,14.5,22.357Zm14.857,0c-.539,0-1.151.037-1.8.093a7.837,7.837,0,0,1,3.659,6.407V33.5H42.357V28.857C42.357,24.53,33.684,22.357,29.357,22.357Z" transform="translate(-1.5 -7.5)" fill="#b1afaf"/>
</svg>
