<?xml version="1.0" encoding="UTF-8"?>
<svg id="Calque_1" data-name="Calque 1" xmlns="http://www.w3.org/2000/svg" viewBox="0 0 291.85 127.46">
  <defs>
    <style>
      .cls-1 {
        fill: #fff;
      }

      .cls-2 {
        fill: #ee7425;
      }
    </style>
  </defs>
  <ellipse class="cls-1" cx="145.92" cy="63.73" rx="145.92" ry="63.73"/>
  <path class="cls-2" d="m55.66,49.38c.47-1.52-.87-1.15-.14-2.85.16-.39.65-.82,1.55-1.26,1.05-.51,2.55.28,2.85.9,2.81,4.33-2.32,11.77-7.73,15.17-9.12,5.74-20.47,6.49-23.72,1.42-4.1-6.4,4.87-20.6,13.36-26.33,13.91-9.39,33.38-12.44,39.23-5.16,1.73,2.62-.9,7.03-6.79,10.06-4.21,2.16-10.91,4.7-13.99-.2-1.82-2.89,2.65-2.48,3.04-3.91.32-1.19-1.34-2.07-3.96-1.38-2,.5-7.23,4.32-9.31,7.76-3.01,4.97-.42,6.97,1.18,7.22,2.68.41,3.92-.72,4.45-1.44Z"/>
  <path class="cls-2" d="m68.99,64.1c-1.7-.86-3.29.35-4.06,1.86-1.62,3.21-2.03,7.04-3.41,10.5-1.38,3.58-4.22,6.05-7.53,4.38-5.55-2.8-1.83-12.11.17-16.05,2.07-4.09,16.61-25.34,24-21.6,1.61.81,2.45,2.52,1.59,4.23-.89,1.75-8.82,7.04-9.7,8.79-.34.68-.59,1.53.28,1.98,2.82,1.43,4.34-1.24,5.73-2.93,1.95-2.38,3.68-3.79,6.02-2.61,5.6,2.83.29,13.51-2.21,17.38-2.6,4.06-4.87,8.78-2.29,10.09,2.39,1.21,4.79-1.37,8.19.35,3.07,1.55,4.25,4.9,2.3,8.74-1.33,2.63-4.64,6.88-13.6,2.35-8.96-4.53-11.42-9.32-5.64-20.76,1.18-2.46,2.15-5.7.15-6.71Zm22.94,3.22c-.27.54-.86.85-1.54.51-.49-.25-.68-.83-1.07-1.03-.05-.02-.12,0-.22-.05l-.1.19c-.66,1.31,1.11,2.4,2.04,2.86l1.1.49c.17.03.37.12.56.22,2.24,1.13,2.52,3.35,1.61,5.15-1.23,2.43-3.82,4.06-6.94,2.48-5.01-2.53-4.11-7.7-2.34-11.21,1.89-3.75,5.46-10.07,11.25-7.15,1.8.91,2.82,3.01,2,4.62-.71,1.41-2.99,2.4-4.74,1.52-.78-.39-1.36-1.18-2.14-1.57-.39-.2-.66-.15-.83.19-.05.1-.1.2-.17.34.73.73,2.19,1.11,1.53,2.42Z"/>
  <path class="cls-2" d="m109.67,71.05c-2.29-.53-4.63,1.73-6.85,1.22-2.9-.67-2.64-5.23-2.07-7.7,2.05-8.9,6.73-7.75,12.91-6.33,4.32,1,10.8,3.4,9.39,9.51-1.69,7.35-11.69,11.49-12.61,15.51-.1.43-.36,1.28.01,1.37,4.51,1.68,8.48-2.76,11.22-2.23,3.05.59,3.54,6.93,2.9,9.71-1.83,7.97-14.06,11.14-20.42,9.68-6.49-1.49-12.37-4.21-10.5-12.31,2.36-10.26,16.33-14.13,17.53-16.52.55-.98-.65-1.71-1.51-1.91Z"/>
  <path class="cls-2" d="m158.92,58.01c3.8-.42,4.55,4.64,4.85,7.4.55,5.03-.71,27.12-7.37,27.85-6.41.7-9.4-9.87-9.94-14.75-.37-3.4-1.99-10.73,2.49-11.32,3.95-.52,2.19,8.72,6.01,7.3,2.81-1.25-1.96-15.84,3.95-16.49Zm-12.45,20.5c-.37-3.4-1.99-10.73,2.49-11.32"/>
  <path class="cls-2" d="m187.61,72.9c.69,6.83-.41,20.95-9.57,21.8-7.42.7-10.2-8.3-10.76-14.09-.63-6.48-.41-23.2,8.34-24.04,7.67-.76,11.35,9.7,11.98,16.33Zm-10.65,2.93c-2.03.16-2.67,6.66-2.21,8.93.29,1.43,1.21,4.38,3.09,4.18,2.18-.21,2.41-4.33,2.22-5.87-.14-1.39-1.37-7.44-3.1-7.25Z"/>
  <path class="cls-2" d="m193.68,59.24c2.62-.21,3.72,2.99,3.9,5.26.16,1.98,0,3.93.07,5.86.09,2.42.98,6.67,2.51,6.55,1.63-.13,1.56-4.52,1.18-7.14-.33-2.26-1.24-4.38-1.42-6.6-.19-2.42.59-4.47,3.16-4.68,4.8-.38,6.35,8.5,6.64,12.21.54,6.77.56,22.04-8.09,22.73-8.55.68-11.26-12.04-11.82-19.11-.28-3.46-.87-14.71,3.87-15.08Z"/>
  <path class="cls-2" d="m223.64,64.92c.22,1.62-.55,3.03-1.96,3.22-.98.13-1.55-.49-1.84-.45-.38.05-.58.51-.53.9.37,2.74,7.52,1.86,8.69,10.53.95,7.01-2.52,10.35-7.95,11.08-3.29.44-6.51-4.34-6.93-7.51-.65-4.83.72-5.97,2.26-6.14,2.41-.24,3.59,1.47,5.08,1.23-1.36-2.95-7-4.1-7.77-9.83-.43-3.21,1.22-7.39,4.86-7.88,2.61-.35,5.65,1.54,6.09,4.84Z"/>
  <path class="cls-2" d="m89.9,27.24c-2.53.22-4.31,2.12-3.55,4.75.55,1.97,2.75,1.51,3.23,3.6.17.71.25,1.54.31,2.25.09,1.02.21,2.95-1.07,3.06-1.09.09-2.18-.61-3.28-.52-2.42.21-2.5,4.51-2.34,6.47.35,4.08,2.72,7.33,6.87,6.98,7.32-.62,5.65-9.57,5.19-14.93-.31-3.59-.65-12.07-5.37-11.67Z"/>
  <path class="cls-2" d="m98.83,24.71c-1.89.12-2.53,1.98-2.44,3.49.07,1.17.71,2.19,1.95,2.61-.08.5-.2,1-.17,1.49.04.57.39,1.34,1.11,1.3,1.55-.1,2.27-4.32,2.19-5.53-.13-2.12-.94-3.47-2.64-3.36Z"/>
  <path class="cls-2" d="m106.69,26.99c-1.23.06-2.51,1.13-2.45,2.44.06,1.25,1.4,2.25,2.59,2.19h.25c1.2-.07,2.01-1.2,1.95-2.34-.07-1.45-.84-2.36-2.35-2.29Z"/>
  <path class="cls-2" d="m106.97,33.73c-3.14.16-3.08,8.27-2.83,11.67.18,2.76.86,7.39,3.81,7.24,3.33-.17,3.14-6.34,3-9.14-.1-2-.72-9.94-3.97-9.78Z"/>
  <path class="cls-2" d="m142.28,50.43c.02,3.92.57,12.9,3.94,13.01,3.8.12,3.91-10.98,3.94-14.96.02-2.85-.16-14.13-3.88-14.25-3.59-.12-4.05,11.36-4,16.2Z"/>
  <path class="cls-2" d="m146.8,31.18c1.67.03,2.91-1.47,2.94-3.06.04-2.02-.95-3.37-3.05-3.41-1.71-.03-3.61,1.34-3.64,3.17-.03,1.75,1.73,3.27,3.41,3.3h.35Z"/>
  <path class="cls-2" d="m160.93,32.88l-.63,12.37c-.29,5.37.95,7.49,6.41,7.59,4.89.07,7.58-7.47,7.73-14.33.18-6.86-3.3-11.96-7.69-12.22-4.84-.29-5.52.88-5.82,6.59Zm7.7,0c-.03,1.14-.64,3.64-1.96,3.64-.99-.02-1.22-1.78-1.17-2.65,0-1.18.09-3.98,1.6-3.93,1.21,0,1.56,1.84,1.53,2.94Z"/>
  <path class="cls-2" d="m175.36,48.06c-.08,2.42.77,5.55,3.64,5.75,4.16.28,3.48-6.75,4.88-6.66,1.29.09-.21,5.98,3.44,6.53,2.29.34,3.65-.63,4.16-3.79,1.02-6.27-.41-21.85-6.83-22.28-5.29-.35-9.18,17.04-9.29,20.45Zm7.44-14.35c.06-.94.57-2.24,1.74-2.16,1.13.08,1.51,1.2,1.45,2.18-.07.98-.65,2.42-1.83,2.35-1.1-.07-1.42-1.46-1.36-2.37Z"/>
  <path class="cls-2" d="m197.53,54.52c2.35.11,3.63-2.93,3.73-4.86.12-2.5-.48-4.88-.36-7.34.05-.95.43-3.39,1.64-3.33,3.06.15-2.03,15.79,4.56,16.11,4.65.23,5.29-8.84,5.46-12.28.2-4.16.35-13.41-4.9-13.66-2.46-.12-4.03,1.81-5.25,3.38-.64-.83-.63-4.24-3.8-4.4-4.46-.22-4.53,8.76-4.7,12.32-.16,3.33-.98,13.83,3.63,14.06Z"/>
  <path class="cls-2" d="m217.65,56.32c4.73.89,8.54-.94,9.68-7.05,1.42-7.56-4.79-8.8-4.34-11.18.06-.33.36-.67.69-.6.26.05.56.72,1.41.88,1.23.23,2.26-.73,2.52-2.15.54-2.87-1.48-5.29-3.75-5.71-3.16-.59-5.7,2.44-6.22,5.23-.93,4.99,3.45,7.51,3.77,10.34-1.31-.21-1.83-1.96-3.9-2.43-1.33-.29-2.79.29-3.58,4.49-.52,2.75.84,7.63,3.71,8.17Z"/>
  <path class="cls-2" d="m233.58,60.78c3.71,1.44,6.55-1.07,7.85-4.43.93-2.4.47-5.18-2.15-6.2-.21-.08-.44-.13-.65-.21l-1.26-.41c-.21-.08-.42-.16-.64-.25-1.09-.42-2.35-1.68-1.85-2.99l.08-.21c.08,0,.2,0,.27.03.46.18.69.84,1.26,1.06.78.3,1.45-.17,1.72-.88.7-1.8-.97-2-1.82-2.86,0-.12.07-.3.13-.44.18-.46.51-.58.97-.4.92.36,1.62,1.28,2.54,1.63,2.05.79,4.59-.94,5.33-2.85.84-2.15-.4-4.62-2.52-5.45-6.78-2.63-10.58,6.01-12.55,11.1-1.86,4.8-2.58,11.47,3.28,13.74Z"/>
  <path class="cls-2" d="m260.75,42.65c-5.51-3.13-10.95-2.1-13.66,3.5-2.6,5.39-1.96,8.95-2.34,10.38-3.59,13.48-17.84,14.56-13.77,21.57,1.67,2.88,11.42-6.57,13.67-10.08.7-1.15,1.28-1.98,1.86-2.7,2.66-3.28,3.54-1.65.78,3.97-.72,1.4-2.66,3.78-4.16,5.26-6.75,6.67-12.9,12.53-10.52,14.3,2.8,2.08,14.72-7.23,23.11-19.72,1.45-2.15,2.37-4.62,2.6-7.2.14-1.55.09-3.05-.19-4.11,1.49-.74,3.53-2.11,5.63-5.73,1.85-3.19-.7-8.03-3.02-9.44Zm-2.91,7.6c-1.6,2.3-4.17,4.4-5.25,3.78-1.04-.59-.42-4.15.99-6.53.47-.8,2.24-3.36,3.96-2.34,1.87,1.12.99,4.1.31,5.08Z"/>
  <path class="cls-2" d="m121.69,39.1c1.2,2.63,2.03,5.4,2.46,8.26,1.29,8.71,1.75,22.74,3.36,29.64,4.2,18.02,7.34,25.43,17.41,27.76,4.58,1.06,34.58-.82,56.27-4.62,18.17-3.18,29-8.09,28.76-9.97-.24-1.85-16.55,5.67-44.26,7.9-23.87,1.91-36.56,2.03-41.48-1.59-5.32-3.92-6.73-17.75-9.38-33.11-1.34-8.4-3.79-17.33-5.3-21.02-.12-.29-.25-.57-.39-.84-1.07-2.05-1.72-3.1-2.76-4.1-.48-.58-1.14-1.14-2.14-1.85.78-1.19,2.05-2.08,2.01-4.69-.05-3.14-3.99-5.28-6.56-5.24-6.17.1-7.22,10.15-7.14,15.19.05,2.88.71,11.43,4.43,11.37,2.84-.05,3.95-2.96,3.51-5.36-.7-3.9-2.57-2.47-2.84-3.91-.44-2.39.75-4.9,2.06-4.99h.02c.83-.05,1.61.41,1.96,1.17h0Zm-1.29-6.17c-1.02.02-1.46-1.3-1.48-2.25-.01-.8.42-2.36,1.33-2.37.98-.02,1.76,1.07,1.78,2.09.02.98-.57,2.51-1.63,2.53Z"/>
  <path class="cls-2" d="m131.74,39.55c2.73-.04,1.95-2.95,2.86-2.97.47,0,.8.92.78,1.78-.01.8-.1,9.28,2.33,9.28,2.72,0,2.29-8.03,2.25-9.88-.07-3.4-1.63-11.59-5.87-11.52-3.48.06-4.71,8.22-4.61,10.04.06,1.29.36,3.29,2.25,3.26Zm2.46-11.22c.76-.01,1.07.55,1.08,1.08,0,.53-.28,1.33-1.08,1.34-.72.01-1-.7-1-1.2,0-.49.25-1.22,1-1.23Z"/>
</svg>