<svg xmlns="http://www.w3.org/2000/svg" xmlns:xlink="http://www.w3.org/1999/xlink" width="306.376" height="715.447" viewBox="0 0 306.376 715.447">
  <defs>
    <clipPath id="clip-path">
      <rect id="Rectangle_4420" data-name="Rectangle 4420" width="306.376" height="715.447" fill="none"/>
    </clipPath>
  </defs>
  <g id="Groupe_10763" data-name="Groupe 10763" clip-path="url(#clip-path)">
    <path id="Tracé_5594" data-name="Tracé 5594" d="M86.351,15.9s28.625-16.33,44.955,20.5,11.165,96.481-52.995,86.4S42.022,77.025,42.022,77.025Z" transform="translate(85.763 29.282)" fill="#5e1dbb"/>
    <path id="Tracé_5595" data-name="Tracé 5595" d="M24.462,77.913s-8.8-1.272-16.371-12.562C2.957,57.69,5.375,23.7,7.641,16.162s9.044-1.4,9.044-1.4-2.75-8.632,1.847-13.008S27.77,6.583,27.77,6.583s.944-9.991,8.179-5.354,14.368,26.088,15.461,37.51.639,32.464.639,32.464L37.5,85.111Z" transform="translate(12.017 0.002)" fill="#fd8753"/>
    <path id="Tracé_5596" data-name="Tracé 5596" d="M8.706,15.725s-21.715,68.516,3.447,111.2,108.357,43.142,108.357,43.142l8.919-75.392S91.157,96.505,75.717,75.028c-11.574-16.1-5.6-38.447-5.6-38.447Z" transform="translate(0.001 37.462)" fill="#e2209e"/>
    <path id="Tracé_5597" data-name="Tracé 5597" d="M22.232,49.976a2.49,2.49,0,0,1-.764-.122A3.618,3.618,0,0,1,18.8,47.239c-1.255-5.026,8.114-14.72,9.186-15.809a.962.962,0,0,1,1.637.808c-.21,1.515-2.155,14.889-5.953,17.3a2.687,2.687,0,0,1-1.441.44M27.214,35.1c-3.433,3.924-7.164,9.21-6.548,11.679.095.379.342.92,1.377,1.248a.668.668,0,0,0,.6-.115c1.894-1.2,3.609-7.587,4.57-12.812" transform="translate(44.519 74.2)" fill="#fff"/>
    <path id="Tracé_5598" data-name="Tracé 5598" d="M102.641,78.034s-8.787,1.36-19.327-7.218C76.157,65,67.829,48.324,70.163,43.981S82.4,49.812,82.4,49.812s-13.881-18.025-13.928-25.9,8.243-3.981,8.243-3.981-5.158-7.451-2.043-12.978S84.917,8.862,84.917,8.862,82.891-.967,91.171,1.346s21.376,20.737,25.767,31.337,10.117,30.854,10.117,30.854L117.222,81.1Z" transform="translate(163.124 2.367)" fill="#fd8753"/>
    <path id="Tracé_5599" data-name="Tracé 5599" d="M72.378,27.524a.932.932,0,0,1-.507-.145.961.961,0,0,1-.311-1.326A171.868,171.868,0,0,1,84.581,8.221a.961.961,0,1,1,1.461,1.248,169.594,169.594,0,0,0-12.853,17.6.953.953,0,0,1-.812.453" transform="translate(170.133 18.78)"/>
    <path id="Tracé_5600" data-name="Tracé 5600" d="M93.733,28.639a.961.961,0,0,1-.91-.649c-3.21-9.4-19.476-10.915-19.641-10.928a.96.96,0,0,1-.873-1.042.947.947,0,0,1,1.042-.873c.717.061,17.683,1.651,21.292,12.22a.963.963,0,0,1-.6,1.221.978.978,0,0,1-.308.051" transform="translate(172.257 36.076)"/>
    <path id="Tracé_5601" data-name="Tracé 5601" d="M173.038,16.063s21.715,68.516-3.447,111.2S60.341,162.85,60.341,162.85L52.315,95.017s38.271,1.826,53.712-19.651c11.574-16.1,5.6-38.447,5.6-38.447Z" transform="translate(124.632 38.268)" fill="#e2209e"/>
    <path id="Tracé_5602" data-name="Tracé 5602" d="M76.06,50.314a2.7,2.7,0,0,1-1.441-.44c-3.8-2.408-5.743-15.782-5.953-17.3a.962.962,0,0,1,1.637-.808c1.072,1.089,10.441,10.783,9.186,15.809a3.623,3.623,0,0,1-2.665,2.615,2.49,2.49,0,0,1-.764.122M71.078,35.435c.961,5.226,2.675,11.615,4.57,12.812a.643.643,0,0,0,.6.112c1.035-.325,1.282-.866,1.377-1.248.616-2.466-3.115-7.752-6.548-11.676" transform="translate(163.565 75.002)" fill="#fff"/>
    <path id="Tracé_5603" data-name="Tracé 5603" d="M37.478,57.308S23.106,33.219,56.26,17.014s54.929,10.215,54.358,23.649-8.6,19.171-8.6,19.171,1.167,29.254-26.633,25.51S37.478,57.308,37.478,57.308" transform="translate(81.902 28.387)" fill="#5e1dbb"/>
    <path id="Tracé_5604" data-name="Tracé 5604" d="M74.6,192.608s-47.813,32.714-60.852,49.487S1.45,268.809,3.953,273.365s108.57-16.743,108.57-16.743-3.376-29.514,8.293-29.379,9.518,27.377,9.518,27.377l32.244-5.293s-3.017-29.4-7.13-40.487c-4.438-11.96-14.186-27.536-14.186-27.536Z" transform="translate(5.914 431.928)" fill="#551caf"/>
    <path id="Tracé_5605" data-name="Tracé 5605" d="M32.946,149.046S25.184,191.339,59.8,240.089c39.685,55.9,65.942,83.436,65.942,83.436l52.934-20.5S115.756,185.87,109.36,136.309s-76.414,12.738-76.414,12.738" transform="translate(76.716 279.114)" fill="#fd8753"/>
    <path id="Tracé_5606" data-name="Tracé 5606" d="M15.593,128.634A765.97,765.97,0,0,0,33,240.644c13.824,58.17,23.037,92.473,23.037,92.473l53.992-5.851s-19.1-128.323-15.758-178.148c3.345-49.862-78.673-20.483-78.673-20.483" transform="translate(37.148 285.97)" fill="#fd8753"/>
    <path id="Tracé_5607" data-name="Tracé 5607" d="M89.375,206.853S55.288,253.7,48.628,273.871s-2.635,29.291,1.248,32.745,96.684-52.159,96.684-52.159-13.073-26.677-2.029-30.461,18.14,22.6,18.14,22.6l28.608-15.792s-12.7-26.687-20.287-35.755c-8.189-9.782-23.72-23.507-23.72-23.507Z" transform="translate(107.366 408.679)" fill="#5e1dbb"/>
    <path id="Tracé_5608" data-name="Tracé 5608" d="M50.073,189.576S9.512,221.508,18.025,222.858s54.364-5.287,67.035-12.244S106.808,188,106.808,188l-32.7-9.721Z" transform="translate(40.144 424.729)" fill="#fd8753"/>
    <path id="Tracé_5609" data-name="Tracé 5609" d="M105.978,273.554q-8.047.431-16.787.518a175.2,175.2,0,0,1-24.674-1.546A177.188,177.188,0,0,1,13.9,257.83C17.069,159.637,59.738,70.837,59.738,70.837l24.427,5.439,4.329.954Z" transform="translate(33.115 168.758)" fill="#ffb700"/>
    <path id="Tracé_5610" data-name="Tracé 5610" d="M140.808,172.955c-6.318,59.279-12.247,79.83-12.247,79.83s1.187,3.352,3.173,9.1a329.466,329.466,0,0,1-57.348,7.84c-5.361.281-10.959.463-16.787.514A174.684,174.684,0,0,1,32.924,268.7c-3.095-10.6-5.131-17.869-5.544-19.831C25.006,238.011,42.669,72.574,42.669,72.574l9.9-.129L120.4,79.791s26.724,33.857,20.406,93.163" transform="translate(64.707 172.589)" fill="#ffb700"/>
    <path id="Tracé_5611" data-name="Tracé 5611" d="M70.6,32.295,69.72,55.816s-4.492,6.6-18.3,7.208c-10.279.45-13.793-2-13.793-2l1.874-11.858L41.349,37.6,66.4,33.063Z" transform="translate(89.652 76.938)" fill="#fd8753"/>
    <path id="Tracé_5612" data-name="Tracé 5612" d="M69.28,31.964a7.732,7.732,0,0,1-.768,2.242c-5.7,11.554-24.387,15.437-30.326,15.745L40.029,38.39Z" transform="translate(90.972 76.149)"/>
    <path id="Tracé_5613" data-name="Tracé 5613" d="M44.831,23.748s-13.445,29.027-9.19,45.594S54.951,83.642,64,80.656s13.333-8.4,13.333-8.4a12.661,12.661,0,0,0,14.1-4.651c5.777-7.671,2.52-16.7-2.222-18.857S78.7,49.924,78.7,49.924l4.647-8.419S65.517-2.188,44.831,23.748" transform="translate(82.927 36.982)" fill="#fd8753"/>
    <path id="Tracé_5614" data-name="Tracé 5614" d="M41.515,27.09a.96.96,0,0,1-.927-.7,2.8,2.8,0,0,0-1.228-1.532,3.2,3.2,0,0,0-2.493-.024A.962.962,0,1,1,36.276,23a4.968,4.968,0,0,1,4.018.172,4.791,4.791,0,0,1,2.151,2.7.966.966,0,0,1-.676,1.18.952.952,0,0,1-.254.034" transform="translate(84.832 53.995)"/>
    <path id="Tracé_5615" data-name="Tracé 5615" d="M47.947,27.332a.965.965,0,0,1-.741-.348c-2.577-3.115-5.314-1.018-5.429-.93a.961.961,0,0,1-1.187-1.512c1.485-1.17,5.09-2.415,8.1,1.214a.965.965,0,0,1-.129,1.356.952.952,0,0,1-.612.22" transform="translate(95.823 55.624)"/>
    <path id="Tracé_5616" data-name="Tracé 5616" d="M37.192,23.5a1,1,0,0,1-.145-1.989l5.74-.852a1,1,0,0,1,.291,1.979l-5.74.852a1.051,1.051,0,0,1-.145.01" transform="translate(86.226 49.177)"/>
    <path id="Tracé_5617" data-name="Tracé 5617" d="M48.185,25.5a.961.961,0,0,1-.372-.074l-6.66-2.8a.961.961,0,1,1,.744-1.772l6.66,2.8a.961.961,0,0,1-.372,1.847" transform="translate(96.636 49.505)"/>
    <path id="Tracé_5618" data-name="Tracé 5618" d="M38.61,40.085a.964.964,0,0,1-.957-.866C36.639,29.2,40.839,24.2,41.019,23.988a.961.961,0,0,1,1.458,1.251c-.037.047-3.836,4.647-2.909,13.786a.958.958,0,0,1-.859,1.052.479.479,0,0,1-.1.007" transform="translate(89.327 56.353)"/>
    <path id="Tracé_5619" data-name="Tracé 5619" d="M48.45,34.366a.962.962,0,0,1-.4-1.837l11.821-5.371a.961.961,0,0,1,.8,1.749L48.849,34.281a.984.984,0,0,1-.4.085" transform="translate(113.132 64.49)"/>
    <path id="Tracé_5620" data-name="Tracé 5620" d="M55.234,35.015a.975.975,0,0,1-.676-.277l-5.212-5.151A.961.961,0,0,1,50.7,28.22l5.212,5.151a.961.961,0,0,1-.676,1.644" transform="translate(116.88 66.573)"/>
    <path id="Tracé_5621" data-name="Tracé 5621" d="M74.41,193.96s-27.512,43.68-19.043,42.1,49.457-23.2,59.059-34.006,12.163-30.509,12.163-30.509l-33.316,3.721Z" transform="translate(128.047 408.679)" fill="#fd8753"/>
    <path id="Tracé_5622" data-name="Tracé 5622" d="M60.051,200.9a.948.948,0,0,1-.741-.352c-21.776-26.375-29.01-68.4-29.081-68.817a.965.965,0,0,1,.788-1.109.953.953,0,0,1,1.106.791c.071.416,7.228,41.938,28.669,67.914a.961.961,0,0,1-.741,1.573" transform="translate(71.983 311.155)" fill="#ea7242"/>
    <path id="Tracé_5623" data-name="Tracé 5623" d="M28.728,236.615a.963.963,0,0,1-.95-.815C21.216,192.574,42.021,100.412,43.969,91.946l-14.625-10.8A.961.961,0,1,1,30.487,79.6L45.617,90.775a.968.968,0,0,1,.369.994c-.237.984-23.095,99-16.306,143.739a.962.962,0,0,1-.8,1.1,1.09,1.09,0,0,1-.145.01" transform="translate(63.139 189.198)" fill="#9364ed"/>
    <path id="Tracé_5624" data-name="Tracé 5624" d="M35.332,52.5S37.72,43.58,47.025,33.828l9.3-9.748S55.285,42.534,63.541,50.5s14.037,3.213,14.037,3.213L93.4,39.856,65.266,13.937S33.817,12.736,35.332,52.5" transform="translate(84.047 33.193)" fill="#5e1dbb"/>
    <path id="Tracé_5625" data-name="Tracé 5625" d="M69.112,39.081,47.867,42.02s-22.019,18.126-22.52,41.1,5.459,28.689,5.459,28.689l-5.459,43.436S44,170.755,75.785,174.063a150.07,150.07,0,0,0,58.7-6.139s-4.722-113.349-4.722-122.989c0-6.508-60.656-5.855-60.656-5.855" transform="translate(60.317 93.061)" fill="#e2209e"/>
    <path id="Tracé_5626" data-name="Tracé 5626" d="M44.491,38.652l-9.1,2.8S32.341,58.878,53.207,59.951C75.1,61.077,92.462,41.716,92.462,41.716l-19.12-3.064Z" transform="translate(83.937 92.082)" fill="#fd8753"/>
    <path id="Tracé_5627" data-name="Tracé 5627" d="M55.732,59.661c-7.688,0-13.374-2.09-16.9-6.217-4.884-5.7-3.778-13.12-3.731-13.435a.962.962,0,0,1,1.9.3c-.01.071-1,6.886,3.3,11.9,3.149,3.67,8.344,5.53,15.434,5.53C77.765,57.7,92.228,40,92.37,39.817a.961.961,0,0,1,1.5,1.2c-.149.186-15.163,18.6-38.055,18.643Z" transform="translate(83.279 93.38)" fill="#fff"/>
    <path id="Tracé_5628" data-name="Tracé 5628" d="M64.127,130.762c-5.009,0-10.918-.457-11.916-2.533a2.143,2.143,0,0,1,.558-2.456c4.245-4.762,15.755,2.253,17.05,3.071a.958.958,0,0,1,.423,1.055.968.968,0,0,1-.883.717c-1.346.071-3.217.145-5.232.145m-7.133-4.7a3.594,3.594,0,0,0-2.79,1,.9.9,0,0,0-.25.389c.477.893,5.682,1.481,11.862,1.37-2.682-1.339-6.217-2.757-8.821-2.757" transform="translate(123.958 295.717)" fill="#9364ed"/>
    <path id="Tracé_5629" data-name="Tracé 5629" d="M40.5,35.564a.962.962,0,0,1-.257-1.887,10.362,10.362,0,0,0,5.145-3.971.96.96,0,1,1,1.586,1.082,12.126,12.126,0,0,1-6.217,4.742.977.977,0,0,1-.257.034" transform="translate(94.206 69.775)"/>
    <path id="Tracé_5630" data-name="Tracé 5630" d="M29.209,94.162a.959.959,0,0,1-.862-.538c-10.34-21.011,8.9-48.729,9.721-49.9a.961.961,0,1,1,1.573,1.106c-.2.277-19.4,27.955-9.569,47.945a.958.958,0,0,1-.862,1.383" transform="translate(60.277 103.198)" fill="#fff"/>
    <path id="Tracé_5631" data-name="Tracé 5631" d="M69.129,46.062a.979.979,0,0,1-.957-1.052c2.192-22.9-15.39-30.231-16.141-30.532a.962.962,0,0,1,.714-1.786c.2.078,19.672,8.135,17.341,32.5a.962.962,0,0,1-.957.869" transform="translate(122.528 30.074)" fill="#e2209e"/>
    <path id="Tracé_5632" data-name="Tracé 5632" d="M7.941,19.216a.963.963,0,0,1-.362-1.854L33.035,7.043a.961.961,0,1,1,.72,1.782L8.3,19.145a.971.971,0,0,1-.362.071" transform="translate(16.631 16.613)"/>
    <path id="Tracé_5633" data-name="Tracé 5633" d="M11.547,43.148C5.9,34.1,14.537,25.624,14.537,25.624S11.459,6.97,16.617,7.373s10.333,19.35,10.323,27.5Z" transform="translate(22.943 17.549)" fill="#fd8753"/>
    <path id="Tracé_5634" data-name="Tracé 5634" d="M12.214,44.786a.954.954,0,0,1-.815-.453c-5.3-8.49,1.164-16.543,2.784-18.346-.44-2.838-2.077-14.757.873-17.97a2.761,2.761,0,0,1,2.307-.927c6.254.487,11.216,20.683,11.206,28.462a.961.961,0,1,1-1.921,0c.01-8.314-5.273-26.22-9.437-26.541a.847.847,0,0,0-.741.308c-1.908,2.08-1.2,11.426-.318,16.831a.947.947,0,0,1-.274.839c-.328.328-8.013,8.053-2.848,16.333a.96.96,0,0,1-.308,1.322.948.948,0,0,1-.507.145" transform="translate(22.276 16.871)"/>
    <path id="Tracé_5635" data-name="Tracé 5635" d="M55.456,26.227s6.677,2.259,5.155,7.725c-1.979,7.123-8.814,5.415-8.814,5.415s-1.248,6.937-3.754,7.174,2.253-21.3,7.414-20.314" transform="translate(112.809 62.404)" fill="#fff"/>
  </g>
</svg>
