<svg id="Composant_7_4" data-name="Composant 7 – 4" xmlns="http://www.w3.org/2000/svg" xmlns:xlink="http://www.w3.org/1999/xlink" width="308.486" height="777.329" viewBox="0 0 308.486 777.329">
  <defs>
    <clipPath id="clip-path">
      <rect id="Rectangle_4336" data-name="Rectangle 4336" width="308.486" height="777.329" fill="none"/>
    </clipPath>
  </defs>
  <g id="Groupe_10650" data-name="Groupe 10650" clip-path="url(#clip-path)">
    <path id="Tracé_5113" data-name="Tracé 5113" d="M25.812,84.246S7.491,57.662,2.594,38.349.708,11.445,3.68,10.368s8.928,10.373,8.928,10.373S8.541,2.475,15.1.221,27.133,13.634,27.133,13.634,27.117.032,33.086,1.422s13.43,30.934,13.43,30.934,1.5-15.626,6.136-14.608S64.462,40.073,62.895,48.61s-7.739,19.6-7.739,19.6Z" transform="translate(-0.001 -0.001)" fill="#fd8753"/>
    <path id="Tracé_5114" data-name="Tracé 5114" d="M12.841,41.255a.992.992,0,0,1-1.006-.83C9,19.144,19.116,10.724,19.551,10.378a1.065,1.065,0,0,1,1.428.1.9.9,0,0,1-.1,1.331c-.1.08-9.715,8.191-7.032,28.389a.963.963,0,0,1-.883,1.056c-.04,0-.083.006-.123.006" transform="translate(26.3 21.265)"/>
    <path id="Tracé_5115" data-name="Tracé 5115" d="M4.873,25.435a1.023,1.023,0,0,1-.9-.511.915.915,0,0,1,.432-1.275L35.628,8.521a1.06,1.06,0,0,1,1.371.4.915.915,0,0,1-.435,1.275L5.341,25.326a1.045,1.045,0,0,1-.468.108" transform="translate(8.952 17.633)"/>
    <path id="Tracé_5116" data-name="Tracé 5116" d="M111.153,44.97s41.821,6.776,47.611,44.585-69.2,50.246-69.2,50.246-43.282,9.107-58.737-16.245,21.425-46.29,21.425-46.29,42.853-40.3,58.9-32.3" transform="translate(62.747 92.032)" fill="#ff771e"/>
    <path id="Tracé_5117" data-name="Tracé 5117" d="M2.722,46.342l60-30.092s44.5,124.459,67.217,147.028C153.557,186.745,95.2,230.333,95.2,230.333S12.945,176.969,2.722,46.342" transform="translate(6.315 34.052)" fill="#e2209e"/>
    <path id="Tracé_5118" data-name="Tracé 5118" d="M111.206,85.875s18.321-26.584,23.218-45.9,1.886-26.9-1.086-27.98S124.41,22.37,124.41,22.37,128.478,4.1,121.92,1.85s-12.036,13.413-12.036,13.413.017-13.6-5.953-12.212S90.5,33.985,90.5,33.985,89,18.359,84.366,19.377,72.556,41.7,74.123,50.239s7.736,19.6,7.736,19.6Z" transform="translate(171.468 3.412)" fill="#fd8753"/>
    <path id="Tracé_5119" data-name="Tracé 5119" d="M86.984,42.884a.99.99,0,0,1-1.006-1.062c2.683-20.2-6.936-28.309-7.032-28.389a.9.9,0,0,1-.1-1.331,1.062,1.062,0,0,1,1.428-.1c.435.347,10.545,8.767,7.716,30.048a.992.992,0,0,1-1.006.83" transform="translate(182.36 24.676)"/>
    <path id="Tracé_5120" data-name="Tracé 5120" d="M111.279,27.064a1.045,1.045,0,0,1-.468-.108L79.588,11.827a.915.915,0,0,1-.435-1.275,1.06,1.06,0,0,1,1.371-.4l31.223,15.128a.917.917,0,0,1,.432,1.275,1.027,1.027,0,0,1-.9.511" transform="translate(183.382 21.047)"/>
    <path id="Tracé_5121" data-name="Tracé 5121" d="M88.8,243.527l.06-27.7-55.493-1.851L31.394,252.16l27.411,6.6Z" transform="translate(72.838 448.387)" fill="#fd8753"/>
    <path id="Tracé_5122" data-name="Tracé 5122" d="M58.781,107.973S9.942,230.593,18.371,298.71c9.273,74.958,20.034,134.426,21.943,138.351s111.431,2.8,111.431,2.8L97.624,113.579Z" transform="translate(40.355 226.26)" fill="#5e1dbb"/>
    <path id="Tracé_5123" data-name="Tracé 5123" d="M126.73,229.4l-10.223-20.183L62.99,225.471l14.433,31.955,28.862-3.362Z" transform="translate(146.147 438.41)" fill="#fd8753"/>
    <path id="Tracé_5124" data-name="Tracé 5124" d="M131.871,107.973s23.56,38.685,20.376,94.745-8.277,75.686-8.277,75.686,64.949,137.915,63.674,141.28-90.418,35.88-96.786,33.076S38.906,290.178,35.722,280.084s5.731-166.5,5.731-166.5Z" transform="translate(81.287 226.26)" fill="#5e1dbb"/>
    <path id="Tracé_5125" data-name="Tracé 5125" d="M147.618,285.658a7.57,7.57,0,0,0,7.417-7.361c.246-15.778.471-52.3-2.683-52.345-4.024-.053-42.133,10.658-42.133,10.658s-.82-21.876-17.55-18.171C79.834,221.281,64.8,234.988,58.5,241.213a14.767,14.767,0,0,1-7.3,3.931C39.241,247.7,6.329,256.2,5.615,272.239c-.873,19.61,7.782,17.483,11.806,17.536,3.453.043,102.277-3.2,130.2-4.117" transform="translate(12.885 456.858)" fill="#ffb700"/>
    <path id="Tracé_5126" data-name="Tracé 5126" d="M179.751,268.274a6.991,6.991,0,0,0,2.7-9.68c-7.736-14.035-23.234-46.38-25.98-45.062-3.5,1.678-33.736,27.488-33.736,27.488S111.007,222.058,98.42,232.5c-9.658,8.017-15.738,26.572-18.045,34.769a13.062,13.062,0,0,1-4.326,6.606c-9.041,7.389-33.2,29.008-25.735,43.48,9.124,17.688,15.532,12.094,19.034,10.413,3-1.439,86.746-46.708,110.4-59.5" transform="translate(113.462 447.38)" fill="#ffb700"/>
    <path id="Tracé_5127" data-name="Tracé 5127" d="M107.132,408.41a1.015,1.015,0,0,1-.953-.622C105.7,406.583,58.462,286.78,49.2,263.8c-9.057-22.458,6.561-120.849,8.247-131.238l-26.266-9.813a.923.923,0,0,1-.561-1.229A1.037,1.037,0,0,1,31.938,121l27.009,10.091a.942.942,0,0,1,.628,1.022c-.183,1.08-17.65,108.275-8.48,131.027,9.267,22.984,56.512,142.793,56.987,144a.924.924,0,0,1-.6,1.214,1.077,1.077,0,0,1-.352.059" transform="translate(70.871 253.407)" fill="#9364ed"/>
    <path id="Tracé_5128" data-name="Tracé 5128" d="M63.7,228.337a1.013,1.013,0,0,1-.943-.6.927.927,0,0,1,.564-1.229L133.38,200.6a1.038,1.038,0,0,1,1.315.529.924.924,0,0,1-.568,1.229l-70.052,25.91a1.154,1.154,0,0,1-.375.065" transform="translate(145.44 420.234)" fill="#9364ed"/>
    <path id="Tracé_5129" data-name="Tracé 5129" d="M99.745,209.028H31.562a.948.948,0,1,1,0-1.891H99.745a.948.948,0,1,1,0,1.891" transform="translate(70.871 434.06)" fill="#9364ed"/>
    <path id="Tracé_5130" data-name="Tracé 5130" d="M96.1,161.8s33.822-41.084,46.9-68.959,33.872-74.481,33.872-74.481l66.247,24.222s-17.587,55.859-41.489,99.6-39.689,66.25-39.689,66.25-.9,93.708-2.254,95.429-38.169,9.54-79.518,7.352-50.36-7.782-52.618-9.073S44.689,178.065,44.689,178.065,63.631,162.219,96.1,161.8" transform="translate(63.505 38.482)" fill="#e2209e"/>
    <path id="Tracé_5131" data-name="Tracé 5131" d="M70.345,56.223l2.122,22.944s-3.831,6.953-18.121,9.2c-10.651,1.675-14.629-.285-14.629-.285l.422-11.738.425-11.45,25.5-7.42Z" transform="translate(92.15 117.816)" fill="#fd8753"/>
    <path id="Tracé_5132" data-name="Tracé 5132" d="M69.9,55.871a7.131,7.131,0,0,1-.511,2.272c-4.446,11.9-23.4,17.923-29.549,18.938l.425-11.45Z" transform="translate(92.444 117.079)"/>
    <path id="Tracé_5133" data-name="Tracé 5133" d="M40.974,48.846s-10.256,29.8-3.685,45.377,21.96,11.562,30.994,7.572,12.8-9.76,12.8-9.76,9.057,1.935,14.084-6.213.468-16.521-4.748-18.044-10.8,2.408-10.8,2.408l3.755-8.736s-24.207-40.279-42.4-12.6" transform="translate(81.417 82.011)" fill="#fd8753"/>
    <path id="Tracé_5134" data-name="Tracé 5134" d="M41.682,51.394a1.017,1.017,0,0,1-.936-.582,2.829,2.829,0,0,0-1.474-1.334,3.534,3.534,0,0,0-2.6.272,1.05,1.05,0,0,1-1.348-.458.915.915,0,0,1,.491-1.254,5.552,5.552,0,0,1,4.213-.319,4.788,4.788,0,0,1,2.59,2.371.924.924,0,0,1-.554,1.232,1.046,1.046,0,0,1-.385.071" transform="translate(81.741 99.41)"/>
    <path id="Tracé_5135" data-name="Tracé 5135" d="M48.435,50.968a1.036,1.036,0,0,1-.694-.257c-3-2.637-5.492-.5-5.767-.248a1.061,1.061,0,0,1-1.431-.006.9.9,0,0,1-.007-1.331,6.226,6.226,0,0,1,8.593.207.9.9,0,0,1,.043,1.337,1.043,1.043,0,0,1-.737.3" transform="translate(93.373 99.555)"/>
    <path id="Tracé_5136" data-name="Tracé 5136" d="M36.636,48.487a1,1,0,0,1-.976-.693.937.937,0,0,1,.7-1.164l5.867-1.517a1.016,1.016,0,0,1,1.248.659.937.937,0,0,1-.7,1.164l-5.867,1.517a1.194,1.194,0,0,1-.272.034" transform="translate(82.647 94.462)"/>
    <path id="Tracé_5137" data-name="Tracé 5137" d="M48.544,48.67a1.073,1.073,0,0,1-.276-.037l-7.3-1.913a.943.943,0,0,1-.7-1.167,1.015,1.015,0,0,1,1.252-.653l7.3,1.913a.94.94,0,0,1,.7,1.167,1.006,1.006,0,0,1-.976.69" transform="translate(93.339 94.006)"/>
    <path id="Tracé_5138" data-name="Tracé 5138" d="M39.5,64.544a1,1,0,0,1-.989-.737c-2.354-9.605,1.378-14.973,1.537-15.2a1.055,1.055,0,0,1,1.4-.263.909.909,0,0,1,.289,1.309c-.033.05-3.393,4.975-1.248,13.732a1,1,0,0,1-.989,1.158" transform="translate(87.556 100.977)"/>
    <path id="Tracé_5139" data-name="Tracé 5139" d="M45.075,60.924a8.1,8.1,0,0,1-5.013-2.133.911.911,0,0,1-.266-.861.981.981,0,0,1,.621-.681l8.775-3.235a1.062,1.062,0,0,1,.926.087.938.938,0,0,1,.458.758c.007.173.116,4.25-3.5,5.683a5.36,5.36,0,0,1-2,.381m-2.234-2.532a4.1,4.1,0,0,0,3.44.409,3.514,3.514,0,0,0,2.072-2.442Z" transform="translate(92.283 113.047)"/>
    <path id="Tracé_5140" data-name="Tracé 5140" d="M49.627,58.7a1.025,1.025,0,0,1-.863-.452.908.908,0,0,1,.332-1.3L60.713,50.3a1.056,1.056,0,0,1,1.394.313.915.915,0,0,1-.332,1.3L50.158,58.556a1.054,1.054,0,0,1-.531.139" transform="translate(112.789 105.12)"/>
    <path id="Tracé_5141" data-name="Tracé 5141" d="M57.292,57.608a1.069,1.069,0,0,1-.618-.2l-6.092-4.374a.907.907,0,0,1-.186-1.328,1.068,1.068,0,0,1,1.424-.17l6.089,4.371A.9.9,0,0,1,58.1,57.24a1.037,1.037,0,0,1-.8.368" transform="translate(116.441 107.593)"/>
    <path id="Tracé_5142" data-name="Tracé 5142" d="M58.79,54.038a24.7,24.7,0,0,0-13.9,4.786c-6.766,4.965-7.733,9.157-7.733,9.157s-5.94-10.119,2.726-20.653,29.606-14.846,43.145-6.358C99.117,51.061,97.241,65.579,97.241,65.579l-17.8,10.194S55.8,74.3,58.79,54.038" transform="translate(81.593 76.425)" fill="#ff771e"/>
    <path id="Tracé_5143" data-name="Tracé 5143" d="M46.361,74.458a50.773,50.773,0,0,1-6.076-.328.957.957,0,0,1-.863-1.068,1,1,0,0,1,1.145-.808c.216.028,21.352,2.622,31.84-8.6a1.067,1.067,0,0,1,1.431-.09.9.9,0,0,1,.1,1.334c-7.67,8.2-20.157,9.562-27.581,9.562" transform="translate(91.442 132.706)" fill="#fff"/>
    <path id="Tracé_5144" data-name="Tracé 5144" d="M3.928,55.141a1.028,1.028,0,0,1-.9-.5.916.916,0,0,1,.425-1.278L67.167,22.022a1.055,1.055,0,0,1,1.371.4.91.91,0,0,1-.425,1.275L4.4,55.032a1.049,1.049,0,0,1-.471.108" transform="translate(6.753 45.919)" fill="#fff"/>
    <path id="Tracé_5145" data-name="Tracé 5145" d="M139.19,48.645a1.1,1.1,0,0,1-.355-.059L70.622,25a.928.928,0,0,1-.6-1.213,1.039,1.039,0,0,1,1.308-.56l68.213,23.591a.931.931,0,0,1,.594,1.22,1.008,1.008,0,0,1-.95.613" transform="translate(162.32 48.539)" fill="#fff"/>
    <path id="Tracé_5146" data-name="Tracé 5146" d="M31.507,114.96a.991.991,0,0,1-1.009-.851C27.961,90.6,41.185,72.35,41.318,72.167a1.062,1.062,0,0,1,1.408-.245.91.91,0,0,1,.266,1.316c-.133.176-12.935,17.877-10.475,40.681a.963.963,0,0,1-.91,1.034.538.538,0,0,1-.1.006" transform="translate(70.01 150.37)" fill="#fff"/>
  </g>
</svg>
