<svg id="Groupe_10765" data-name="Groupe 10765" xmlns="http://www.w3.org/2000/svg" xmlns:xlink="http://www.w3.org/1999/xlink" width="448.139" height="777" viewBox="0 0 448.139 777">
  <defs>
    <clipPath id="clip-path">
      <rect id="Rectangle_4421" data-name="Rectangle 4421" width="448.139" height="777" fill="none"/>
    </clipPath>
  </defs>
  <g id="Groupe_10764" data-name="Groupe 10764" clip-path="url(#clip-path)">
    <path id="Tracé_5637" data-name="Tracé 5637" d="M53.009,47.17S31.446,27.228,42.958,12.822s32.73,2.621,32.73,2.621S85.016,7.37,96.819,15.3,108.786,40.5,108.786,40.5s12.559.618,12.177,15.929-17.783,27.71-17.783,27.71Z" transform="translate(104.284 18.534)" fill="#5e1dbb"/>
    <path id="Tracé_5638" data-name="Tracé 5638" d="M124.6,52.834s13.392,14.2,23.85,42.2c12.679,33.952,8.782,88.888,8.782,88.888l-48.176,1.654S90.236,112.009,75.1,110.952s49.5-58.118,49.5-58.118" transform="translate(191.841 139.221)" fill="#fd8753"/>
    <path id="Tracé_5639" data-name="Tracé 5639" d="M148.293,157.915l-38.6,38.517L70.844,135.363l21.81-22.527Z" transform="translate(186.678 297.332)" fill="#fd8753"/>
    <path id="Tracé_5640" data-name="Tracé 5640" d="M116.164,97.033c3.948-1.381,20.894,17.692,22.941,18.7s-2.745,16.038,1.792,17.11c4.573,1.061,12.843-.774,19.5.865,6.227,1.512,76.7,63.1,88.8,76.787a2.757,2.757,0,0,1-.436,3.959,100.715,100.715,0,0,1-14.588,10.015c-7,3.908-15.333,7.114-23,6.587-18.1-1.272-43.915-17.874-56.994-19.622-13.119-1.741-33.926,3.4-36.74-3.431-2.81-6.8-2.25-26.482-17.248-36.58s-24.108-12.232-24.937-18.684c-.556-4.358,16.554-27.677,28.91-42.712,5.907-7.219,10.716-12.552,11.992-12.992" transform="translate(198.287 255.5)" fill="#e2209e"/>
    <path id="Tracé_5641" data-name="Tracé 5641" d="M95.2,97.033c3.948-1.381,20.894,17.692,22.941,18.7s-2.745,16.038,1.792,17.11c4.573,1.061,12.843-.774,19.5.865,6.227,1.512,76.7,63.1,88.8,76.787a2.757,2.757,0,0,1-.436,3.959,100.715,100.715,0,0,1-14.588,10.015l-130-114.443c5.907-7.219,10.716-12.552,11.992-12.992" transform="translate(219.254 255.5)" fill="#fff"/>
    <path id="Tracé_5642" data-name="Tracé 5642" d="M44.09,202.853l8.07,22.937,45.766,14.628,21.949-9.822L108.14,177.989Z" transform="translate(116.182 469.014)" fill="#fd8753"/>
    <path id="Tracé_5643" data-name="Tracé 5643" d="M138.523,104.325s8.255,41.16,12.156,76.144,10.182,81.953,10.182,81.953,28.8,107.649-40.211,117.209c-85.562,11.85-81.269-89.612-81.269-89.612L64.985,77.658Z" transform="translate(103.675 204.634)" fill="#ffb700"/>
    <path id="Tracé_5644" data-name="Tracé 5644" d="M163.228,174.329,92.37,113.271,71.294,143.028l-5.631,139s30.818-4.169,97.565-107.7" transform="translate(173.027 298.477)" fill="#ffb700"/>
    <path id="Tracé_5645" data-name="Tracé 5645" d="M41.023,82.08S16,196.974,25.087,280.922,75.872,467.786,75.872,467.786l111.08-20.767-37.2-124.407L122.786,88.634Z" transform="translate(60.865 216.287)" fill="#ffb700"/>
    <path id="Tracé_5646" data-name="Tracé 5646" d="M34.587,17.538s-46,54.668-31.9,103.847c11.53,40.233,53.239,55.824,53.239,55.824l41.109-68.256S77.742,92,73.326,66.92a54.235,54.235,0,0,1,8.422-39.415Z" transform="translate(0.001 46.214)" fill="#fd8753"/>
    <path id="Tracé_5647" data-name="Tracé 5647" d="M16,6.385s-14.817,47.6-.487,54.846a44.213,44.213,0,0,0,27.816,4s42.7-17.081,31.127-33.1C60.325,12.572,16,6.385,16,6.385" transform="translate(24.43 16.825)" fill="#fd8753"/>
    <path id="Tracé_5648" data-name="Tracé 5648" d="M22.1,13.422s8.655-19.2,15.863-10.138S38.033,49.8,26.041,50.2s-3.94-36.78-3.94-36.78" transform="translate(51.27 2.249)" fill="#fd8753"/>
    <path id="Tracé_5649" data-name="Tracé 5649" d="M17.383,12.569s8.655-19.2,15.863-10.138.069,46.514-11.923,46.918-3.94-36.78-3.94-36.78" transform="translate(38.84 0.001)" fill="#fd8753"/>
    <path id="Tracé_5650" data-name="Tracé 5650" d="M10.728,13.191s4.653-18.044,12.3-11.232,7.074,40.549-3.322,42.708-8.982-31.476-8.982-31.476" transform="translate(28.098 1.113)" fill="#fd8753"/>
    <path id="Tracé_5651" data-name="Tracé 5651" d="M47.423,30.32a9.222,9.222,0,0,1-14.231,1.93c-8.113-7.7-18.063-18.826-10.444-20.993,7-1.988,15.8,2.523,21.858,6.565a9.254,9.254,0,0,1,2.817,12.5" transform="translate(52.767 28.387)" fill="#fd8753"/>
    <path id="Tracé_5652" data-name="Tracé 5652" d="M15.136,38.139a1.111,1.111,0,0,1-.851-1.825C20.567,28.841,31.974,24.66,35.878,23.4c-2.952-5.569-3.435-9.368-1.487-11.585,3.671-4.177,14.406.058,15.62.553a1.112,1.112,0,0,1-.843,2.057c-4.013-1.643-11.116-3.406-13.108-1.138-1.327,1.509-.469,5.14,2.414,10.229a1.116,1.116,0,0,1-.665,1.618c-.149.04-14.769,4.228-21.821,12.614a1.111,1.111,0,0,1-.851.4" transform="translate(36.958 26.314)"/>
    <path id="Tracé_5653" data-name="Tracé 5653" d="M19.977,38.589C10.664,38.425,10.6,24.874,10.6,24.3a1.111,1.111,0,1,1,2.221.007c0,.116.062,11.934,7.067,12.058a3.581,3.581,0,0,0,2.715-1.112c2.152-2.326,2.137-7.8,1.952-9.706L27.185,4.128a1.089,1.089,0,0,1,1.236-.967,1.112,1.112,0,0,1,.967,1.24L26.764,25.572c.036.076.742,7.648-2.523,11.185a5.584,5.584,0,0,1-4.264,1.832" transform="translate(27.937 8.304)"/>
    <path id="Tracé_5654" data-name="Tracé 5654" d="M25.622,40.625a6.309,6.309,0,0,1-.891-.065c-8.615-1.254-10.491-10.229-10.28-14.8a1.151,1.151,0,0,1,1.16-1.058,1.113,1.113,0,0,1,1.061,1.16c-.018.458-.393,11.221,8.382,12.5,4.98.712,6.794-9.4,6.816-9.5L36.127,3.936a1.114,1.114,0,0,1,2.2.374L34.059,29.229c-.076.48-1.956,11.4-8.437,11.4" transform="translate(38.039 7.933)"/>
    <path id="Tracé_5655" data-name="Tracé 5655" d="M65.02,34.457,6.066,113s26.943,22.352,48.888,30.665c24.878,9.422,28.183,10.68,28.183,10.68l-5.482,68.383,150.514,5.638s8.673-146.032,7.067-164.676-76.275-22.817-76.275-22.817S99,51.665,65.02,34.457" transform="translate(15.984 90.797)" fill="#9364ed"/>
    <path id="Tracé_5656" data-name="Tracé 5656" d="M196.415,265.027c-1.77,3.791-27.256,2.606-29.408,3.37s-9.56-13.166-13.5-10.665c-3.955,2.53-8.415,9.735-14.235,13.352-5.434,3.41-98.732,10.847-116.973,9.956a2.761,2.761,0,0,1-2.534-3.075,100.843,100.843,0,0,1,3.017-17.434c2.1-7.743,5.613-15.943,11.341-21.065,13.552-12.065,43.454-18.953,53.843-27.1,10.407-8.168,21.254-26.66,28.11-23.9,6.83,2.741,20.531,16.878,38.226,13.2s25.591-8.717,30.789-4.809c3.508,2.65,8.255,31.178,10.389,50.524,1.043,9.269,1.5,16.434.931,17.652" transform="translate(52.06 495.887)" fill="#e2209e"/>
    <path id="Tracé_5657" data-name="Tracé 5657" d="M79.189,124.545c-.105,4.955,6.35,15.5,6.35,15.5s.84,17.892,5.962,19.684S103.155,154,103.155,154s10.262,5.962,14.457,5.569,23.948-.007,29.717-9.607S140.4,94.978,140.4,94.978l-42.7-8.39s-18.408,33-18.513,37.957" transform="translate(208.665 228.165)" fill="#fd8753"/>
    <path id="Tracé_5658" data-name="Tracé 5658" d="M86.586,116.238a1.132,1.132,0,0,1-1.105-1.221l1.254-12.676a1.088,1.088,0,0,1,1.214-1,1.11,1.11,0,0,1,1,1.214l-1.254,12.679a1.109,1.109,0,0,1-1.105,1" transform="translate(225.234 267.04)"/>
    <path id="Tracé_5659" data-name="Tracé 5659" d="M83.722,30.31,81.915,59.4s-5.765,8.037-22.872,8.364c-12.745.244-17.019-2.9-17.019-2.9l2.683-14.628,2.635-14.26,31.153-4.853Z" transform="translate(110.736 79.869)" fill="#fd8753"/>
    <path id="Tracé_5660" data-name="Tracé 5660" d="M76.55,30.536a9.6,9.6,0,0,1-1.021,2.755c-7.412,14.126-25.4,16.154-32.767,16.358L45.4,35.389Z" transform="translate(112.681 80.465)"/>
    <path id="Tracé_5661" data-name="Tracé 5661" d="M52.689,20.6S35.153,56.129,39.915,76.769s23.472,18.3,34.762,14.875,16.761-9.989,16.761-9.989a15.681,15.681,0,0,0,17.6-5.325c7.39-9.324,3.631-20.6-2.174-23.417s-13.05,1.134-13.05,1.134l6.012-10.284S79.094-10.879,52.689,20.6" transform="translate(103.019 28.531)" fill="#fd8753"/>
    <path id="Tracé_5662" data-name="Tracé 5662" d="M55,34.9a1.109,1.109,0,0,1-.589-2.05l13.693-8.611a1.109,1.109,0,1,1,1.178,1.879L55.592,34.725A1.086,1.086,0,0,1,55,34.9" transform="translate(142.007 63.407)"/>
    <path id="Tracé_5663" data-name="Tracé 5663" d="M64.449,30.813a1.159,1.159,0,0,1-.345-.055L55.612,28a1.11,1.11,0,1,1,.687-2.112l8.5,2.759a1.11,1.11,0,0,1-.345,2.166" transform="translate(144.517 68.072)"/>
    <path id="Tracé_5664" data-name="Tracé 5664" d="M57.207,22.569a1.109,1.109,0,0,1-.92-.487c-3.435-5.071-8.219-2.981-8.422-2.89a1.111,1.111,0,0,1-.931-2.017c2.3-1.065,7.586-1.661,11.192,3.661a1.113,1.113,0,0,1-.92,1.734" transform="translate(121.991 43.375)"/>
    <path id="Tracé_5665" data-name="Tracé 5665" d="M42.362,19.882a1.112,1.112,0,0,1-.654-2.01,8.025,8.025,0,0,1,9.062-.3,1.112,1.112,0,0,1-1.243,1.843,5.812,5.812,0,0,0-6.51.251,1.093,1.093,0,0,1-.654.214" transform="translate(108.701 42.942)"/>
    <path id="Tracé_5666" data-name="Tracé 5666" d="M44.223,41.846a1.116,1.116,0,0,1-1.083-.862,23.943,23.943,0,0,1,4.111-20.156,1.11,1.11,0,1,1,1.694,1.436,22.126,22.126,0,0,0-3.639,18.223,1.111,1.111,0,0,1-.832,1.33,1.023,1.023,0,0,1-.251.029" transform="translate(111.907 53.848)"/>
    <path id="Tracé_5667" data-name="Tracé 5667" d="M42.16,27.5a1.129,1.129,0,0,1-.36-.058,1.108,1.108,0,0,1-.691-1.41l2.236-6.561a1.11,1.11,0,1,1,2.1.716L43.21,26.744a1.11,1.11,0,0,1-1.051.752" transform="translate(108.165 49.312)"/>
    <path id="Tracé_5668" data-name="Tracé 5668" d="M47.219,27.911a1.129,1.129,0,0,1-.36-.058,1.108,1.108,0,0,1-.691-1.41L48.4,19.881a1.11,1.11,0,1,1,2.1.716l-2.236,6.561a1.11,1.11,0,0,1-1.051.752" transform="translate(121.496 50.403)"/>
    <path id="Tracé_5669" data-name="Tracé 5669" d="M43.125,34.745a12.307,12.307,0,0,1,10.782-5.253,15.726,15.726,0,0,1,11.181,5.776S61.147,47.293,70.613,54.4s17.212,5.765,17.212,5.765l7.317-2.108,5.9-10.131-19.32-23.6L55.8,8.507,41.369,20.056Z" transform="translate(109.01 22.417)" fill="#5e1dbb"/>
    <path id="Tracé_5670" data-name="Tracé 5670" d="M46.292,33.474a9.305,9.305,0,0,1-1.443-.105,1.113,1.113,0,0,1-.923-1.269,1.135,1.135,0,0,1,1.269-.927c.247.04,5.983.851,8.768-4.238A1.11,1.11,0,1,1,55.91,28a10.762,10.762,0,0,1-9.618,5.474" transform="translate(115.713 69.453)"/>
    <path id="Tracé_5671" data-name="Tracé 5671" d="M52.223,35.793s-6.452,5.925-10.872,17.4c-2.5,6.5-2.715,16.358-1.32,16.471S53.063,54.328,59.81,53.823,70.748,73.111,73.55,74s14.439-5.947,19.168-16.71S90.9,38.894,90.9,38.894s-36.351,23.675-38.681-3.1" transform="translate(103.22 94.317)" fill="#fff"/>
    <path id="Tracé_5672" data-name="Tracé 5672" d="M80.429,41.94l-60.36,82.538L5.685,114.332,66.259,33.659Z" transform="translate(14.979 88.694)" fill="#fff"/>
    <path id="Tracé_5673" data-name="Tracé 5673" d="M81.74,120.168a1.123,1.123,0,0,1-1.105-1.21l2.123-23.4a1.112,1.112,0,0,1,2.214.2l-2.13,23.392a1.106,1.106,0,0,1-1.1,1.011" transform="translate(212.464 249.163)"/>
    <path id="Tracé_5674" data-name="Tracé 5674" d="M60.583,37.86s40.437,8.706,65.857,25.264S167.334,96.77,167.334,96.77l-64.882,64.148L79.085,147.159Z" transform="translate(159.64 99.764)" fill="#9364ed"/>
    <path id="Tracé_5675" data-name="Tracé 5675" d="M131.47,50.234,68.62,120.86,84.912,132.9l61.244-68.732Z" transform="translate(180.818 132.371)" fill="#fff"/>
    <path id="Tracé_5676" data-name="Tracé 5676" d="M28.074,95.589a1.13,1.13,0,0,1-1.109-1.2l2.9-36.191a1.112,1.112,0,1,1,2.217.174l-2.9,36.194a1.112,1.112,0,0,1-1.109,1.021" transform="translate(71.047 150.665)" fill="#ffb700"/>
    <path id="Tracé_5677" data-name="Tracé 5677" d="M76.053,88.682a1.123,1.123,0,0,1-.832-.371c-.513-.578-12.534-14.235-8.648-23.279.676-1.563,1.578-2.279,2.632-2.152,3.635.458,6.536,15.558,7.943,24.519a1.1,1.1,0,0,1-.622,1.178,1.08,1.08,0,0,1-.473.105m-7.038-23.5a3.51,3.51,0,0,0-.4.731c-2.286,5.329,2.406,13.137,5.609,17.554-1.581-8.651-3.78-17.045-5.209-18.284" transform="translate(173.389 165.656)" fill="#ffb700"/>
    <path id="Tracé_5678" data-name="Tracé 5678" d="M141.308,326.021c-12.712,0-41.422-3.359-62.389-30.989-36.285-47.808-14.9-176.5-12.287-191.336L30.119,100.77a1.112,1.112,0,0,1-1.021-1.2,1.084,1.084,0,0,1,1.2-1.018l37.736,3.024a1.106,1.106,0,0,1,1.007,1.3c-.262,1.414-25.467,141.895,11.654,190.8,26.765,35.271,66.395,29.844,66.8,29.786a1.09,1.09,0,0,1,1.261.938,1.116,1.116,0,0,1-.938,1.261,51.349,51.349,0,0,1-6.51.345" transform="translate(76.665 259.694)" fill="#fff"/>
    <path id="Tracé_5679" data-name="Tracé 5679" d="M68.342,156.524a4.324,4.324,0,0,1-2.606-.887,4.86,4.86,0,0,1-2-3.8c-.654-10.505,24.893-34.828,25.98-35.856a1.123,1.123,0,0,1,1.363-.127,1.107,1.107,0,0,1,.454,1.29c-1.25,3.7-12.508,36.234-21.767,39.153a4.861,4.861,0,0,1-1.429.229M87.83,120.941c-8.4,8.452-22.294,23.944-21.869,30.756a2.663,2.663,0,0,0,1.087,2.152,2.154,2.154,0,0,0,2.054.323c6.034-1.9,14.468-21.7,18.728-33.232" transform="translate(167.927 304.821)" fill="#fff"/>
    <path id="Tracé_5680" data-name="Tracé 5680" d="M84.018,118.634a1.11,1.11,0,0,1-.487-.113c-15.409-7.5-25.293-26.205-25.7-27A1.11,1.11,0,1,1,59.794,90.5c.1.189,9.971,18.851,24.711,26.031a1.11,1.11,0,0,1-.487,2.108" transform="translate(152.04 236.894)" fill="#fff"/>
    <path id="Tracé_5681" data-name="Tracé 5681" d="M196.415,222.122c-1.77,3.791-27.256,2.606-29.408,3.37s-9.56-13.166-13.5-10.665c-3.955,2.53-8.415,9.735-14.235,13.352-5.434,3.41-98.732,10.847-116.973,9.956a2.761,2.761,0,0,1-2.534-3.075,100.843,100.843,0,0,1,3.017-17.434l172.7-13.155c1.043,9.269,1.5,16.434.931,17.652" transform="translate(52.06 538.793)" fill="#fff"/>
  </g>
</svg>
