<svg id="Composant_6_3" data-name="Composant 6 – 3" xmlns="http://www.w3.org/2000/svg" xmlns:xlink="http://www.w3.org/1999/xlink" width="641.173" height="802.387" viewBox="0 0 641.173 802.387">
  <defs>
    <clipPath id="clip-path">
      <path id="Tracé_5102" data-name="Tracé 5102" d="M0,0H641.173V802.387H0V0Z" fill="#fff"/>
    </clipPath>
  </defs>
  <g id="Groupe_de_masques_42" data-name="Groupe de masques 42" clip-path="url(#clip-path)">
    <path id="Tracé_4998" data-name="Tracé 4998" d="M571.479,369.6a4.165,4.165,0,1,1-5.628-1.734,4.164,4.164,0,0,1,5.628,1.734" fill="#9364ee"/>
    <path id="Tracé_4999" data-name="Tracé 4999" d="M635.939,25.5a12.938,12.938,0,0,0,.681-2.366,9.437,9.437,0,0,0-2.073-8.2c.071-.119.136-.239.2-.363C637.487,9.123,631.61.37,631.358,0l-1.075.731c.058.084,5.7,8.486,3.3,13.258a12.194,12.194,0,0,0-3.62-2.112c-6.058-2.319-10.887-1.166-12.81.884a2.675,2.675,0,0,0-.656,3.017c.933,2.037,4.511,3.077,9.816,2.854,3.428-.143,5.92-1.029,7.436-2.638a8.179,8.179,0,0,1,1.59,6.909,12.026,12.026,0,0,1-.612,2.141c-.128-.044-.257-.085-.39-.124-6.794-2.066-11.824.193-14.068,2.756-1.335,1.515-1.766,3.246-1.149,4.6.394.866,1.579,2.314,5.093,2.3,4.841-.017,9.1-3.66,11.2-7.892a6.887,6.887,0,0,1,4.12,4.1c1.711,5.217-3.621,12.431-3.675,12.5l1.04.779c.237-.317,5.79-7.822,3.871-13.683a8.109,8.109,0,0,0-4.831-4.891m-9.678-8.168c-5.511.231-8.046-.932-8.58-2.1a1.326,1.326,0,0,1,.264-1.4c.052-.067.106-.128.16-.187,1.365-1.455,5.526-2.805,11.4-.559a10.838,10.838,0,0,1,3.343,1.969c-1.275,1.381-3.482,2.146-6.585,2.276m-2.047,15.949c-2.065.007-3.453-.54-3.908-1.542a2.958,2.958,0,0,1,.723-2.944c.07-.09.143-.179.221-.268,2.146-2.449,6.91-4.133,12.714-2.369.078.026.158.049.237.075-1.908,3.791-5.7,7.035-9.987,7.048" fill="#e2209e"/>
    <path id="Tracé_5000" data-name="Tracé 5000" d="M531.3,688.309a5.864,5.864,0,1,1-7.152-4.2,5.865,5.865,0,0,1,7.152,4.2" fill="#fff"/>
    <path id="Tracé_5001" data-name="Tracé 5001" d="M312.334,21.4a5.864,5.864,0,1,1-1.045-8.227,5.865,5.865,0,0,1,1.045,8.227" fill="#fff"/>
    <path id="Tracé_5002" data-name="Tracé 5002" d="M10.937,598.194a5.864,5.864,0,1,1-8.016-2.128,5.865,5.865,0,0,1,8.016,2.128" fill="#110828"/>
    <path id="Tracé_5003" data-name="Tracé 5003" d="M150.11,127.721s-19.585-18.112-9.13-31.2S170.71,98.9,170.71,98.9s8.473-7.336,19.191-.134,10.872,22.9,10.872,22.9,11.406.561,11.06,14.465S195.68,161.3,195.68,161.3Z" fill="#5e1dbb"/>
    <path id="Tracé_5004" data-name="Tracé 5004" d="M294.66,242.487s12.164,12.9,21.661,38.329c11.517,30.839,7.98,80.738,7.98,80.738l-43.758,1.5s-17.093-66.821-30.84-67.782,44.957-52.787,44.957-52.787" fill="#fd8753"/>
    <path id="Tracé_5005" data-name="Tracé 5005" d="M311.5,481.545l-35.061,34.983L241.15,461.06,260.96,440.6Z" fill="#fd8753"/>
    <path id="Tracé_5006" data-name="Tracé 5006" d="M292.857,388.248c3.589-1.253,18.981,16.071,20.842,16.983s-2.5,14.569,1.627,15.541c4.151.967,11.666-.7,17.708.787,5.662,1.374,69.672,57.32,80.661,69.746a2.5,2.5,0,0,1-.394,3.6A91.532,91.532,0,0,1,400.05,504c-6.362,3.548-13.925,6.461-20.887,5.984-16.438-1.156-39.885-16.235-51.77-17.824-11.911-1.583-30.814,3.09-33.369-3.118-2.549-6.181-2.042-24.052-15.664-33.223s-21.9-11.111-22.652-16.972c-.5-3.961,15.037-25.141,26.261-38.8,5.365-6.557,9.734-11.4,10.888-11.8" fill="#e2209e"/>
    <path id="Tracé_5007" data-name="Tracé 5007" d="M292.857,388.248c3.589-1.253,18.981,16.071,20.842,16.983s-2.5,14.569,1.627,15.541c4.151.967,11.666-.7,17.708.787,5.662,1.374,69.672,57.32,80.661,69.746a2.5,2.5,0,0,1-.394,3.6A91.532,91.532,0,0,1,400.05,504L281.969,400.049c5.365-6.557,9.734-11.4,10.888-11.8" fill="#fff"/>
    <path id="Tracé_5008" data-name="Tracé 5008" d="M152.816,678.3l7.329,20.834,41.57,13.288,19.937-8.923-10.658-47.781Z" fill="#fd8753"/>
    <path id="Tracé_5009" data-name="Tracé 5009" d="M227.23,348.672s7.5,37.385,11.04,69.163,9.248,74.438,9.248,74.438,26.157,97.778-36.524,106.46c-77.717,10.765-73.817-81.4-73.817-81.4l23.259-192.888Z" fill="#ffb700"/>
    <path id="Tracé_5010" data-name="Tracé 5010" d="M312.661,497.493,248.3,442.034l-19.145,27.028-5.11,126.252s27.988-3.787,88.614-97.821" fill="#ffb700"/>
    <path id="Tracé_5011" data-name="Tracé 5011" d="M99.784,339.05S77.052,443.409,85.31,519.658s46.127,169.73,46.127,169.73l100.9-18.861-33.787-113L174.051,345Z" fill="#ffb700"/>
    <path id="Tracé_5012" data-name="Tracé 5012" d="M38.655,125.947S-3.124,175.6,9.679,220.271c10.474,36.545,48.356,50.705,48.356,50.705l37.342-62S77.852,193.584,73.84,170.8A49.277,49.277,0,0,1,81.493,135Z" fill="#fd8753"/>
    <path id="Tracé_5013" data-name="Tracé 5013" d="M43.967,89.122s-13.458,43.241-.444,49.817a40.175,40.175,0,0,0,25.266,3.636s38.788-15.518,28.274-30.068c-12.839-17.767-53.1-23.385-53.1-23.385" fill="#fd8753"/>
    <path id="Tracé_5014" data-name="Tracé 5014" d="M73.882,82.275s7.862-17.438,14.41-9.209.061,42.249-10.83,42.617-3.58-33.408-3.58-33.408" fill="#fd8753"/>
    <path id="Tracé_5015" data-name="Tracé 5015" d="M58.308,79.458S66.17,62.02,72.717,70.249s.062,42.249-10.829,42.617-3.58-33.408-3.58-33.408" fill="#fd8753"/>
    <path id="Tracé_5016" data-name="Tracé 5016" d="M42.507,81.033s4.227-16.391,11.176-10.2,6.424,36.832-3.017,38.794-8.159-28.591-8.159-28.591" fill="#fd8753"/>
    <path id="Tracé_5017" data-name="Tracé 5017" d="M98.244,121.363a8.376,8.376,0,0,1-12.926,1.754c-7.37-6.994-16.407-17.1-9.486-19.068,6.355-1.807,14.353,2.291,19.852,5.964a8.4,8.4,0,0,1,2.56,11.35" fill="#fd8753"/>
    <path id="Tracé_5018" data-name="Tracé 5018" d="M54.559,126.585a1.01,1.01,0,0,1-.773-1.658c5.705-6.788,16.067-10.586,19.612-11.733-2.68-5.06-3.119-8.509-1.348-10.523,3.335-3.794,13.084.051,14.185.5a1.009,1.009,0,0,1-.765,1.868c-3.645-1.49-10.1-3.091-11.907-1.032-1.2,1.37-.425,4.669,2.192,9.29a1.01,1.01,0,0,1-.6,1.469c-.134.038-13.415,3.841-19.819,11.459a1.009,1.009,0,0,1-.773.36"/>
    <path id="Tracé_5019" data-name="Tracé 5019" d="M50.762,110.635c-8.459-.15-8.519-12.456-8.517-12.979a1.01,1.01,0,0,1,2.019.005c0,.108.057,10.842,6.419,10.955a3.257,3.257,0,0,0,2.465-1.011c1.955-2.114,1.942-7.082,1.774-8.817l2.386-19.453a.991.991,0,0,1,1.125-.878,1.01,1.01,0,0,1,.878,1.125L56.927,98.813c.031.068.673,6.945-2.291,10.159a5.07,5.07,0,0,1-3.874,1.663"/>
    <path id="Tracé_5020" data-name="Tracé 5020" d="M65.063,112.146a5.463,5.463,0,0,1-.805-.059c-7.831-1.141-9.534-9.293-9.341-13.445a1.042,1.042,0,0,1,1.053-.961,1.01,1.01,0,0,1,.964,1.054c-.017.415-.357,10.193,7.613,11.355,4.528.645,6.175-8.535,6.191-8.629l3.871-22.64a1.01,1.01,0,0,1,1.992.339L72.73,101.795c-.074.435-1.779,10.351-7.667,10.351"/>
    <path id="Tracé_5021" data-name="Tracé 5021" d="M80.817,181.81,27.27,253.153s24.472,20.3,44.4,27.854c22.6,8.56,25.6,9.7,25.6,9.7l-4.978,62.115,136.713,5.119s7.876-132.641,6.416-149.575-69.28-20.725-69.28-20.725-54.466,9.8-85.326-5.831" fill="#9364ed"/>
    <path id="Tracé_5022" data-name="Tracé 5022" d="M232.933,759.182c-1.609,3.444-24.758,2.366-26.71,3.062s-8.685-11.961-12.261-9.687c-3.591,2.3-7.644,8.84-12.929,12.127-4.936,3.094-89.68,9.853-106.249,9.042a2.5,2.5,0,0,1-2.3-2.792,91.608,91.608,0,0,1,2.74-15.838c1.9-7.031,5.1-14.48,10.3-19.131,12.305-10.959,39.472-17.216,48.907-24.614,9.451-7.421,19.3-24.216,25.532-21.711,6.205,2.491,18.644,15.332,34.721,11.985s23.243-7.918,27.965-4.366c3.188,2.405,7.5,28.319,9.436,45.888.949,8.42,1.366,14.93.846,16.035" fill="#e2209e"/>
    <path id="Tracé_5023" data-name="Tracé 5023" d="M268.7,388.412c-.1,4.5,5.766,14.083,5.766,14.083s.764,16.249,5.418,17.879,10.583-5.206,10.583-5.206,9.32,5.415,13.133,5.06,21.75-.007,26.992-8.727-6.29-49.946-6.29-49.946l-38.785-7.62S268.8,383.912,268.7,388.412" fill="#fd8753"/>
    <path id="Tracé_5024" data-name="Tracé 5024" d="M290.467,416.176a1.029,1.029,0,0,1-1-1.109l1.138-11.515a.99.99,0,0,1,1.1-.9,1.009,1.009,0,0,1,.9,1.1l-1.138,11.515a1.007,1.007,0,0,1-1,.909"/>
    <path id="Tracé_5025" data-name="Tracé 5025" d="M183.867,168.118l-1.641,26.425s-5.237,7.3-20.775,7.6c-11.574.221-15.458-2.634-15.458-2.634l2.437-13.284,2.393-12.953,28.3-4.406Z" fill="#fd8753"/>
    <path id="Tracé_5026" data-name="Tracé 5026" d="M179.119,168.862a8.728,8.728,0,0,1-.926,2.5c-6.733,12.833-23.075,14.675-29.764,14.858l2.394-12.953Z"/>
    <path id="Tracé_5027" data-name="Tracé 5027" d="M148.672,112.669s-15.926,32.271-11.6,51.018,21.32,16.621,31.575,13.513,15.226-9.077,15.226-9.077a14.239,14.239,0,0,0,15.986-4.835c6.711-8.47,3.3-18.714-1.974-21.27s-11.854,1.03-11.854,1.03l5.461-9.339s-18.834-49.633-42.817-21.04" fill="#fd8753"/>
    <path id="Tracé_5028" data-name="Tracé 5028" d="M186.184,157.333a1.009,1.009,0,0,1-.536-1.863l12.437-7.822a1.009,1.009,0,0,1,1.073,1.708l-12.438,7.822a1,1,0,0,1-.536.155"/>
    <path id="Tracé_5029" data-name="Tracé 5029" d="M197.045,157.859a1.021,1.021,0,0,1-.313-.049l-7.715-2.506a1.009,1.009,0,0,1,.625-1.919l7.716,2.507a1.008,1.008,0,0,1-.313,1.967"/>
    <path id="Tracé_5030" data-name="Tracé 5030" d="M170.007,127.939a1.006,1.006,0,0,1-.836-.443c-3.119-4.605-7.465-2.707-7.65-2.625a1.009,1.009,0,0,1-.843-1.833,8.137,8.137,0,0,1,10.164,3.325,1.01,1.01,0,0,1-.835,1.576"/>
    <path id="Tracé_5031" data-name="Tracé 5031" d="M144.452,125.105a1.009,1.009,0,0,1-.594-1.825,7.284,7.284,0,0,1,8.231-.271,1.009,1.009,0,0,1-1.13,1.673,5.28,5.28,0,0,0-5.913.23,1,1,0,0,1-.594.193"/>
    <path id="Tracé_5032" data-name="Tracé 5032" d="M149.053,154.961a1.009,1.009,0,0,1-.983-.782A21.758,21.758,0,0,1,151.8,135.87a1.009,1.009,0,0,1,1.54,1.3,20.1,20.1,0,0,0-3.306,16.551,1.009,1.009,0,0,1-.754,1.21,1.025,1.025,0,0,1-.229.026"/>
    <path id="Tracé_5033" data-name="Tracé 5033" d="M143.782,137.809a1.008,1.008,0,0,1-.954-1.335l2.031-5.958a1.008,1.008,0,1,1,1.908.651l-2.031,5.959a1.007,1.007,0,0,1-.954.683"/>
    <path id="Tracé_5034" data-name="Tracé 5034" d="M160.484,139.174a1.005,1.005,0,0,1-.954-1.334l2.031-5.959a1.008,1.008,0,1,1,1.908.652l-2.031,5.959a1.006,1.006,0,0,1-.954.682"/>
    <path id="Tracé_5035" data-name="Tracé 5035" d="M145.426,119.963a11.177,11.177,0,0,1,9.794-4.77,14.28,14.28,0,0,1,10.156,5.246s-3.581,10.921,5.016,17.375,15.636,5.234,15.636,5.234l6.646-1.913,5.359-9.2-17.55-21.439L156.937,96.13l-13.1,10.492Z" fill="#5e1dbb"/>
    <path id="Tracé_5036" data-name="Tracé 5036" d="M154.39,161.531a8.363,8.363,0,0,1-1.311-.1,1.009,1.009,0,0,1-.839-1.151,1.03,1.03,0,0,1,1.152-.842c.225.035,5.434.771,7.964-3.853a1.01,1.01,0,0,1,1.772.97,9.785,9.785,0,0,1-8.738,4.972"/>
    <path id="Tracé_5037" data-name="Tracé 5037" d="M148.43,186.222s-5.862,5.383-9.874,15.8c-2.277,5.909-2.468,14.859-1.2,14.96s11.836-13.926,17.966-14.384,9.935,17.52,12.48,18.324,13.113-5.4,17.41-15.179a16.2,16.2,0,0,0-1.649-16.707s-33.016,21.505-35.133-2.815" fill="#fff"/>
    <path id="Tracé_5038" data-name="Tracé 5038" d="M93.9,186.7,39.074,261.668l-13.065-9.216,55.019-73.277Z" fill="#fff"/>
    <path id="Tracé_5039" data-name="Tracé 5039" d="M274.466,403.505a1.027,1.027,0,0,1-1-1.1l1.932-21.248a1.008,1.008,0,1,1,2.007.183l-1.931,21.249a1.008,1.008,0,0,1-1,.917"/>
    <path id="Tracé_5040" data-name="Tracé 5040" d="M207.271,193.045s36.727,7.907,59.818,22.946,37.143,30.562,37.143,30.562L245.3,304.819l-21.221-12.5Z" fill="#9364ed"/>
    <path id="Tracé_5041" data-name="Tracé 5041" d="M290.893,233.9,233.807,298.05l14.8,10.933,55.627-62.43Z" fill="#fff"/>
    <path id="Tracé_5042" data-name="Tracé 5042" d="M97.272,291.716a1.025,1.025,0,0,1-1.006-1.089L98.9,257.753a1.01,1.01,0,1,1,2.013.16l-2.636,32.874a1.009,1.009,0,0,1-1.006.929" fill="#ffb700"/>
    <path id="Tracé_5043" data-name="Tracé 5043" d="M233.808,299.061a1.016,1.016,0,0,1-.754-.338c-.465-.524-11.384-12.929-7.855-21.145.612-1.42,1.432-2.071,2.389-1.952,3.3.415,5.939,14.131,7.216,22.269a1,1,0,0,1-.565,1.068.991.991,0,0,1-.431.1m-6.391-21.35a3.1,3.1,0,0,0-.362.664c-2.079,4.839,2.183,11.932,5.1,15.945-1.438-7.858-3.435-15.483-4.733-16.609" fill="#ffb700"/>
    <path id="Tracé_5044" data-name="Tracé 5044" d="M205.228,600.048A70.5,70.5,0,0,1,148.561,571.9C115.6,528.476,135.026,411.583,137.4,398.11l-33.168-2.657a1.01,1.01,0,0,1-.925-1.088.984.984,0,0,1,1.088-.925l34.277,2.746a1.01,1.01,0,0,1,.912,1.188c-.237,1.285-23.13,128.884,10.585,173.308,24.312,32.038,60.309,27.109,60.676,27.053a.994.994,0,0,1,1.146.852,1.01,1.01,0,0,1-.851,1.146,46.5,46.5,0,0,1-5.913.315" fill="#fff"/>
    <path id="Tracé_5045" data-name="Tracé 5045" d="M221.844,487.083a3.942,3.942,0,0,1-2.368-.8,4.414,4.414,0,0,1-1.81-3.453c-.6-9.542,22.609-31.634,23.6-32.57a1.011,1.011,0,0,1,1.651,1.057c-1.138,3.361-11.363,32.911-19.772,35.562a4.363,4.363,0,0,1-1.3.208m17.7-32.32c-7.631,7.676-20.25,21.748-19.864,27.937a2.428,2.428,0,0,0,.988,1.955,1.971,1.971,0,0,0,1.866.294c5.482-1.727,13.139-19.711,17.01-30.186" fill="#fff"/>
    <path id="Tracé_5046" data-name="Tracé 5046" d="M221.652,390.97a.964.964,0,0,1-.441-.1c-14-6.813-22.975-23.8-23.349-24.52a1.008,1.008,0,0,1,1.787-.935c.09.17,9.056,17.12,22.445,23.642a1.009,1.009,0,0,1-.442,1.916" fill="#fff"/>
    <path id="Tracé_5047" data-name="Tracé 5047" d="M232.933,759.182c-1.609,3.444-24.758,2.366-26.71,3.062s-8.685-11.961-12.261-9.687c-3.591,2.3-7.644,8.84-12.929,12.127-4.936,3.094-89.68,9.853-106.249,9.042a2.5,2.5,0,0,1-2.3-2.792,91.608,91.608,0,0,1,2.74-15.838l156.862-11.949c.949,8.42,1.366,14.93.846,16.035" fill="#fff"/>
    <path id="Tracé_5048" data-name="Tracé 5048" d="M512.047,97.269s-8.755-3.831-13.373-17.687c-3.136-9.406-1.083-29.329,3.54-31.922S509.952,60,509.952,60s-2.2-24.352,2.291-31.519,9.774,1.135,9.774,1.135-.389-9.73,5.625-12.95,8.194,7.636,8.194,7.636,3.827-10.083,10-3.213,7.441,31.131,5.314,43.28-4.465,16.673-4.465,16.673l-.638,6.591-22.542,20.816Z" fill="#fd8753"/>
    <path id="Tracé_5049" data-name="Tracé 5049" d="M511.158,53.1a1.04,1.04,0,0,1-.449-1.977A185.291,185.291,0,0,1,532.8,42.452a1.039,1.039,0,0,1,.612,1.986A182.155,182.155,0,0,0,511.607,53a1.041,1.041,0,0,1-.449.1"/>
    <path id="Tracé_5050" data-name="Tracé 5050" d="M521.847,83.337a1.022,1.022,0,0,1-.244-.029,1.038,1.038,0,0,1-.765-1.254c2.5-10.354-11.375-21.12-11.516-21.227a1.039,1.039,0,1,1,1.262-1.65c.617.472,15.09,11.694,12.273,23.364a1.037,1.037,0,0,1-1.01.8"/>
    <path id="Tracé_5051" data-name="Tracé 5051" d="M552.138,80.941s27.015,75.329-.026,121.208S434.7,240.389,434.7,240.389l-8.626-72.9S467.2,169.45,483.8,146.365c12.44-17.305,7.029-63.309,7.029-63.309Z" fill="#ffb700"/>
    <path id="Tracé_5052" data-name="Tracé 5052" d="M493.434,158.929a2.87,2.87,0,0,1-1.552-.475c-4.088-2.588-6.175-16.964-6.4-18.594a1.039,1.039,0,0,1,1.77-.872c1.152,1.171,11.22,11.593,9.872,17a3.908,3.908,0,0,1-2.867,2.816,2.77,2.77,0,0,1-.824.128m-5.344-15.976c1.03,5.611,2.874,12.46,4.9,13.746a.691.691,0,0,0,.641.118c1.111-.349,1.375-.929,1.475-1.335.661-2.646-3.334-8.314-7.019-12.529" fill="#fff"/>
    <path id="Tracé_5053" data-name="Tracé 5053" d="M382.995,76.964S363.191,47.94,335.479,64.4,312.8,111.03,291.5,119.349,243.82,144.1,257.959,167.486c11.828,19.56,49.808,14.764,49.808,14.764s19.683,29.189,50.486,16.863,44.124-29.56,39.205-55.425-14.463-66.724-14.463-66.724" fill="#5e1dbb"/>
    <path id="Tracé_5054" data-name="Tracé 5054" d="M436.87,117.568s15.446-25.891-20.186-43.305S357.649,85.241,358.265,99.68s9.238,20.6,9.238,20.6-1.253,31.438,28.625,27.416,40.742-30.132,40.742-30.132" fill="#5e1dbb"/>
    <path id="Tracé_5055" data-name="Tracé 5055" d="M506.118,696.047s54.971,29.239,70.9,45.6,16.32,27.066,14.189,32.23-117.96-4.936-117.96-4.936.085-31.929-12.364-30.393-6.9,30.376-6.9,30.376l-35.07-1.809s-.282-31.76,2.789-44.092c3.313-13.306,11.868-31.1,11.868-31.1Z" fill="#f4f2f9"/>
    <path id="Tracé_5056" data-name="Tracé 5056" d="M451.563,489.773S464.9,534.02,433.739,590.218c-35.723,64.434-60.485,96.98-60.485,96.98l-58.981-15.58s53.23-132.639,54.154-186.34,83.136,4.495,83.136,4.495" fill="#fd8753"/>
    <path id="Tracé_5057" data-name="Tracé 5057" d="M510.745,468.506a823.418,823.418,0,0,1-5.232,121.712c-7.828,63.778-13.58,101.52-13.58,101.52l-58.367.185s5.1-139.336-4.409-192.159c-9.52-52.859,81.588-31.258,81.588-31.258" fill="#fd8753"/>
    <path id="Tracé_5058" data-name="Tracé 5058" d="M380.9,700.289s41.992,45.969,51.513,66.724,6.306,30.97,2.569,35.121-109.486-44.181-109.486-44.181,10.782-30.053-1.463-32.778-16.681,26.307-16.681,26.307l-32.438-13.457s10.378-30.018,17.4-40.608c7.582-11.425,22.535-27.938,22.535-27.938Z" fill="#fff"/>
    <path id="Tracé_5059" data-name="Tracé 5059" d="M494.531,686.274s47.131,29.272,38.2,31.729-58.7.836-73.065-5.086-25.927-21.557-25.927-21.557l33.77-14.281Z" fill="#fd8753"/>
    <path id="Tracé_5060" data-name="Tracé 5060" d="M415.685,500.839q8.646.458,18.041.554a187.967,187.967,0,0,0,26.52-1.662,190.406,190.406,0,0,0,54.4-15.8c-3.408-105.528-49.262-200.967-49.262-200.967l-26.253,5.845-4.656,1.026Z" fill="#e2209e"/>
    <path id="Tracé_5061" data-name="Tracé 5061" d="M344.3,396.835c6.789,63.71,13.163,85.8,13.163,85.8s-1.274,3.6-3.409,9.782a353.967,353.967,0,0,0,61.632,8.425q8.646.458,18.041.554a187.808,187.808,0,0,0,26.52-1.663c3.326-11.39,5.515-19.2,5.959-21.31,2.549-11.667-16.434-189.468-16.434-189.468l-10.641-.139-72.9,7.9S337.509,333.1,344.3,396.835" fill="#e2209e"/>
    <path id="Tracé_5062" data-name="Tracé 5062" d="M392.942,142.865l.944,25.278s4.83,7.1,19.663,7.745c11.049.485,14.826-2.15,14.826-2.15l-2.014-12.745-1.98-12.428-26.922-4.877Z" fill="#fd8753"/>
    <path id="Tracé_5063" data-name="Tracé 5063" d="M392.942,141.659a8.318,8.318,0,0,0,.826,2.411c6.128,12.416,26.209,16.59,32.593,16.922l-1.98-12.427Z"/>
    <path id="Tracé_5064" data-name="Tracé 5064" d="M427.865,90.737s14.45,31.2,9.878,49-20.755,15.371-30.477,12.161-14.327-9.028-14.327-9.028a13.6,13.6,0,0,1-15.154-5c-6.21-8.247-2.709-17.951,2.387-20.268s11.3,1.264,11.3,1.264l-4.995-9.049s19.159-46.961,41.391-19.085" fill="#fd8753"/>
    <path id="Tracé_5065" data-name="Tracé 5065" d="M429.38,112.616a1.024,1.024,0,0,1-.281-.039,1.038,1.038,0,0,1-.723-1.269,5.105,5.105,0,0,1,2.317-2.908,5.355,5.355,0,0,1,4.324-.187,1.039,1.039,0,0,1-.638,1.978,3.416,3.416,0,0,0-2.682.027,3,3,0,0,0-1.316,1.644,1.046,1.046,0,0,1-1,.754"/>
    <path id="Tracé_5066" data-name="Tracé 5066" d="M410.658,114.629a1.039,1.039,0,0,1-.8-1.7c3.234-3.9,7.109-2.567,8.709-1.31a1.04,1.04,0,0,1-1.28,1.639c-.312-.241-3.142-2.245-5.827,1a1.039,1.039,0,0,1-.8.376"/>
    <path id="Tracé_5067" data-name="Tracé 5067" d="M432.53,103.535a1.146,1.146,0,0,1-.152-.011l-6.17-.915a1.041,1.041,0,0,1-.877-1.181,1.022,1.022,0,0,1,1.18-.875l6.17.914a1.04,1.04,0,0,1-.151,2.068"/>
    <path id="Tracé_5068" data-name="Tracé 5068" d="M409.524,106.084a1.039,1.039,0,0,1-.4-2l7.161-3.007a1.039,1.039,0,0,1,.806,1.916L409.927,106a1.043,1.043,0,0,1-.4.081"/>
    <path id="Tracé_5069" data-name="Tracé 5069" d="M427.675,129.12a1.062,1.062,0,0,1-1.034-1.145c1-9.818-3.085-14.762-3.125-14.811a1.039,1.039,0,0,1,1.577-1.353c.192.223,4.709,5.6,3.616,16.375a1.039,1.039,0,0,1-1.034.934"/>
    <path id="Tracé_5070" data-name="Tracé 5070" d="M391.511,131.718a1.045,1.045,0,0,1-.43-.093l-12.7-5.774a1.039,1.039,0,1,1,.861-1.892l12.7,5.774a1.039,1.039,0,0,1-.43,1.985"/>
    <path id="Tracé_5071" data-name="Tracé 5071" d="M380.2,134.653a1.039,1.039,0,0,1-.731-1.778l5.6-5.533a1.039,1.039,0,0,1,1.462,1.478l-5.6,5.533a1.037,1.037,0,0,1-.731.3"/>
    <path id="Tracé_5072" data-name="Tracé 5072" d="M373.254,687.2s34.6,43.374,25.358,42.7-55.588-18.884-67.135-29.276S314.85,669.48,314.85,669.48h36.026Z" fill="#fd8753"/>
    <path id="Tracé_5073" data-name="Tracé 5073" d="M437.558,582.059a1.02,1.02,0,0,1-.568-.171,1.037,1.037,0,0,1-.3-1.437c19.813-30.312,22.492-75.5,22.519-75.956a1.038,1.038,0,1,1,2.073.114c-.024.457-2.739,46.2-22.854,76.979a1.033,1.033,0,0,1-.869.471" fill="#ea703f"/>
    <path id="Tracé_5074" data-name="Tracé 5074" d="M466.439,483.11a1.064,1.064,0,0,1-.157-.011,1.043,1.043,0,0,1-.871-1.185c7.3-48.085-17.272-153.424-17.521-154.482a1.039,1.039,0,0,1,.395-1.074l16.262-12.008a1.039,1.039,0,1,1,1.234,1.673l-15.712,11.6c2.1,9.123,24.448,108.148,17.4,154.6a1.04,1.04,0,0,1-1.028.882" fill="#5e1dbb"/>
    <path id="Tracé_5075" data-name="Tracé 5075" d="M436.87,117.568S434.3,107.977,424.3,97.5l-10-10.477s1.121,19.833-7.753,28.391-15.083,3.456-15.083,3.456l-17-14.894L404.7,76.122s33.8-1.292,32.172,41.446" fill="#5e1dbb"/>
    <path id="Tracé_5076" data-name="Tracé 5076" d="M426.071,167.486l22.83,3.159s20.371,22.18,20.908,46.873-4.644,36.022-4.644,36.022l7.939,38.793S453.056,309,418.9,312.555a161.232,161.232,0,0,1-63.1-6.6s5.076-121.821,5.076-132.18c0-7,65.189-6.292,65.189-6.292" fill="#ffb700"/>
    <path id="Tracé_5077" data-name="Tracé 5077" d="M394.611,270.2s43.21-8.755,54.058-4.416,2.169,40.137-1.085,46.646-47.825-3.268-47.825-3.268l-12.923-18.428Z" fill="#fd8753"/>
    <path id="Tracé_5078" data-name="Tracé 5078" d="M448.669,265.781S474.9,283.6,475.91,294.687s-31.254-12.1-31.254-12.1Z" fill="#fd8753"/>
    <path id="Tracé_5079" data-name="Tracé 5079" d="M431.55,310.818s-22.18,5.041-15.123,11.09,29.045-3.839,31.158-9.481-14.018-12.7-14.018-12.7Z" fill="#fd8753"/>
    <path id="Tracé_5080" data-name="Tracé 5080" d="M372.444,169.653S281.3,186.08,278.823,254.446c-1.866,51.6,119.923,67.355,119.923,67.355l5.952-57.284Z" fill="#ffb700"/>
    <path id="Tracé_5081" data-name="Tracé 5081" d="M400.179,259.5a1.032,1.032,0,0,1-.425-.091c-.444-.2-44.667-19.861-62.717-19.861a1.042,1.042,0,0,1-1.056-1.038.95.95,0,0,1,1.056-1.04c18.491,0,61.735,19.224,63.567,20.042a1.039,1.039,0,0,1-.425,1.988" fill="#fff"/>
    <path id="Tracé_5082" data-name="Tracé 5082" d="M367.076,246.516a1.043,1.043,0,0,1-.582-.177c-5.456-3.678-18.053-12.64-17.16-16.423.156-.659.687-1.491,2.332-1.705,7.922-1.007,15.515,15,16.354,16.833a1.038,1.038,0,0,1-.944,1.472m-14.668-16.274a3.45,3.45,0,0,0-.476.031,1.2,1.2,0,0,0-.6.177c-.2,1.329,5.45,6.451,12.928,11.8-2.863-5.123-7.662-12.01-11.848-12.01" fill="#fff"/>
    <path id="Tracé_5083" data-name="Tracé 5083" d="M427.148,165.973l9.779,3.015s3.274,18.723-19.146,19.876c-23.531,1.209-42.192-19.6-42.192-19.6l20.55-3.292Z" fill="#fd8753"/>
    <path id="Tracé_5084" data-name="Tracé 5084" d="M415.773,189.952c-24.7-.047-40.837-19.837-41-20.037a1.04,1.04,0,0,1,1.624-1.3c.154.192,15.693,19.212,39.286,19.258,7.7,0,13.283-2,16.668-5.939,4.628-5.389,3.559-12.713,3.548-12.786a1.039,1.039,0,0,1,2.052-.324c.053.337,1.242,8.315-4.008,14.445-3.8,4.434-9.911,6.682-18.173,6.682" fill="#fff"/>
    <path id="Tracé_5085" data-name="Tracé 5085" d="M363.031,483.827c-2.168,0-4.179-.081-5.627-.16a1.037,1.037,0,0,1-.495-1.916c1.394-.876,13.759-8.411,18.335-3.293a2.3,2.3,0,0,1,.6,2.644c-1.072,2.233-7.429,2.725-12.814,2.725m-1.789-2.108c6.649.119,12.159-.517,12.722-1.507a2.487,2.487,0,0,0-.271-.368c-2.189-2.449-8.265-.214-12.451,1.875" fill="#5e1dbb"/>
    <path id="Tracé_5086" data-name="Tracé 5086" d="M429.38,314.35h-6.922a1.038,1.038,0,0,1-.875-1.6l3.462-5.4a1.038,1.038,0,0,1,1.748,1.12l-2.436,3.8h5.023a1.039,1.039,0,0,1,0,2.078"/>
    <path id="Tracé_5087" data-name="Tracé 5087" d="M453.958,288.06a1.03,1.03,0,0,1-.771-.344c-2.774-3.082-7.813-8.2-9.526-8.807a1.039,1.039,0,1,1,.693-1.96c2.773.983,9.607,8.521,10.378,9.376a1.04,1.04,0,0,1-.774,1.735"/>
    <path id="Tracé_5088" data-name="Tracé 5088" d="M451.433,300.767a1.027,1.027,0,0,1-.7-.271l-12.8-11.645a1.039,1.039,0,1,1,1.4-1.537l12.8,11.645a1.039,1.039,0,0,1-.7,1.808"/>
    <path id="Tracé_5089" data-name="Tracé 5089" d="M420.4,138.687a1.107,1.107,0,0,1-.276-.036,13.046,13.046,0,0,1-6.693-5.1,1.041,1.041,0,0,1,1.722-1.17,11.12,11.12,0,0,0,5.526,4.266,1.039,1.039,0,0,1-.279,2.04"/>
    <path id="Tracé_5090" data-name="Tracé 5090" d="M469,237.583a1.04,1.04,0,0,1-.934-1.5c10.568-21.477-10.07-51.223-10.281-51.521a1.039,1.039,0,0,1,1.7-1.2c.885,1.257,21.561,31.046,10.449,53.634a1.043,1.043,0,0,1-.934.581" fill="#fff"/>
    <path id="Tracé_5091" data-name="Tracé 5091" d="M359.19,107.3a1.038,1.038,0,0,1-1.034-.941c-2.5-26.162,19.236-36.01,19.456-36.106a1.039,1.039,0,0,1,.836,1.9c-.842.371-20.581,9.371-18.224,34.007a1.04,1.04,0,0,1-.934,1.134c-.035,0-.068,0-.1,0" fill="#fff"/>
  </g>
</svg>
