<svg xmlns="http://www.w3.org/2000/svg" xmlns:xlink="http://www.w3.org/1999/xlink" width="38.084" height="42.994" viewBox="0 0 38.084 42.994">
  <defs>
    <linearGradient id="linear-gradient" x1="0.5" x2="0.5" y2="1" gradientUnits="objectBoundingBox">
      <stop offset="0" stop-color="#ff2053"/>
      <stop offset="0.246" stop-color="#5e1dbb"/>
      <stop offset="0.395" stop-color="#9364ed"/>
      <stop offset="0.664" stop-color="#ff771e"/>
      <stop offset="0.83" stop-color="#ffb700"/>
      <stop offset="1" stop-color="#e2209e"/>
    </linearGradient>
  </defs>
  <path id="Tracé_5099" data-name="Tracé 5099" d="M493.029,48.817l-.2-1.539c.106-.014,10.725-1.456,13.769-7.267a8.233,8.233,0,0,0,.082-6.947c-5.374,1.728-12.039,1.116-16.087-3.015-2.935-3-2.683-5.222-2.269-6.281.649-1.658,2.489-2.733,4.9-2.851,4.063-.214,10.189,2.214,14.08,9.751.076.147.149.292.217.437a14.235,14.235,0,0,0,2.343-1.259,9.764,9.764,0,0,0,4.592-7.117c-2.639.042-5.474-1.354-8.453-4.17-4.61-4.358-6.7-8.289-5.733-10.785A3.2,3.2,0,0,1,503.4,5.824c3.357-.061,8.368,3.115,11.427,10.234a14.543,14.543,0,0,1,1.207,4.859c6.082-1.925,8.579-13.753,8.6-13.873l1.522.312c-.107.523-2.707,12.848-9.662,15.043-.158.049-.315.094-.476.133a11.276,11.276,0,0,1-5.295,8.6,15.5,15.5,0,0,1-2.593,1.388,9.692,9.692,0,0,1-.165,8.21c-3.42,6.525-14.474,8.022-14.942,8.083M492.894,22.5c-1.584.172-2.737.842-3.124,1.834-.478,1.223.209,2.868,1.934,4.629,3.588,3.665,9.521,4.207,14.357,2.683-.044-.088-.091-.177-.135-.266-3.324-6.439-8.734-9.117-12.619-8.914-.142.007-.278.019-.413.033m10.245-15.1a1.584,1.584,0,0,0-1.42.941c-.553,1.429.562,4.569,5.351,9.1,2.7,2.548,5.19,3.8,7.435,3.743a12.948,12.948,0,0,0-1.1-4.5c-2.968-6.9-7.59-9.339-9.973-9.3-.1,0-.192.008-.293.019" transform="translate(-488.077 -5.823)" fill="url(#linear-gradient)"/>
</svg>
