<svg id="Composant_25_1" data-name="Composant 25 – 1" xmlns="http://www.w3.org/2000/svg" xmlns:xlink="http://www.w3.org/1999/xlink" width="51.315" height="52.371" viewBox="0 0 51.315 52.371">
  <defs>
    <clipPath id="clip-path">
      <rect id="Rectangle_4335" data-name="Rectangle 4335" width="51.315" height="52.371" fill="none"/>
    </clipPath>
  </defs>
  <g id="Groupe_10648" data-name="Groupe 10648" clip-path="url(#clip-path)">
    <path id="Tracé_5107" data-name="Tracé 5107" d="M107.206,0a10.253,10.253,0,0,1,9.386,5.2,10.056,10.056,0,0,1,.169,10.764c-2.442,4.3-4.927,8.576-7.409,12.853a2.433,2.433,0,0,1-4.386-.022c-2.5-4.312-5.007-8.62-7.466-12.955A10.7,10.7,0,0,1,106.68,0c.175,0,.351,0,.526,0m6.174,9.767a6.133,6.133,0,0,0-6.271-6.245,6.264,6.264,0,0,0,.054,12.528,6.112,6.112,0,0,0,6.217-6.283" transform="translate(-81.126 0)" fill="#fff"/>
    <path id="Tracé_5108" data-name="Tracé 5108" d="M249.787,119.442c.213.1.389.169.558.253,2.88,1.417,5.754,2.848,8.644,4.243a1.531,1.531,0,0,1,.963,1.434c.346,4.621.74,9.239,1.111,13.858q.512,6.376,1.007,12.753c.077.989-.581,1.428-1.505,1.011-3.05-1.376-6.093-2.765-9.145-4.135a.591.591,0,0,1-.4-.608c-.175-4.067-.367-8.133-.55-12.2q-.344-7.646-.678-15.293c-.018-.42,0-.841,0-1.317" transform="translate(-210.761 -100.783)" fill="#fff"/>
    <path id="Tracé_5109" data-name="Tracé 5109" d="M81.4,117.934c.824.308,1.575.566,2.3.877a1.172,1.172,0,0,1,.443.5c1.885,3.249,3.773,6.5,5.633,9.76a4.788,4.788,0,0,0,2.488,2.269.658.658,0,0,1,.286.521c-.1,5.279-.219,10.557-.324,15.835-.025,1.283,0,2.567,0,3.934-.33-.1-.532-.145-.726-.217-3.6-1.321-7.19-2.652-10.792-3.958a.637.637,0,0,1-.51-.748q.477-10.947.924-21.895c.094-2.257.183-4.514.279-6.885" transform="translate(-67.672 -99.511)" fill="#fff"/>
    <path id="Tracé_5110" data-name="Tracé 5110" d="M11.692,119.834c0,1.274.041,2.551-.007,3.825-.161,4.263-.356,8.525-.534,12.788q-.252,6.014-.49,12.029a.666.666,0,0,1-.426.671c-2.9,1.375-5.792,2.772-8.689,4.154-.981.468-1.629.023-1.536-1.053q.755-8.76,1.519-17.519c.253-2.93.52-5.858.734-8.791a1.9,1.9,0,0,1,1.14-1.77c2.657-1.343,5.275-2.762,7.909-4.151.15-.079.307-.147.381-.183" transform="translate(0 -101.114)" fill="#fff"/>
    <path id="Tracé_5111" data-name="Tracé 5111" d="M168.7,151.727c0-.187,0-.341,0-.5q.2-9.41.4-18.82c.01-.481.09-.754.635-.893a4.024,4.024,0,0,0,2.481-2.08c2.01-3.493,4.041-6.974,6.035-10.475a1.792,1.792,0,0,1,1.185-.8c.089,1.985.177,3.907.263,5.829q.39,8.759.779,17.519c.083,1.869.164,3.737.254,5.606.013.276-.01.461-.331.573q-5.76,2-11.51,4.037a.86.86,0,0,1-.189,0" transform="translate(-142.349 -99.704)" fill="#fff"/>
    <path id="Tracé_5112" data-name="Tracé 5112" d="M143.154,43.321a4.39,4.39,0,1,1,4.351-4.37,4.275,4.275,0,0,1-4.351,4.37" transform="translate(-117.113 -29.145)" fill="#fff"/>
  </g>
</svg>
