<svg id="Composant_9_2" data-name="Composant 9 – 2" xmlns="http://www.w3.org/2000/svg" xmlns:xlink="http://www.w3.org/1999/xlink" width="214.573" height="375" viewBox="0 0 214.573 375">
  <defs>
    <clipPath id="clip-path">
      <rect id="Rectangle_4339" data-name="Rectangle 4339" width="214.574" height="375" fill="none"/>
    </clipPath>
  </defs>
  <g id="Groupe_10660" data-name="Groupe 10660" clip-path="url(#clip-path)">
    <path id="Tracé_5235" data-name="Tracé 5235" d="M82.044,38.768c.8,4.01-.317,7.61-2.487,8.039s-4.576-2.473-5.373-6.483.317-7.61,2.487-8.039,4.576,2.473,5.373,6.483" transform="translate(43.933 19.066)" fill="#fff"/>
    <path id="Tracé_5236" data-name="Tracé 5236" d="M82.977,38.583c.8,4.01-.317,7.61-2.487,8.039s-4.576-2.473-5.373-6.483.317-7.61,2.487-8.039,4.576,2.473,5.373,6.483" transform="translate(44.487 18.957)" fill="#e2209e"/>
    <path id="Tracé_5237" data-name="Tracé 5237" d="M65.6,35.428s-6.2-.657-9.354,3.693.521,11.781.521,11.781A8,8,0,0,0,49.8,55.368c-2.623,4.7.129,12.059,7.141,13.068s34.714-1.171,42.655-10.8S93.71,39.927,93.71,39.927Z" transform="translate(29.017 20.929)" fill="#5e1dbb"/>
    <path id="Tracé_5238" data-name="Tracé 5238" d="M29.457,85.35S15.257,92.215,7.922,99.1-.545,109.817.194,110.934s6.171-2.277,6.171-2.277S-.37,115.3,1.3,117.714s8.155-2.833,8.155-2.833-3.949,5.627-1.43,6.4,22.564-8.565,26.116-17.98c1.516-4.023,1.07-4.683,1.07-4.683Z" transform="translate(0 50.47)" fill="#fd8753"/>
    <path id="Tracé_5239" data-name="Tracé 5239" d="M13.339,103.035l15.085,28.447S82.37,93.851,96.409,87.268C111.2,80.334,101.7,49.9,101.7,49.9s-46.071,4.112-88.363,53.13" transform="translate(7.927 29.51)" fill="#ffb700"/>
    <path id="Tracé_5240" data-name="Tracé 5240" d="M34.566,108.925a.452.452,0,0,1-.4-.237l-16.2-29.949a.453.453,0,0,1,.8-.43l16.195,29.949a.452.452,0,0,1-.4.667" transform="translate(10.647 46.166)" fill="#fff"/>
    <path id="Tracé_5241" data-name="Tracé 5241" d="M123.975,40.627s12.759-9.707,18.285-18.116,5.5-12.509,4.367-13.5-5.77,3.5-5.77,3.5,4.976-8.043,2.45-10.175-7.681,4.448-7.681,4.448S137.992.307,135.094,0s-11.335,12.568-11.335,12.568,2.039-7.686-.2-7.949-9.124,8.728-9.905,13.047.043,10.586.043,10.586Z" transform="translate(67.342 0)" fill="#fd8753"/>
    <path id="Tracé_5242" data-name="Tracé 5242" d="M118.917,23.626a.452.452,0,0,1-.4-.657c4.7-9.2,1.821-14.628,1.792-14.68a.453.453,0,0,1,.791-.441c.131.236,3.165,5.866-1.776,15.531a.452.452,0,0,1-.4.247" transform="translate(70.4 4.504)"/>
    <path id="Tracé_5243" data-name="Tracé 5243" d="M132.3,19.307a.45.45,0,0,1-.333-.146L120.694,6.918a.453.453,0,0,1,.668-.613L132.63,18.549a.452.452,0,0,1-.025.638.46.46,0,0,1-.308.119" transform="translate(71.655 3.643)"/>
    <path id="Tracé_5244" data-name="Tracé 5244" d="M156.755,35,135.28,10.99S90.951,64.826,76.931,71.911c-14.576,7.368,6.79,35.8,6.79,35.8S129.566,95.568,156.755,35" transform="translate(42.694 6.499)" fill="#ffb700"/>
    <path id="Tracé_5245" data-name="Tracé 5245" d="M73.276,212.328l-.027-14.037,26.266-.939.931,19.351-12.974,3.347Z" transform="translate(43.53 116.7)" fill="#fd8753"/>
    <path id="Tracé_5246" data-name="Tracé 5246" d="M108.224,95.274s23.117,62.137,19.128,96.654c-4.391,37.983-9.484,68.12-10.388,70.108s-52.743,1.421-52.743,1.421L89.838,98.115Z" transform="translate(38.164 56.338)" fill="#9364ed"/>
    <path id="Tracé_5247" data-name="Tracé 5247" d="M40.239,204.576l4.839-10.227,25.331,8.238-6.831,16.193-13.661-1.7Z" transform="translate(23.913 114.924)" fill="#fd8753"/>
    <path id="Tracé_5248" data-name="Tracé 5248" d="M71.341,95.274s-9.295,20.815-7.786,49.223,2.06,37.142,2.06,37.142-30.741,69.886-30.138,71.591,42.8,18.183,45.812,16.761,34.057-82.386,35.563-87.5-2.713-84.375-2.713-84.375Z" transform="translate(21.077 56.338)" fill="#9364ed"/>
    <path id="Tracé_5249" data-name="Tracé 5249" d="M74.933,235.614a3.714,3.714,0,0,1-3.511-3.728c-.116-8-.223-26.505,1.271-26.527,1.9-.027,19.943,5.4,19.943,5.4s.387-11.085,8.3-9.209c6.077,1.442,13.193,8.388,16.174,11.542a6.859,6.859,0,0,0,3.456,1.992c5.66,1.3,21.239,5.6,21.577,13.728.413,9.939-3.684,8.861-5.59,8.888-1.634.022-48.41-1.62-61.625-2.086" transform="translate(42.409 119.056)" fill="#e2209e"/>
    <path id="Tracé_5250" data-name="Tracé 5250" d="M34.844,226.327a3.678,3.678,0,0,1-1.279-4.906c3.662-7.112,11-23.5,12.3-22.834,1.658.851,15.968,13.929,15.968,13.929s5.55-9.608,11.507-4.314c4.572,4.063,7.45,13.464,8.542,17.619a6.673,6.673,0,0,0,2.049,3.347c4.279,3.744,15.713,14.7,12.18,22.032-4.319,8.964-7.351,6.13-9.009,5.278-1.424-.73-41.061-23.669-52.257-30.151" transform="translate(19.682 117.419)" fill="#e2209e"/>
    <path id="Tracé_5251" data-name="Tracé 5251" d="M68.574,253.685a.444.444,0,0,1-.156-.029.452.452,0,0,1-.269-.579c.226-.611,22.588-61.325,26.975-72.972,4.344-11.536-3.927-65.862-4.011-66.409a.45.45,0,0,1,.281-.487l12.783-5.115a.452.452,0,0,1,.338.839l-12.451,4.981c.78,5.148,8.2,55.119,3.909,66.51C91.586,192.067,69.224,252.777,69,253.389a.454.454,0,0,1-.426.3" transform="translate(40.482 63.9)" fill="#5e1dbb"/>
    <path id="Tracé_5252" data-name="Tracé 5252" d="M71.693,200.569a.446.446,0,0,1-.167-.032L38.365,187.408a.453.453,0,0,1,.335-.842L71.86,199.7a.452.452,0,0,1-.167.872" transform="translate(22.629 110.304)" fill="#5e1dbb"/>
    <path id="Tracé_5253" data-name="Tracé 5253" d="M103.041,193.944H70.768a.452.452,0,1,1,0-.9h32.273a.452.452,0,1,1,0,.9" transform="translate(41.786 114.15)" fill="#5e1dbb"/>
    <path id="Tracé_5254" data-name="Tracé 5254" d="M76.518,52.586s-7.614-1.1-14.336,2.506c-13.609,7.293-9.9,35.076-9.9,35.076s4.636,37.36,5.4,38.125,18.592,2.046,37.768-2.007,22.964-7.5,23.92-8.31-17.555-60.924-17.555-60.924-10.081-6.582-25.3-4.467" transform="translate(30.798 30.848)" fill="#ffb700"/>
    <path id="Tracé_5255" data-name="Tracé 5255" d="M65.2,44.3l.77,11.644s2.326,3.208,9.188,3.312c5.11.078,6.82-1.187,6.82-1.187l-1.1-5.851L79.8,46.51,67.3,44.618Z" transform="translate(38.747 26.195)" fill="#fd8753"/>
    <path id="Tracé_5256" data-name="Tracé 5256" d="M65.19,43.948a3.844,3.844,0,0,0,.413,1.1c3,5.644,12.329,7.3,15.283,7.373l-1.079-5.7Z" transform="translate(38.741 25.988)"/>
    <path id="Tracé_5257" data-name="Tracé 5257" d="M83.9,30.346s7.088,14.195,5.212,22.465-9.384,7.363-13.918,6.01a14.753,14.753,0,0,1-6.739-3.974,6.292,6.292,0,0,1-7.066-2.1c-2.98-3.721-1.491-8.241.834-9.378s5.236.434,5.236.434l-2.428-4.107s8.23-21.908,18.87-9.347" transform="translate(35.492 15.647)" fill="#fd8753"/>
    <path id="Tracé_5258" data-name="Tracé 5258" d="M75.668,36.027a.516.516,0,0,1-.108-.013.451.451,0,0,1-.332-.544,2.324,2.324,0,0,1,1.017-1.354,2.453,2.453,0,0,1,1.974-.14.452.452,0,1,1-.253.867,1.616,1.616,0,0,0-1.258.051,1.42,1.42,0,0,0-.6.792.452.452,0,0,1-.438.341" transform="translate(44.698 20.009)"/>
    <path id="Tracé_5259" data-name="Tracé 5259" d="M70.259,36.688a.462.462,0,0,1-.279-.1.452.452,0,0,1-.078-.635,2.784,2.784,0,0,1,3.967-.715.452.452,0,0,1-.536.729,1.891,1.891,0,0,0-2.717.543.452.452,0,0,1-.357.173" transform="translate(41.484 20.523)"/>
    <path id="Tracé_5260" data-name="Tracé 5260" d="M77.572,33.017c-.054,0-2.916-.344-2.916-.344a.452.452,0,1,1,.108-.9l2.859.341a.452.452,0,0,1-.051.9" transform="translate(44.129 18.788)"/>
    <path id="Tracé_5261" data-name="Tracé 5261" d="M69.86,34.372a.452.452,0,0,1-.188-.864l3.268-1.482a.453.453,0,0,1,.375.824l-3.267,1.482a.459.459,0,0,1-.188.04" transform="translate(41.247 18.914)"/>
    <path id="Tracé_5262" data-name="Tracé 5262" d="M75.968,43a.459.459,0,0,1-.451-.485c.333-4.585-1.628-6.785-1.647-6.808a.452.452,0,1,1,.67-.608c.091.1,2.242,2.513,1.88,7.482a.452.452,0,0,1-.451.419" transform="translate(43.829 20.668)"/>
    <path id="Tracé_5263" data-name="Tracé 5263" d="M73.334,44.319a2.384,2.384,0,0,1-.593-.075,3.072,3.072,0,0,1-2.057-2.573.456.456,0,0,1,.148-.39.451.451,0,0,1,.4-.1l4.351.993a.452.452,0,0,1,.268.7,3.511,3.511,0,0,1-2.522,1.443m-1.566-2.093a1.811,1.811,0,0,0,1.2,1.141,1.869,1.869,0,0,0,1.647-.492Z" transform="translate(42.004 24.342)"/>
    <path id="Tracé_5264" data-name="Tracé 5264" d="M67.068,42.326a.454.454,0,0,1-.175-.035L60.95,39.8a.452.452,0,1,1,.351-.832l5.943,2.494a.452.452,0,0,1-.175.869" transform="translate(36.056 23.019)"/>
    <path id="Tracé_5265" data-name="Tracé 5265" d="M61.6,43.319a.451.451,0,0,1-.327-.764l2.513-2.627a.453.453,0,0,1,.655.625l-2.514,2.626a.445.445,0,0,1-.327.14" transform="translate(36.337 23.528)"/>
    <path id="Tracé_5266" data-name="Tracé 5266" d="M131.21,41.8a.45.45,0,0,1-.335-.148l-22.913-25.2a.452.452,0,1,1,.67-.606l22.913,25.2a.452.452,0,0,1-.335.756" transform="translate(64.089 9.279)" fill="#fff"/>
    <path id="Tracé_5267" data-name="Tracé 5267" d="M90.66,78.021a.454.454,0,0,1-.453-.428,33.977,33.977,0,0,0-8.035-19.645.452.452,0,0,1,.66-.619,34.939,34.939,0,0,1,8.281,20.216.454.454,0,0,1-.43.476H90.66" transform="translate(48.761 33.815)" fill="#fff"/>
    <path id="Tracé_5268" data-name="Tracé 5268" d="M56.639,152.376c-1.191,0-2.006-.045-2.119-.053a.452.452,0,0,1-.228-.826c1.1-.742,10.809-7.2,13.749-5.644a1.785,1.785,0,0,1,.906,1.722,3.08,3.08,0,0,1-1.043,2.3c-2.318,2.183-8.11,2.5-11.265,2.5M56,151.462c2.808.04,9.054-.14,11.286-2.244a2.177,2.177,0,0,0,.759-1.644c0-.625-.244-.826-.426-.923-1.674-.882-7.57,2.223-11.619,4.811" transform="translate(32.146 86.104)" fill="#5e1dbb"/>
    <path id="Tracé_5269" data-name="Tracé 5269" d="M8.287,107.092a1.334,1.334,0,0,1-.96-.342c-1.916-1.833,4.619-9.534,6.667-11.849a.453.453,0,1,1,.679.6c-3.939,4.454-7.579,9.776-6.718,10.6s5.467-2.475,9.231-6.069a.441.441,0,0,1,.346-.124c.271.019,6.611.4,8.834-5.15a.453.453,0,0,1,.842.334c-2.232,5.579-8.324,5.757-9.534,5.724-1.846,1.752-6.867,6.281-9.387,6.281" transform="translate(4.148 55.862)"/>
    <path id="Tracé_5270" data-name="Tracé 5270" d="M68.505,45.474l2.415,2.877-.7-2.763a12.139,12.139,0,0,0,3.3-2.49c1.531-1.655,1.377-6.014,1.377-6.014A5.341,5.341,0,0,0,79.555,35.9a12.019,12.019,0,0,0,3.177-5.4l2.908,3s-2.75-8.224-6.725-9.581-5.782,2.471-5.782,2.471-5.931.395-8.6,3.46S62.143,34.6,62.143,34.6a6.889,6.889,0,0,0-4.1,5.391c-.666,4.169,2.736,9.712,2.736,9.712s1.027-6.6,7.724-4.227" transform="translate(34.443 13.973)" fill="#5e1dbb"/>
    <path id="Tracé_5271" data-name="Tracé 5271" d="M67.958,61.035a3.044,3.044,0,0,1-1.46-.352c-2.478-1.327-1.052-8.216-.883-9a.455.455,0,0,1,.781-.205c.2.228,5.092,5.519,15.523,2a.448.448,0,0,1,.466.107c.249.25,2.436,2.479,2.124,4.129a1.693,1.693,0,0,1-1.082,1.254c-2.315,1-6.784-1.552-8.1-2.36-.982,1.02-4.472,4.425-7.366,4.425m-1.615-8.362c-.489,2.713-.7,6.526.583,7.215,2.321,1.248,6.556-2.583,7.986-4.163a.454.454,0,0,1,.225-.135,13.5,13.5,0,0,1-8.794-2.917m9.014,2.915a.5.5,0,0,1,.137.059c1.494.961,5.76,3.28,7.571,2.492.43-.186.521-.426.553-.592.156-.823-.88-2.266-1.682-3.121a21.988,21.988,0,0,1-6.58,1.162" transform="translate(38.66 30.353)" fill="#fff"/>
    <path id="Tracé_5272" data-name="Tracé 5272" d="M61.154,43.269c.469,4.061,2.631,7.148,4.829,6.9s3.6-3.751,3.131-7.812-2.631-7.15-4.829-6.9-3.6,3.751-3.131,7.812" transform="translate(36.288 20.958)" fill="#fff"/>
    <path id="Tracé_5273" data-name="Tracé 5273" d="M60.209,43.377c.469,4.061,2.631,7.148,4.829,6.9s3.6-3.751,3.131-7.812-2.631-7.15-4.829-6.9-3.6,3.751-3.131,7.812" transform="translate(35.727 21.022)" fill="#e2209e"/>
    <path id="Tracé_5274" data-name="Tracé 5274" d="M61.961,43.176a17.6,17.6,0,0,1-1.58-10.235c1.046-5.818,4.241-6.157,4.241-6.157s-1.507,9.332,1.049,15.7-3.71.7-3.71.7" transform="translate(35.752 15.838)" fill="#e2209e"/>
  </g>
</svg>
