<svg id="Groupe_10656" data-name="Groupe 10656" xmlns="http://www.w3.org/2000/svg" xmlns:xlink="http://www.w3.org/1999/xlink" width="215.268" height="374.073" viewBox="0 0 215.268 374.073">
  <defs>
    <clipPath id="clip-path">
      <rect id="Rectangle_4337" data-name="Rectangle 4337" width="215.268" height="374.073" fill="none"/>
    </clipPath>
  </defs>
  <g id="Groupe_10655" data-name="Groupe 10655" clip-path="url(#clip-path)">
    <path id="Tracé_5149" data-name="Tracé 5149" d="M135.082,217.207v.086l-.222,7a1.136,1.136,0,0,1-1.09,1.185l-65.8-2.558a1.17,1.17,0,0,1-1.014-1.229l-.025-9.846,1.72.274s-1.348-6.968-2.092-12.954.236-21.383,1.646-21.773c1.128-.318,18.7-.449,26.151-.491a4.545,4.545,0,0,1,4.171,3.483c1.139,3.774,3.514,9.527,7.858,11.524,6.67,3.064,21.67,7.82,24.689,12.707,2.216,3.628,2.265,8.081,2.142,10.12a1.337,1.337,0,0,0,.11.651,1.041,1.041,0,0,0,.817.637l.2.042a1.252,1.252,0,0,1,.742,1.143" transform="translate(38.125 148.595)" fill="#fff"/>
    <path id="Tracé_5150" data-name="Tracé 5150" d="M134.852,201.255v.087l-.222,7a1.136,1.136,0,0,1-1.09,1.185l-65.8-2.558a1.17,1.17,0,0,1-1.014-1.229l-.025-9.846,1.72.274,65.492,3.9.2.042a1.252,1.252,0,0,1,.742,1.143" transform="translate(38.356 164.548)" fill="#fff"/>
    <path id="Tracé_5151" data-name="Tracé 5151" d="M154.688,203.932l-.032.079-2.767,6.21a.983.983,0,0,1-1.419.526l-58.52-35.24a1.344,1.344,0,0,1-.466-1.619l3.588-8.909,1.454,1.109s1.336-6.972,2.86-12.751,8.053-19.2,9.471-18.851c1.134.276,17.061,8.953,23.809,12.643a5.4,5.4,0,0,1,2.492,5.235c-.354,3.98-.318,10.368,2.876,14.345,4.9,6.107,16.711,17.912,17.649,23.837a18.216,18.216,0,0,1-1.777,10.217,1.339,1.339,0,0,0-.137.644,1.246,1.246,0,0,0,.5.983l.164.138a1.421,1.421,0,0,1,.252,1.4" transform="translate(52.551 112.963)" fill="#fff"/>
    <path id="Tracé_5152" data-name="Tracé 5152" d="M154.688,190.009l-.032.079-2.767,6.21a.983.983,0,0,1-1.419.526l-58.52-35.24a1.344,1.344,0,0,1-.466-1.619l3.588-8.909,1.454,1.11,57.746,36.3.164.138a1.421,1.421,0,0,1,.252,1.4" transform="translate(52.551 126.887)" fill="#fff"/>
    <path id="Tracé_5153" data-name="Tracé 5153" d="M60.621,92.279s.925,38.6,5.547,65.447-2.774,108.49-2.774,108.49l52.7,2.55s4.623-60.212,3.7-96.179a362.18,362.18,0,0,0-8.321-66.865l3.7-33.957Z" transform="translate(34.861 60.282)" fill="#ffb700"/>
    <path id="Tracé_5154" data-name="Tracé 5154" d="M99.382,71.553s57.968,28.238,65.329,56.214-15.888,85.444-15.888,85.444l-42.315-23.017s10.265-36.329,8.553-39.059-15.678-8.488-15.678-8.488L85.411,98.573Z" transform="translate(49.116 60.104)" fill="#ffb700"/>
    <path id="Tracé_5155" data-name="Tracé 5155" d="M99.664,140.3a.478.478,0,0,1-.444-.467c-.019-.2-1.832-20.06-4.19-30.362L92.637,99.01a.592.592,0,0,1,.091-.473L106.123,80.1a.405.405,0,0,1,.63-.061.585.585,0,0,1,.052.738L93.562,99,95.9,109.2c2.374,10.381,4.194,30.319,4.213,30.52a.509.509,0,0,1-.4.574l-.047,0" transform="translate(53.263 67.129)" fill="#5e1dbb"/>
    <path id="Tracé_5156" data-name="Tracé 5156" d="M104.4,119.825a.442.442,0,0,1-.391-.269.587.587,0,0,1,.076-.624c2.731-3.181,9.283-10.448,11.029-9.378.443.272.594.868.449,1.774-.915,5.7-10.647,8.372-11.062,8.484a.379.379,0,0,1-.1.013m10.158-9.384c-.947,0-4.618,3.34-8.6,7.813,2.777-1,8.127-3.4,8.724-7.119.083-.524.006-.662,0-.664a.267.267,0,0,0-.129-.029" transform="translate(59.778 91.936)" fill="#5e1dbb"/>
    <path id="Tracé_5157" data-name="Tracé 5157" d="M66.463,102.188a.436.436,0,0,1-.384-.254.576.576,0,0,1,.153-.718c7.351-5.169,7.781-15.009,7.784-15.106a.466.466,0,0,1,.466-.5.5.5,0,0,1,.428.543c0,.1-.443,10.5-8.217,15.962a.393.393,0,0,1-.23.075" transform="translate(37.962 71.909)" fill="#5e1dbb"/>
    <path id="Tracé_5158" data-name="Tracé 5158" d="M125.6,156.407a.378.378,0,0,1-.153-.031L113.3,151.213a.53.53,0,0,1-.293-.513.511.511,0,0,1,.329-.484l8.957-2.83a.445.445,0,0,1,.548.368.539.539,0,0,1-.315.642l-7.592,2.4,10.817,4.6a.55.55,0,0,1,.268.67.458.458,0,0,1-.421.344" transform="translate(64.985 123.789)" fill="#ffb700"/>
    <path id="Tracé_5159" data-name="Tracé 5159" d="M82.89,188.623a.464.464,0,0,1-.432-.385.563.563,0,0,1,.213-.594l8.83-5.813a.416.416,0,0,1,.611.2.574.574,0,0,1-.17.712l-7.293,4.8,12.441-.247a.555.555,0,0,1,.455.513.491.491,0,0,1-.439.532l-14.209.282Z" transform="translate(47.41 152.682)" fill="#ffb700"/>
    <path id="Tracé_5160" data-name="Tracé 5160" d="M64.4,29.512l9.186-1.573,18.587-.026,20.8,23.34,8.519,58.736-56.5,22.235L53.02,77.278Z" transform="translate(30.49 23.447)" fill="#5e1dbb"/>
    <path id="Tracé_5161" data-name="Tracé 5161" d="M10.871,73.687C4.456,68.035.518,52.535.038,48.158s3.7-2.778,3.7-2.778S.841,41.585,2,38.3,7,38.661,7,38.661s-1.537-5.332,2.542-4.607,11.391,10.089,14.1,15.691,3.183,8.2,3.183,8.2l1.649,2.867L26.589,76.67s-9.427,2.559-15.718-2.983" transform="translate(0 28.548)" fill="#fd8753"/>
    <path id="Tracé_5162" data-name="Tracé 5162" d="M64.469,20.9l1.355,12.924S68.348,37.27,75.342,37c5.209-.2,6.888-1.7,6.888-1.7l-1.4-6.455-1.38-6.293L66.621,21.142Z" transform="translate(37.073 17.558)" fill="#fd8753"/>
    <path id="Tracé_5163" data-name="Tracé 5163" d="M65.836,21.043a5.065,5.065,0,0,0,.476,1.288c3.333,6.552,10.876,7.22,13.887,7.128l-1.537-6.891Z" transform="translate(37.86 17.676)"/>
    <path id="Tracé_5164" data-name="Tracé 5164" d="M82.341,6.483s7.93,16.5,6.433,26.472S79.586,42.276,74.9,40.931a14.712,14.712,0,0,1-7.061-4.344s-4.083,2.168-7.3-2.094-1.929-9.735.38-11.226,5.354.212,5.354.212l-2.678-4.753S70.876-7.866,82.341,6.483" transform="translate(33.703 1.876)" fill="#fd8753"/>
    <path id="Tracé_5165" data-name="Tracé 5165" d="M68.481,26.733s2.405-1.089,4.116-5.527a17.8,17.8,0,0,0,1.44-7.932s4.527,2.883,8.023,1.443c5.437-2.241,1.03-6.25,1.03-6.25L87.41,17.6a6.968,6.968,0,0,0,1.233-4.326,5.77,5.77,0,0,0-2.262-3.846S87,2.7,82.266.774,73.625,4.62,73.625,4.62s.822-6.49-5.35-4.085S62.1,13.754,62.1,13.754s-4.116,1.684-5.555,5.288S60.457,27.7,60.457,27.7s.822-5.529,8.023-.962" transform="translate(32.377 0)" fill="#fff"/>
    <path id="Tracé_5166" data-name="Tracé 5166" d="M73.063,21.786a1.505,1.505,0,0,1-1.013-.39c-1.013-.891-1.136-2.97-1.147-3.2a.566.566,0,0,1,.172-.438.391.391,0,0,1,.4-.09l4.15,1.454a.534.534,0,0,1,.312.592c-.022.144-.276,1.432-2.415,2.013a1.8,1.8,0,0,1-.465.063M71.889,18.9a3.093,3.093,0,0,0,.7,1.662.729.729,0,0,0,.736.142A3.065,3.065,0,0,0,74.8,19.92Z" transform="translate(40.773 14.819)"/>
    <path id="Tracé_5167" data-name="Tracé 5167" d="M65.626,20.33a.405.405,0,0,1-.265-.1l-4.842-4.168a.585.585,0,0,1-.094-.732.407.407,0,0,1,.625-.11l4.842,4.168a.585.585,0,0,1,.095.732.43.43,0,0,1-.361.212" transform="translate(34.698 12.698)"/>
    <path id="Tracé_5168" data-name="Tracé 5168" d="M60.785,19.517a.447.447,0,0,1-.4-.3.561.561,0,0,1,.214-.7l3.286-1.816a.424.424,0,0,1,.6.25.564.564,0,0,1-.214.7l-3.287,1.816a.4.4,0,0,1-.191.05" transform="translate(34.697 13.99)"/>
    <path id="Tracé_5169" data-name="Tracé 5169" d="M75.788,21.065a.5.5,0,0,1-.447-.561c.249-3.873-2.38-7.857-2.407-7.9a.587.587,0,0,1,.077-.734.405.405,0,0,1,.628.09c.117.175,2.868,4.337,2.594,8.617a.483.483,0,0,1-.446.484" transform="translate(41.887 9.88)"/>
    <path id="Tracé_5170" data-name="Tracé 5170" d="M74.733,31.82a15.424,15.424,0,0,1-9.51-3.238.58.58,0,0,1-.087-.73.405.405,0,0,1,.627-.1c.065.057,6.645,5.728,15.971,1.4a.43.43,0,0,1,.581.291.558.558,0,0,1-.25.681,17.294,17.294,0,0,1-7.332,1.7" transform="translate(37.405 23.22)" fill="#fff"/>
    <path id="Tracé_5171" data-name="Tracé 5171" d="M132.029,200.024c-.02,0-63.046-3.168-63.046-3.168a.5.5,0,0,1-.428-.545.47.47,0,0,1,.466-.5l63.028,3.168a.5.5,0,0,1,.427.545.484.484,0,0,1-.446.5" transform="translate(39.422 164.479)" fill="#ffb700"/>
    <path id="Tracé_5172" data-name="Tracé 5172" d="M149.971,186.1a.384.384,0,0,1-.208-.061L98.221,154.308a.567.567,0,0,1-.187-.7.419.419,0,0,1,.6-.221l51.542,31.734a.571.571,0,0,1,.187.707.444.444,0,0,1-.4.28" transform="translate(56.345 128.791)" fill="#ffb700"/>
    <path id="Tracé_5173" data-name="Tracé 5173" d="M69.335,13.966a.391.391,0,0,1-.216-.064.57.57,0,0,1-.176-.71,2.888,2.888,0,0,1,3.717-1.807.548.548,0,0,1,.272.666.438.438,0,0,1-.57.32A2.051,2.051,0,0,0,69.728,13.7a.446.446,0,0,1-.394.27" transform="translate(39.614 9.411)"/>
    <path id="Tracé_5174" data-name="Tracé 5174" d="M77.573,12.668a.417.417,0,0,1-.323-.16,1.937,1.937,0,0,0-2.645-.383.414.414,0,0,1-.613-.182.573.573,0,0,1,.151-.714,2.717,2.717,0,0,1,3.752.554.587.587,0,0,1-.013.74.413.413,0,0,1-.31.145" transform="translate(42.514 9)"/>
    <path id="Tracé_5175" data-name="Tracé 5175" d="M68.941,11.262a.45.45,0,0,1-.411-.316.558.558,0,0,1,.235-.686l2.771-1.386a.426.426,0,0,1,.589.274.559.559,0,0,1-.236.686L69.118,11.22a.388.388,0,0,1-.176.042" transform="translate(39.388 7.418)"/>
    <path id="Tracé_5176" data-name="Tracé 5176" d="M76.708,10.567a.364.364,0,0,1-.139-.026L73.683,9.458a.545.545,0,0,1-.29-.657.441.441,0,0,1,.564-.339l2.887,1.084a.548.548,0,0,1,.29.659.462.462,0,0,1-.425.362" transform="translate(42.193 7.088)"/>
    <path id="Tracé_5177" data-name="Tracé 5177" d="M79.561,28.049s25.445-2.74,46.9,8.374,13.419,36.283.972,50.057-40,20.49-40,20.49L74.954,74.842,88.534,59.3Z" transform="translate(43.103 23.31)" fill="#5e1dbb"/>
    <path id="Tracé_5178" data-name="Tracé 5178" d="M85.855,28.782S57.619,49.559,46.246,52.13,15.713,54.7,15.713,54.7l.254,34.7s37,15.421,65.028,0,13.237-59.215,4.861-60.615" transform="translate(9.036 24.177)" fill="#5e1dbb"/>
    <path id="Tracé_5179" data-name="Tracé 5179" d="M78.4,85.025c-4.41-.46-10.627-8.988-10.49-11.748s6.507.07,6.507.07-9.691-5.879-11.306-9.87,2.78-3.974,2.78-3.974-3.755-2.567-3.519-6.114,4.845-1.454,4.845-1.454-2.871-4.517,1.2-5.3,13.5,5.483,17.56,9.833,5.2,6.65,5.2,6.65L95.9,81.01S86.8,85.9,78.4,85.025" transform="translate(35.86 39.117)" fill="#fd8753"/>
    <path id="Tracé_5180" data-name="Tracé 5180" d="M82.883,56.217l.874-1.432S95.69,70.357,87.613,74.109s-10.841-9.6-10.841-9.6Z" transform="translate(44.148 46.019)" fill="#fd8753"/>
    <path id="Tracé_5181" data-name="Tracé 5181" d="M67.687,62.575a.429.429,0,0,1-.364-.217.581.581,0,0,1,.1-.73l11.339-9.516a.408.408,0,0,1,.625.118.582.582,0,0,1-.1.73L67.948,62.478a.409.409,0,0,1-.261.1" transform="translate(38.666 43.69)"/>
    <path id="Tracé_5182" data-name="Tracé 5182" d="M82.965,69.129a.457.457,0,0,1-.424-.357c-2.43-8.516-11.833-7.251-11.926-7.237a.47.47,0,0,1-.5-.454A.513.513,0,0,1,70.5,60.5c.1-.018,10.222-1.393,12.887,7.943a.546.546,0,0,1-.284.661.388.388,0,0,1-.142.028" transform="translate(40.318 50.75)"/>
    <path id="Tracé_5183" data-name="Tracé 5183" d="M82.224,58.146a.418.418,0,0,1-.332-.171l-1.408-1.822a.587.587,0,0,1,.031-.74.4.4,0,0,1,.632.039l1.41,1.82a.589.589,0,0,1-.032.74.415.415,0,0,1-.3.134" transform="translate(46.216 46.434)"/>
    <path id="Tracé_5184" data-name="Tracé 5184" d="M15.492,63.26a.387.387,0,0,1-.225-.072c-.181-.123-4.432-3.067-6.141-6.913a12.163,12.163,0,0,1-1.339-5.338c-1.265-.6-5.443-2.887-4.516-6.8a1.985,1.985,0,0,1,2.139-1.516c4.161-.129,14.223,6.129,15.844,11.706a.549.549,0,0,1-.279.664.436.436,0,0,1-.569-.328c-1.488-5.124-11.062-11.145-14.969-11-.753.026-1.192.278-1.3.749-.844,3.571,4.24,5.671,4.292,5.691a.544.544,0,0,1,.284.64c0,.007-.323,1.593,1.213,5.051,1.588,3.575,5.757,6.464,5.8,6.493a.571.571,0,0,1,.159.714.436.436,0,0,1-.386.259" transform="translate(1.805 35.796)"/>
    <path id="Tracé_5185" data-name="Tracé 5185" d="M6.777,45.693a.446.446,0,0,1-.408-.309.561.561,0,0,1,.225-.692l6.952-3.634a.424.424,0,0,1,.591.263.562.562,0,0,1-.225.692L6.96,45.647a.391.391,0,0,1-.183.046" transform="translate(3.64 34.45)"/>
    <path id="Tracé_5186" data-name="Tracé 5186" d="M81.709,57.624a.415.415,0,0,1-.332-.173.585.585,0,0,1,.033-.738,161.672,161.672,0,0,1,19.14-16.667.408.408,0,0,1,.617.164.575.575,0,0,1-.14.719A161.069,161.069,0,0,0,82.009,57.49a.41.41,0,0,1-.3.134" transform="translate(46.73 33.57)" fill="#fff"/>
    <path id="Tracé_5187" data-name="Tracé 5187" d="M55.194,67.738a.434.434,0,0,1-.376-.237.581.581,0,0,1,.134-.725c.061-.044,6.229-4.74,6.811-9.148a.465.465,0,0,1,.51-.436.515.515,0,0,1,.375.594c-.643,4.878-6.943,9.667-7.211,9.87a.41.41,0,0,1-.243.083" transform="translate(31.482 48.036)" fill="#fff"/>
    <path id="Tracé_5188" data-name="Tracé 5188" d="M89.325,49.729a.385.385,0,0,1-.2-.055.541.541,0,0,1-.243-.519c.093-1.073.988-10.554,3.659-12.56a1.745,1.745,0,0,1,1.764-.258A2.194,2.194,0,0,1,95.7,38.086c.58,3.292-4.248,9.588-6.072,11.509a.4.4,0,0,1-.3.134m4.309-12.481a1.013,1.013,0,0,0-.611.226c-1.674,1.259-2.689,6.968-3.1,10.328,2.265-2.71,5.273-7.362,4.9-9.507a1.188,1.188,0,0,0-.8-.966.981.981,0,0,0-.381-.081" transform="translate(51.11 30.412)" fill="#fff"/>
    <path id="Tracé_5189" data-name="Tracé 5189" d="M38.029,52.579a.948.948,0,0,1-.736-.348c-1.4-1.614.915-9.384,1.659-11.726a.45.45,0,0,1,.441-.34.47.47,0,0,1,.411.392c.235,1.056,2.185,10.374-1.186,11.881a1.429,1.429,0,0,1-.589.142M39.271,42.6c-1.158,4.044-1.939,8.21-1.348,8.893.072.083.244.029.376-.028,1.832-.819,1.477-5.693.972-8.865" transform="translate(21.193 33.737)" fill="#fff"/>
  </g>
</svg>
